<svg width="97" height="102" viewBox="0 0 97 102" fill="none" xmlns="http://www.w3.org/2000/svg">
<path d="M23.6432 22.5418H16.5491V88.9643H23.6432V22.5418Z" fill="#A6C68D"/>
<path fill-rule="evenodd" clip-rule="evenodd" d="M63.8754 17.4779C63.8754 15.032 61.8975 13.0489 59.458 13.0489H37.5291C35.0896 13.0489 33.1117 15.032 33.1117 17.4779V20.1617L63.8754 20.162L63.8754 17.4779Z" fill="#A6C68D"/>
<path fill-rule="evenodd" clip-rule="evenodd" d="M48.4996 81.2301C38.5703 81.2301 29.9858 75.3466 26.0169 66.8853V88.9646H70.9692V66.8853C67.0134 75.347 58.4291 81.2301 48.4996 81.2301Z" fill="#A6C68D"/>
<path fill-rule="evenodd" clip-rule="evenodd" d="M0 31.3204V80.1853C0 85.0241 3.92953 88.9642 8.7559 88.9642H14.2018V22.5417H8.7559C3.91638 22.5417 0 26.4816 0 31.3204Z" fill="#A6C68D"/>
<path d="M14.1887 11.8722C17.4585 11.8722 20.1092 9.21455 20.1092 5.93612C20.1092 2.65769 17.4585 0 14.1887 0C10.9188 0 8.2681 2.65769 8.2681 5.93612C8.2681 9.21455 10.9188 11.8722 14.1887 11.8722Z" fill="#A6C68D"/>
<path d="M87.5316 10.6824C89.4906 10.6824 91.0787 9.09013 91.0787 7.12598C91.0787 5.16183 89.4906 3.56957 87.5316 3.56957C85.5726 3.56957 83.9846 5.16183 83.9846 7.12598C83.9846 9.09013 85.5726 10.6824 87.5316 10.6824Z" fill="#A6C68D"/>
<path d="M33.1111 102C34.4147 102 35.4715 100.94 35.4715 99.6335C35.4715 98.3265 34.4147 97.2669 33.1111 97.2669C31.8076 97.2669 30.7508 98.3265 30.7508 99.6335C30.7508 100.94 31.8076 102 33.1111 102Z" fill="#A6C68D"/>
<path fill-rule="evenodd" clip-rule="evenodd" d="M26.017 22.5418V45.8109C29.9862 37.3493 38.5705 31.4662 48.4997 31.4662C58.4289 31.4662 67.0135 37.3496 70.9824 45.8109V22.5418H26.017Z" fill="#A6C68D"/>
<path fill-rule="evenodd" clip-rule="evenodd" d="M48.4996 78.8497C60.8817 78.8497 70.9429 68.7489 70.9429 56.3475C70.9429 43.9328 60.8685 33.8452 48.4996 33.8452C36.1174 33.8452 26.0563 43.946 26.0563 56.3475C26.0431 68.7489 36.1177 78.8497 48.4996 78.8497ZM48.4996 38.2478C58.4554 38.2478 66.5518 46.3655 66.5518 56.3475C66.5518 66.3295 58.4554 74.4471 48.4996 74.4471C38.5437 74.4471 30.4473 66.3295 30.4473 56.3475C30.4473 46.3655 38.5437 38.2478 48.4996 38.2478Z" fill="#A6C68D"/>
<path fill-rule="evenodd" clip-rule="evenodd" d="M88.2441 22.5418H82.7979V88.9643H88.2441C93.0702 88.9643 97 85.0244 97 80.1854L96.9997 31.3204C96.9997 26.4817 93.0701 22.5418 88.2441 22.5418Z" fill="#A6C68D"/>
<path d="M80.4375 22.5418H73.3433V88.9643H80.4375V22.5418Z" fill="#A6C68D"/>
<path fill-rule="evenodd" clip-rule="evenodd" d="M39.0317 60.4989H44.359V65.8402C44.359 66.5012 44.8866 67.0301 45.5458 67.0301H51.4663C52.1255 67.0301 52.6531 66.5012 52.6531 65.8402V60.4989H57.9804C58.6396 60.4989 59.1672 59.97 59.1672 59.309V53.3729C59.1672 52.712 58.6396 52.1831 57.9804 52.1831L52.6531 52.1828V46.8414C52.6531 46.1805 52.1255 45.6516 51.4663 45.6516H45.5458C44.8866 45.6516 44.359 46.1805 44.359 46.8414V52.1828H39.0317C38.3725 52.1828 37.8449 52.7117 37.8449 53.3726V59.3087C37.8449 59.97 38.3722 60.4989 39.0317 60.4989Z" fill="#A6C68D"/>
</svg>
