<svg width="98" height="64" viewBox="0 0 98 64" fill="none" xmlns="http://www.w3.org/2000/svg">
<path d="M23.4296 63.4983C27.4817 63.4983 30.7666 60.2286 30.7666 56.1952C30.7666 52.1618 27.4817 48.8921 23.4296 48.8921C19.3775 48.8921 16.0927 52.1618 16.0927 56.1952C16.0927 60.2286 19.3775 63.4983 23.4296 63.4983Z" fill="white"/>
<path d="M75.8422 63.4983C79.8943 63.4983 83.1791 60.2286 83.1791 56.1952C83.1791 52.1618 79.8943 48.8921 75.8422 48.8921C71.7901 48.8921 68.5053 52.1618 68.5053 56.1952C68.5053 60.2286 71.7901 63.4983 75.8422 63.4983Z" fill="white"/>
<path d="M97.5154 30.7264L88.3579 14.425C87.685 13.2262 86.412 12.4827 85.0313 12.4827H64.2063V4.05014C64.2063 1.95502 62.5 0.256592 60.3952 0.256592H3.81111C1.70629 0.256592 0 1.95502 0 4.05014V50.4572C0 52.5523 1.70629 54.2507 3.81111 54.2507H10.1528C12.2576 54.2507 13.9639 52.5523 13.9639 50.4572C13.9639 48.362 12.2576 46.6636 10.1528 46.6636H7.62222V7.84369H56.5841V46.6636H37.2062C35.1014 46.6636 33.3951 48.362 33.3951 50.4572C33.3951 52.5523 35.1014 54.2507 37.2062 54.2507H60.3941C62.499 54.2507 64.2052 52.5523 64.2052 50.4572V20.0687H82.7948L90.3778 33.5661V46.6636H89.8224C87.7176 46.6636 86.0113 48.362 86.0113 50.4572C86.0113 52.5523 87.7176 54.2507 89.8224 54.2507H94.1889C96.2937 54.2507 98 52.5523 98 50.4572V32.5776C98 31.9295 97.8334 31.2911 97.5154 30.7264Z" fill="white"/>
<path d="M39.543 23.3897H34.2074V18.0798C34.2074 15.9846 32.5012 14.2862 30.3963 14.2862C28.2915 14.2862 26.5852 15.9846 26.5852 18.0798V23.3897H21.2497C19.1448 23.3897 17.4386 25.0881 17.4386 27.1832C17.4386 29.2783 19.1448 30.9767 21.2497 30.9767H26.5852V36.2877C26.5852 38.3828 28.2915 40.0813 30.3963 40.0813C32.5012 40.0813 34.2074 38.3828 34.2074 36.2877V30.9767H39.543C41.6478 30.9767 43.3541 29.2783 43.3541 27.1832C43.3541 25.0881 41.6489 23.3897 39.543 23.3897Z" fill="white"/>
</svg>
