<svg width="142" height="42" viewBox="0 0 142 42" fill="none" xmlns="http://www.w3.org/2000/svg">
<path d="M135.754 36.5716C138.547 36.5716 140.526 36.0565 142 34.9471V29.915C140.487 30.9848 138.663 31.6584 136.103 31.6584C131.796 31.6584 130.011 28.2509 130.011 22.8622C130.011 17.1961 132.184 14.3037 136.142 14.3037C138.469 14.3037 140.758 15.1358 141.961 15.9282V10.698C140.681 9.98482 138.469 9.46973 135.443 9.46973C127.722 9.46973 123.726 15.1358 123.726 23.0603C123.765 31.7377 127.684 36.5716 135.754 36.5716ZM98.0033 34.2735V29.2414C96.141 30.549 92.9596 31.698 90.0497 31.698C85.6268 31.698 83.9585 29.5584 83.6869 25.1999H98.2749V21.9509C98.2749 12.8773 94.3563 9.46973 88.3426 9.46973C80.971 9.46973 77.4792 15.215 77.4792 23.0999C77.4792 32.1735 81.8634 36.5716 89.5454 36.5716C93.3863 36.5716 96.2186 35.5018 98.0033 34.2735ZM42.6388 9.9452V20.2471H34.5689V9.9452H28.5164V36.0565H34.5689V25.1603H42.6388V36.0565H48.6913V9.9452H42.6388ZM75.9661 31.1433H73.2891V9.9452H55.6749V12.1641C55.6749 18.5433 55.2869 26.7848 53.153 31.1433H51.2131V41.9999H56.8V36.0565H70.3404V41.9999H75.9273V31.1433H75.9661ZM117.286 36.0565H124.153L114.454 21.9905L122.989 9.9452H116.898L108.362 21.9905V9.9452H102.31V36.0565H108.362V23.2188L117.286 36.0565ZM88.1874 14.3037C91.1749 14.3037 92.106 16.8395 92.106 20.1282V20.6433H83.6869C83.8421 16.4829 85.3164 14.3037 88.1874 14.3037ZM67.2366 31.1433H58.7011C60.3694 27.2207 60.835 20.0886 60.835 15.5716V14.7792H67.2366V31.1433Z" fill="black"/>
<path d="M23.4727 36.0566H17.3038V4.87358H14.5492C9.50546 4.87358 6.86721 7.44906 6.86721 11.2925C6.86721 15.6509 8.69071 17.6717 12.4541 20.2472L15.5579 22.3868L6.63443 36.0566H0L8.03115 23.8528C3.41421 20.4849 0.814754 17.1962 0.814754 11.6491C0.814754 4.71509 5.54809 0 14.5104 0H23.4339V36.0566H23.4727Z" fill="#FC3F1D"/>
</svg>
