<svg width="26" height="30" viewBox="0 0 26 30" fill="none" xmlns="http://www.w3.org/2000/svg">
<path d="M6.77312 9.2837H4.74624C4.53519 9.28388 4.33283 9.36987 4.18357 9.5228C4.03431 9.67573 3.95033 9.88312 3.95008 10.0994V12.176C3.95033 12.3923 4.03431 12.5997 4.18357 12.7526C4.33283 12.9056 4.53519 12.9916 4.74624 12.9917H6.77184C6.98283 12.9915 7.18511 12.9055 7.3343 12.7525C7.4835 12.5996 7.56743 12.3923 7.56768 12.176V10.0994C7.56743 9.8834 7.48367 9.67626 7.33476 9.52338C7.18584 9.37049 6.98389 9.28431 6.77312 9.2837ZM6.80256 12.176C6.80197 12.1838 6.79868 12.1911 6.79328 12.1967C6.78788 12.2022 6.78073 12.2056 6.77312 12.2062H4.74624C4.73863 12.2056 4.73148 12.2022 4.72608 12.1967C4.72068 12.1911 4.71739 12.1838 4.7168 12.176V10.0994C4.71746 10.0917 4.72078 10.0844 4.72617 10.079C4.73157 10.0735 4.73868 10.0702 4.74624 10.0696H6.77184C6.7794 10.0702 6.78651 10.0735 6.7919 10.079C6.7973 10.0844 6.80062 10.0917 6.80128 10.0994L6.80256 12.176ZM10.2906 12.9917H12.3162C12.5272 12.9915 12.7294 12.9055 12.8786 12.7525C13.0278 12.5996 13.1117 12.3923 13.112 12.176V10.0994C13.1117 9.88317 13.0278 9.67584 12.8786 9.52291C12.7294 9.36999 12.5272 9.28396 12.3162 9.2837H10.2906C10.0795 9.28388 9.87715 9.36987 9.72789 9.5228C9.57863 9.67573 9.49465 9.88312 9.4944 10.0994V12.176C9.49465 12.3921 9.57845 12.5993 9.72744 12.7522C9.87642 12.9051 10.0785 12.9912 10.2893 12.9917H10.2906ZM10.2611 10.0994C10.2618 10.0917 10.2651 10.0844 10.2705 10.079C10.2759 10.0735 10.283 10.0702 10.2906 10.0696H12.3162C12.3237 10.0702 12.3308 10.0735 12.3362 10.079C12.3416 10.0844 12.3449 10.0917 12.3456 10.0994V12.176C12.345 12.1838 12.3417 12.1911 12.3363 12.1967C12.3309 12.2022 12.3238 12.2056 12.3162 12.2062H10.2906C10.2829 12.2056 10.2758 12.2022 10.2704 12.1967C10.265 12.1911 10.2617 12.1838 10.2611 12.176V10.0994ZM15.8323 12.9917H17.8579C18.0689 12.9915 18.2712 12.9055 18.4204 12.7525C18.5696 12.5996 18.6535 12.3923 18.6538 12.176V10.0994C18.6535 9.88317 18.5696 9.67584 18.4204 9.52291C18.2712 9.36999 18.0689 9.28396 17.8579 9.2837H15.831C15.62 9.28388 15.4176 9.36987 15.2684 9.5228C15.1191 9.67573 15.0351 9.88312 15.0349 10.0994V12.176C15.0351 12.3923 15.1191 12.5997 15.2684 12.7526C15.4176 12.9056 15.62 12.9916 15.831 12.9917H15.8323ZM15.8029 10.0994C15.8035 10.0917 15.8069 10.0844 15.8123 10.079C15.8176 10.0735 15.8248 10.0702 15.8323 10.0696H17.8579C17.8655 10.0702 17.8726 10.0735 17.878 10.079C17.8834 10.0844 17.8867 10.0917 17.8874 10.0994V12.176C17.8868 12.1838 17.8835 12.1911 17.8781 12.1967C17.8727 12.2022 17.8655 12.2056 17.8579 12.2062H15.831C15.8234 12.2056 15.8163 12.2022 15.8109 12.1967C15.8055 12.1911 15.8022 12.1838 15.8016 12.176L15.8029 10.0994ZM6.77312 14.3162H4.74624C4.53525 14.3165 4.33297 14.4025 4.18378 14.5554C4.03458 14.7083 3.95065 14.9157 3.9504 15.1319V17.2092C3.95082 17.4253 4.03483 17.6325 4.184 17.7853C4.33318 17.9381 4.53536 18.024 4.74624 18.0242H6.77216C6.98321 18.0242 7.18564 17.9384 7.33502 17.7856C7.4844 17.6328 7.56854 17.4255 7.56896 17.2092V15.1319C7.56871 14.9157 7.48478 14.7083 7.33558 14.5554C7.18639 14.4025 6.98411 14.3165 6.77312 14.3162ZM6.80256 17.2085C6.80197 17.2163 6.79868 17.2236 6.79328 17.2292C6.78788 17.2347 6.78073 17.2381 6.77312 17.2387H4.74624C4.73868 17.238 4.73161 17.2346 4.72628 17.2291C4.72094 17.2236 4.7177 17.2163 4.71712 17.2085V15.1319C4.71736 15.1241 4.72051 15.1167 4.72592 15.1111C4.73133 15.1056 4.73859 15.1023 4.74624 15.1021H6.77216C6.77972 15.1027 6.78683 15.106 6.79222 15.1115C6.79762 15.1169 6.80094 15.1242 6.8016 15.1319L6.80256 17.2085ZM17.0544 20.1241C17.0544 21.0619 17.5709 21.2209 18.5603 21.4423C19.4531 21.6421 20.6755 21.9153 20.6755 23.5383C20.6788 24.0504 20.4947 24.5453 20.1596 24.9251C19.8244 25.305 19.3625 25.5423 18.865 25.5902V26.2807C18.8683 26.3344 18.861 26.3882 18.8432 26.4389C18.8255 26.4896 18.7978 26.536 18.7619 26.5752C18.726 26.6145 18.6826 26.6458 18.6344 26.6672C18.5862 26.6886 18.5343 26.6997 18.4818 26.6997C18.4292 26.6997 18.3773 26.6886 18.3291 26.6672C18.2809 26.6458 18.2375 26.6145 18.2016 26.5752C18.1657 26.536 18.138 26.4896 18.1203 26.4389C18.1026 26.3882 18.0952 26.3344 18.0986 26.2807V25.5902C17.6013 25.5423 17.1395 25.3052 16.8044 24.9256C16.4693 24.546 16.285 24.0515 16.288 23.5396C16.2846 23.4859 16.292 23.432 16.3097 23.3813C16.3275 23.3307 16.3551 23.2843 16.391 23.245C16.427 23.2057 16.4704 23.1744 16.5185 23.153C16.5667 23.1316 16.6187 23.1206 16.6712 23.1206C16.7237 23.1206 16.7757 23.1316 16.8239 23.153C16.872 23.1744 16.9154 23.2057 16.9514 23.245C16.9873 23.2843 17.0149 23.3307 17.0327 23.3813C17.0504 23.432 17.0578 23.4859 17.0544 23.5396C17.0544 24.435 17.7712 24.8358 18.4819 24.8358C19.1926 24.8358 19.9091 24.435 19.9091 23.5396C19.9091 22.5936 19.3907 22.4336 18.3971 22.2112C17.5069 22.0121 16.288 21.7395 16.288 20.1254C16.2848 19.6133 16.4689 19.1185 16.8041 18.7387C17.1392 18.3589 17.6011 18.1217 18.0986 18.0738V17.385C18.0952 17.3313 18.1026 17.2774 18.1203 17.2267C18.138 17.1761 18.1657 17.1297 18.2016 17.0904C18.2375 17.0511 18.2809 17.0198 18.3291 16.9984C18.3773 16.977 18.4292 16.966 18.4818 16.966C18.5343 16.966 18.5862 16.977 18.6344 16.9984C18.6826 17.0198 18.726 17.0511 18.7619 17.0904C18.7978 17.1297 18.8255 17.1761 18.8432 17.2267C18.861 17.2774 18.8683 17.3313 18.865 17.385V18.0738C19.3624 18.1216 19.8243 18.3588 20.1595 18.7387C20.4947 19.1185 20.6788 19.6133 20.6755 20.1254C20.6789 20.1791 20.6715 20.233 20.6538 20.2837C20.6361 20.3343 20.6084 20.3807 20.5725 20.42C20.5366 20.4593 20.4932 20.4906 20.445 20.512C20.3968 20.5334 20.3448 20.5444 20.2923 20.5444C20.2398 20.5444 20.1878 20.5334 20.1397 20.512C20.0915 20.4906 20.0481 20.4593 20.0122 20.42C19.9763 20.3807 19.9486 20.3343 19.9309 20.2837C19.9131 20.233 19.9057 20.1791 19.9091 20.1254C19.9166 19.9424 19.8821 19.7602 19.8086 19.5934C19.735 19.4265 19.6243 19.2796 19.4854 19.1644C19.197 18.9407 18.8436 18.8228 18.4819 18.8295C17.7702 18.8282 17.0544 19.229 17.0544 20.1241ZM22.6038 15.3845V4.00881C22.603 3.5141 22.4109 3.03989 22.0696 2.69008C21.7283 2.34026 21.2657 2.14336 20.783 2.14249H18.3584V1.49338C18.3584 1.10313 18.2072 0.728876 17.9379 0.452933C17.6687 0.176991 17.3036 0.021968 16.9229 0.021968C16.5422 0.021968 16.177 0.176991 15.9078 0.452933C15.6386 0.728876 15.4874 1.10313 15.4874 1.49338V2.14249H12.7373V1.49338C12.7401 1.29832 12.7051 1.10463 12.6342 0.923582C12.5634 0.74253 12.4581 0.577727 12.3245 0.438762C12.191 0.299796 12.0318 0.18944 11.8562 0.114115C11.6807 0.0387906 11.4922 0 11.3019 0C11.1116 0 10.9232 0.0387906 10.7476 0.114115C10.5721 0.18944 10.4129 0.299796 10.2793 0.438762C10.1457 0.577727 10.0405 0.74253 9.9696 0.923582C9.89875 1.10463 9.86372 1.29832 9.86656 1.49338V2.14249H7.11648V1.49338C7.11932 1.29832 7.08429 1.10463 7.01344 0.923582C6.94258 0.74253 6.8373 0.577727 6.70374 0.438762C6.57017 0.299796 6.41097 0.18944 6.23542 0.114115C6.05986 0.0387906 5.87144 0 5.68112 0C5.4908 0 5.30238 0.0387906 5.12682 0.114115C4.95126 0.18944 4.79207 0.299796 4.6585 0.438762C4.52494 0.577727 4.41966 0.74253 4.3488 0.923582C4.27795 1.10463 4.24292 1.29832 4.24576 1.49338V2.14249H1.8208C1.33815 2.14336 0.875517 2.34026 0.534234 2.69008C0.192951 3.03989 0.000846008 3.5141 0 4.00881V20.0264C8.94943e-05 20.1306 0.040481 20.2305 0.11232 20.3042L4.88512 25.1963C4.95704 25.2699 5.05451 25.3113 5.15616 25.3114H11.7702C12.291 26.3657 13.0412 27.2831 13.963 27.9928C14.8848 28.7024 15.9534 29.1854 17.0863 29.4043C18.2191 29.6232 19.386 29.5722 20.4965 29.2552C21.6071 28.9382 22.6318 28.3638 23.4912 27.5763C24.3507 26.7887 25.022 25.8092 25.4533 24.7133C25.8846 23.6174 26.0643 22.4346 25.9785 21.2562C25.8927 20.0779 25.5438 18.9355 24.9586 17.9173C24.3735 16.8992 23.5678 16.0326 22.6038 15.3845ZM16.2541 1.49338C16.2547 1.31187 16.3254 1.138 16.4507 1.00977C16.576 0.881555 16.7458 0.809427 16.9229 0.809168C17.1003 0.809342 17.2703 0.881667 17.3957 1.01026C17.5211 1.13885 17.5916 1.3132 17.5917 1.49502V3.3715C17.5917 3.55332 17.5212 3.72768 17.3958 3.85624C17.2704 3.9848 17.1003 4.05702 16.9229 4.05702C16.7455 4.05702 16.5754 3.9848 16.45 3.85624C16.3245 3.72768 16.2541 3.55332 16.2541 3.3715V1.49338ZM10.633 1.49338C10.6336 1.31182 10.7043 1.13789 10.8297 1.00966C10.9551 0.88143 11.1249 0.809341 11.3021 0.809168C11.4794 0.809429 11.6494 0.881781 11.7748 1.01036C11.9002 1.13893 11.9707 1.31323 11.9709 1.49502V3.3715C11.9671 3.55076 11.8949 3.72136 11.7699 3.84675C11.6448 3.97214 11.4768 4.04235 11.3019 4.04235C11.127 4.04235 10.959 3.97214 10.834 3.84675C10.7089 3.72136 10.6368 3.55076 10.633 3.3715V1.49338ZM5.01216 1.49338C5.01275 1.31187 5.08345 1.138 5.20878 1.00977C5.33411 0.881555 5.50388 0.809427 5.68096 0.809168C5.85834 0.809342 6.0284 0.881667 6.1538 1.01026C6.2792 1.13885 6.34968 1.3132 6.34976 1.49502V3.3715C6.34976 3.55332 6.2793 3.72768 6.15387 3.85624C6.02845 3.9848 5.85834 4.05702 5.68096 4.05702C5.50358 4.05702 5.33347 3.9848 5.20805 3.85624C5.08262 3.72768 5.01216 3.55332 5.01216 3.3715V1.49338ZM1.8208 2.92805H4.24576V3.36986C4.25139 3.75626 4.40509 4.12487 4.67366 4.39608C4.94223 4.66728 5.30411 4.8193 5.68112 4.8193C6.05813 4.8193 6.42001 4.66728 6.68858 4.39608C6.95715 4.12487 7.11085 3.75626 7.11648 3.36986V2.92805H9.86624V3.36986C9.87187 3.75626 10.0256 4.12487 10.2941 4.39608C10.5627 4.66728 10.9246 4.8193 11.3016 4.8193C11.6786 4.8193 12.0405 4.66728 12.3091 4.39608C12.5776 4.12487 12.7313 3.75626 12.737 3.36986V2.92805H15.487V3.36986C15.487 3.76011 15.6383 4.13436 15.9075 4.41031C16.1767 4.68625 16.5418 4.84127 16.9226 4.84127C17.3033 4.84127 17.6684 4.68625 17.9376 4.41031C18.2068 4.13436 18.3581 3.76011 18.3581 3.36986V2.92805H20.7827C21.0628 2.92805 21.3314 3.04209 21.5294 3.24508C21.7275 3.44807 21.8387 3.72338 21.8387 4.01045V7.16253H0.7664V4.01045C0.7664 3.72366 0.877437 3.4486 1.07513 3.24566C1.27282 3.04271 1.54101 2.92848 1.8208 2.92805ZM4.7728 23.9702L1.30848 20.4193H3.7184C3.99847 20.4193 4.26707 20.5333 4.46511 20.7363C4.66314 20.9393 4.7744 21.2146 4.7744 21.5017L4.7728 23.9702ZM5.5392 24.5259V21.5001C5.53835 21.0054 5.34625 20.5311 5.00497 20.1813C4.66368 19.8315 4.20105 19.6346 3.7184 19.6337H0.7664V7.94645H21.8374V14.9328C20.4147 14.2043 18.8031 13.9575 17.2347 14.228C15.6664 14.4986 14.2224 15.2726 13.1107 16.4384V15.1319C13.1105 14.9157 13.0265 14.7083 12.8773 14.5554C12.7281 14.4025 12.5259 14.3165 12.3149 14.3162H10.289C10.078 14.3165 9.87569 14.4025 9.7265 14.5554C9.5773 14.7083 9.49337 14.9157 9.49312 15.1319V17.2092C9.49337 17.4254 9.5773 17.6328 9.7265 17.7857C9.87569 17.9386 10.078 18.0246 10.289 18.0249H11.9418C11.7071 18.4465 11.512 18.89 11.359 19.3494H10.2893C10.0782 19.3496 9.87584 19.4357 9.72659 19.5887C9.57734 19.7417 9.49337 19.9491 9.49312 20.1654V22.2417C9.49337 22.458 9.57735 22.6654 9.72661 22.8183C9.87587 22.9712 10.0782 23.0572 10.2893 23.0574H11.0544C11.1333 23.5586 11.2605 24.0505 11.4342 24.5259H5.5392ZM12.3149 17.2387H10.289C10.2814 17.238 10.2743 17.2346 10.269 17.2291C10.2637 17.2236 10.2604 17.2163 10.2598 17.2085V15.1319C10.2601 15.1241 10.2632 15.1167 10.2686 15.1111C10.274 15.1056 10.2813 15.1023 10.289 15.1021H12.3149C12.3224 15.1027 12.3296 15.106 12.3349 15.1115C12.3403 15.1169 12.3437 15.1242 12.3443 15.1319V17.2092C12.3436 17.2169 12.3402 17.224 12.3348 17.2294C12.3295 17.2348 12.3224 17.2381 12.3149 17.2387ZM10.9709 22.2712H10.2893C10.2817 22.2706 10.2745 22.2672 10.2691 22.2617C10.2637 22.2562 10.2604 22.2488 10.2598 22.241V20.1648C10.2604 20.157 10.2637 20.1496 10.2691 20.1441C10.2745 20.1386 10.2817 20.1352 10.2893 20.1346H11.143C11.0205 20.6914 10.9588 21.2605 10.959 21.8313C10.959 21.9789 10.9635 22.1256 10.9715 22.2712H10.9709ZM18.4813 28.7564C17.1451 28.7563 15.8389 28.35 14.7279 27.589C13.617 26.828 12.7511 25.7464 12.2399 24.481C11.7286 23.2156 11.5949 21.8232 11.8557 20.4799C12.1164 19.1366 12.7599 17.9028 13.7048 16.9344C14.6497 15.9659 15.8535 15.3064 17.1641 15.0393C18.4746 14.7721 19.833 14.9093 21.0675 15.4335C22.302 15.9576 23.3572 16.8452 24.0995 17.9841C24.8419 19.1229 25.2381 20.4617 25.2381 21.8313C25.236 23.6673 24.5236 25.4276 23.257 26.7258C21.9904 28.0241 20.2731 28.7543 18.4819 28.7564H18.4813Z" fill="white"/>
</svg>
