<svg width="27" height="27" viewBox="0 0 27 27" fill="none" xmlns="http://www.w3.org/2000/svg">
<path d="M13.5 0.399902C16.7192 0.399902 19.3334 3.02914 19.3334 6.26657V16.3556L15.8641 12.8666H17.875V6.26657C17.875 3.8163 15.9363 1.86657 13.5 1.86657C11.1206 1.86657 9.22113 3.72806 9.13363 6.09756L7.84899 4.80564C8.49488 2.27303 10.7817 0.399902 13.5 0.399902ZM1.1042 0.399902C1.29751 0.399975 1.48289 0.47725 1.61957 0.614739L7.6667 6.69626L9.12503 8.16292L13.8019 12.8666L19.3334 18.4296L26.4112 25.5481C26.548 25.6856 26.6248 25.8721 26.6248 26.0666C26.6248 26.261 26.548 26.4475 26.4112 26.5851C26.2745 26.7225 26.0891 26.7998 25.8957 26.7998C25.7024 26.7998 25.5169 26.7225 25.3802 26.5851L19.3332 20.5035V20.9332C19.3332 24.1707 16.719 26.7999 13.4999 26.7999C10.2809 26.7999 7.66655 24.1707 7.66655 20.9332V8.77021L0.58853 1.65173C0.451815 1.51421 0.375008 1.3277 0.375008 1.13324C0.375008 0.938768 0.451815 0.752262 0.58853 0.614739C0.656244 0.546626 0.736633 0.492596 0.825113 0.455733C0.913591 0.418871 1.00843 0.3999 1.1042 0.399902ZM9.12503 10.2369V12.8666H11.7397L9.12503 10.2369Z" fill="white"/>
</svg>
