<svg width="30" height="30" viewBox="0 0 30 30" fill="none" xmlns="http://www.w3.org/2000/svg">
<g clip-path="url(#clip0_26_3128)">
<path d="M27.5 9.41895V21.2502C27.5001 22.2067 27.1346 23.1271 26.4784 23.823C25.8222 24.519 24.9249 24.9378 23.97 24.9939L23.75 25.0002H6.25C5.29349 25.0002 4.37311 24.6348 3.67717 23.9786C2.98124 23.3224 2.56237 22.4251 2.50625 21.4702L2.5 21.2502V9.41895L14.3062 17.2902L14.4513 17.3727C14.6221 17.4562 14.8098 17.4996 15 17.4996C15.1902 17.4996 15.3779 17.4562 15.5487 17.3727L15.6938 17.2902L27.5 9.41895Z" fill="#A6C68D"/>
<path d="M23.7484 5C25.0984 5 26.2822 5.7125 26.9422 6.78375L14.9984 14.7463L3.05469 6.78375C3.3681 6.27471 3.7987 5.848 4.31057 5.53923C4.82244 5.23046 5.40073 5.04857 5.99719 5.00875L6.24844 5H23.7484Z" fill="#A6C68D"/>
</g>
<defs>
<clipPath id="clip0_26_3128">
<rect width="30" height="30" fill="white"/>
</clipPath>
</defs>
</svg>
