<svg width="100" height="98" viewBox="0 0 100 98" fill="none" xmlns="http://www.w3.org/2000/svg">
<path d="M99.4656 42.2304C99.147 41.0286 98.38 40.0271 97.3062 39.4145C94.9934 38.0831 92.2322 38.7075 90.887 40.8755L86.4974 47.9565C85.9546 47.0964 85.1758 46.4838 84.1964 46.1774C81.9662 45.4941 79.1696 46.578 77.081 48.9345L64.8916 62.6843C64.3842 63.2498 63.747 63.6504 62.7794 63.9921L54.248 67.0555C52.3954 67.7153 50.9204 68.9877 50.0118 70.6019C49.1032 68.9877 47.6282 67.7153 45.7756 67.0555L37.2442 63.9921C36.2648 63.6386 35.6394 63.2498 35.132 62.6843L22.9072 48.9462C20.8068 46.5898 18.022 45.5058 15.7918 46.1892C14.8124 46.4838 14.0336 47.0964 13.4908 47.9683L9.10118 40.8872C7.75598 38.7193 5.00658 38.0831 2.68198 39.4262C1.61998 40.0271 0.852977 41.0286 0.534377 42.2304C0.215777 43.4322 0.380977 44.6811 0.994577 45.7533C2.08018 47.6384 3.46078 50.1952 4.91218 52.8933C8.58198 59.7152 12.7474 67.456 15.6738 70.8729C17.078 72.5106 22.388 75.4797 28.17 78.6373C29.3736 79.2971 30.412 79.8627 31.061 80.2397C32.005 80.7817 32.949 81.7714 32.7366 82.9143L30.766 93.4829C30.6008 94.3901 30.825 95.2738 31.415 95.9807C32.005 96.6876 32.831 97.0764 33.7514 97.0764H50H66.2368C67.1572 97.0764 67.9832 96.6876 68.5732 95.9807C69.1632 95.2738 69.3874 94.3901 69.2222 93.4829L67.2516 82.9143C67.0392 81.7714 67.9714 80.7817 68.9272 80.2397C69.588 79.8627 70.6264 79.2971 71.8182 78.6373C77.612 75.4797 82.922 72.4988 84.3262 70.8729C87.2644 67.456 91.418 59.7152 95.0878 52.8933C96.5392 50.1834 97.9198 47.6266 99.0054 45.7533C99.619 44.6811 99.7842 43.4322 99.4656 42.2304ZM48.9852 95.0499H33.7632C33.4446 95.0499 33.1968 94.9321 32.9844 94.6847C32.772 94.4372 32.713 94.1662 32.772 93.8481L34.7426 83.2795C35.0848 81.4533 34.07 79.6152 32.0876 78.4842C31.415 78.0953 30.3648 77.518 29.1494 76.8582C25.4206 74.8199 18.494 71.0378 17.2196 69.5533C14.4348 66.3014 10.1396 58.3366 6.70578 51.9389C5.24258 49.2172 3.86198 46.6487 2.75278 44.74C2.39878 44.1391 2.31618 43.4322 2.49318 42.7606C2.67018 42.089 3.10678 41.5235 3.70858 41.17C4.21598 40.8755 4.74698 40.7341 5.24258 40.7341C6.10398 40.7341 6.89458 41.1582 7.37838 41.9476L12.8772 50.8196C12.8772 50.8314 12.889 50.8314 12.889 50.8432C12.889 50.8432 12.889 50.855 12.9008 50.855L22.624 65.2292C22.8246 65.5238 23.1432 65.6769 23.4618 65.6769C23.6624 65.6769 23.8512 65.618 24.0282 65.5002C24.4884 65.1821 24.6182 64.5576 24.2996 64.0981L14.8006 50.0655C14.9658 49.2879 15.3906 48.4278 16.37 48.1333C17.8214 47.6855 19.8392 48.5692 21.385 50.3012L33.598 64.0274C34.542 65.0878 35.663 65.5827 36.548 65.9008L45.0794 68.9642C47.4866 69.8243 48.9852 71.9568 48.9852 74.5136V95.0499ZM97.2472 44.74C96.138 46.6487 94.7574 49.2172 93.2942 51.9389C89.8486 58.3366 85.5652 66.3014 82.7804 69.5533C81.506 71.0378 74.5676 74.8317 70.8388 76.8582C69.6234 77.518 68.585 78.0953 67.9006 78.4842C65.93 79.627 64.9034 81.465 65.2456 83.2795L67.2162 93.8481C67.2752 94.1662 67.2044 94.4254 67.0038 94.6847C66.7914 94.9321 66.5436 95.0499 66.225 95.0499H51.003V74.5018C51.003 71.9451 52.5016 69.8125 54.9088 68.9524L63.4402 65.889C64.3134 65.5709 65.4462 65.076 66.3902 64.0156L78.5914 50.2894C80.1372 48.5456 82.155 47.6738 83.6064 48.1215C84.5976 48.416 85.0106 49.2761 85.1758 50.0538L75.6768 64.0863C75.3582 64.5458 75.488 65.1821 75.9482 65.4884C76.1252 65.6062 76.314 65.6652 76.5146 65.6652C76.845 65.6652 77.1636 65.512 77.3524 65.2174L87.0756 50.8432C87.0756 50.8432 87.0756 50.8314 87.0874 50.8314C87.0874 50.8196 87.0992 50.8196 87.0992 50.8078L92.598 41.9358C93.3768 40.6752 94.8872 40.357 96.2796 41.1582C96.8814 41.5117 97.318 42.0654 97.495 42.7488C97.6956 43.4322 97.6012 44.1391 97.2472 44.74ZM50 52.3984C64.2662 52.3984 75.8656 40.8165 75.8656 26.5719C75.8656 12.3272 64.2662 0.745346 50 0.745346C35.7338 0.745346 24.1344 12.3272 24.1344 26.5719C24.1344 40.8165 35.7338 52.3984 50 52.3984ZM50 2.77188C63.1452 2.77188 73.836 13.4465 73.836 26.5719C73.836 39.6972 63.1452 50.3719 50 50.3719C36.8548 50.3719 26.164 39.6972 26.164 26.5719C26.164 13.4465 36.8548 2.77188 50 2.77188ZM35.3916 33.6412H42.389C42.684 33.6412 42.9318 33.8886 42.9318 34.1832V41.17C42.9318 42.5839 44.0882 43.7385 45.5042 43.7385H54.5194C55.9354 43.7385 57.0918 42.5839 57.0918 41.17V34.1832C57.0918 33.8886 57.3396 33.6412 57.6346 33.6412H64.632C66.048 33.6412 67.2044 32.4865 67.2044 31.0727V22.0711C67.2044 20.6572 66.048 19.5026 64.632 19.5026H57.6346C57.3396 19.5026 57.0918 19.2551 57.0918 18.9606V11.9738C57.0918 10.5599 55.9354 9.40525 54.5194 9.40525H45.5042C44.0882 9.40525 42.9318 10.5599 42.9318 11.9738V18.9606C42.9318 19.2551 42.684 19.5026 42.389 19.5026H35.3916C33.9756 19.5026 32.8192 20.6572 32.8192 22.0711V31.0727C32.8192 32.4865 33.9756 33.6412 35.3916 33.6412ZM34.8488 22.0711C34.8488 21.7765 35.0966 21.5291 35.3916 21.5291H42.389C43.805 21.5291 44.9614 20.3745 44.9614 18.9606V11.9738C44.9614 11.6792 45.2092 11.4318 45.5042 11.4318H54.5194C54.8144 11.4318 55.0622 11.6792 55.0622 11.9738V18.9606C55.0622 20.3745 56.2186 21.5291 57.6346 21.5291H64.632C64.927 21.5291 65.1748 21.7765 65.1748 22.0711V31.0727C65.1748 31.3672 64.927 31.6147 64.632 31.6147H57.6346C56.2186 31.6147 55.0622 32.7693 55.0622 34.1832V41.17C55.0622 41.4646 54.8144 41.712 54.5194 41.712H45.5042C45.2092 41.712 44.9614 41.4646 44.9614 41.17V34.1832C44.9614 32.7693 43.805 31.6147 42.389 31.6147H35.3916C35.0966 31.6147 34.8488 31.3672 34.8488 31.0727V22.0711Z" fill="white"/>
</svg>
