<svg width="18" height="24" viewBox="0 0 18 24" fill="none" xmlns="http://www.w3.org/2000/svg">
<path fill-rule="evenodd" clip-rule="evenodd" d="M9.36 23.1356L9.3625 23.1344L9.36875 23.13L9.3875 23.1156L9.46125 23.0625C9.52375 23.0163 9.615 22.9487 9.73 22.86C9.96 22.6838 10.2863 22.4244 10.6756 22.0912C11.6978 21.2176 12.6535 20.2691 13.535 19.2537C15.6025 16.8625 17.75 13.4494 17.75 9.5475C17.75 7.21625 16.8288 4.97875 15.1888 3.32875C14.3781 2.51212 13.414 1.86387 12.3519 1.4213C11.2898 0.978729 10.1506 0.750586 9 0.75C7.84941 0.750505 6.71027 0.978549 5.64816 1.42101C4.58604 1.86347 3.62191 2.51161 2.81125 3.32812C1.16964 4.9819 0.248898 7.21792 0.250001 9.54812C0.250001 13.4494 2.3975 16.8625 4.465 19.2537C5.34648 20.2691 6.30224 21.2176 7.32438 22.0912C7.71438 22.4244 8.04 22.6838 8.27 22.86C8.38281 22.9469 8.49678 23.0324 8.61188 23.1162L8.63188 23.13L8.6375 23.1344L8.64 23.1356C8.85563 23.2875 9.14438 23.2875 9.36 23.1356ZM12.125 9.5C12.125 10.3288 11.7958 11.1237 11.2097 11.7097C10.6237 12.2958 9.8288 12.625 9 12.625C8.1712 12.625 7.37634 12.2958 6.79029 11.7097C6.20424 11.1237 5.875 10.3288 5.875 9.5C5.875 8.6712 6.20424 7.87634 6.79029 7.29029C7.37634 6.70424 8.1712 6.375 9 6.375C9.8288 6.375 10.6237 6.70424 11.2097 7.29029C11.7958 7.87634 12.125 8.6712 12.125 9.5Z" fill="#A6C68D"/>
</svg>
