<svg width="22" height="21" viewBox="0 0 22 21" fill="none" xmlns="http://www.w3.org/2000/svg">
<path d="M1.75173 8.32501C4.15154 13.551 8.4157 17.693 13.7092 19.94L14.5592 20.3188C15.5005 20.7379 16.5595 20.8114 17.5497 20.5262C18.5398 20.2411 19.3976 19.6156 19.9717 18.76L21.083 17.105C21.2569 16.8455 21.3273 16.5302 21.2803 16.2213C21.2333 15.9125 21.0724 15.6324 20.8292 15.4363L17.0642 12.3988C16.9331 12.293 16.782 12.2149 16.6199 12.1691C16.4578 12.1232 16.2882 12.1106 16.1211 12.132C15.954 12.1533 15.793 12.2083 15.6477 12.2934C15.5024 12.3786 15.3758 12.4922 15.2755 12.6275L14.1105 14.1988C11.12 12.7218 8.69938 10.3008 7.22298 7.31001L8.79298 6.14501C8.92829 6.04471 9.04193 5.9181 9.12708 5.77279C9.21223 5.62747 9.26714 5.46644 9.28851 5.29938C9.30987 5.13231 9.29725 4.96265 9.25141 4.80058C9.20556 4.63851 9.12744 4.48738 9.02173 4.35626L5.98423 0.59126C5.7881 0.348077 5.50802 0.187152 5.19915 0.140186C4.89028 0.0932196 4.57503 0.163617 4.31548 0.33751L2.64923 1.45501C1.78848 2.03223 1.16059 2.89628 0.877418 3.89322C0.594246 4.89016 0.674179 5.95525 1.10298 6.89876L1.75173 8.32501Z" fill="#A6C68D"/>
</svg>
