<svg width="40" height="40" viewBox="0 0 40 40" fill="none" xmlns="http://www.w3.org/2000/svg">
<rect width="40" height="40" rx="20" fill="#8755A7"/>
<path d="M14.6141 29.1037C14.6141 28.7254 14.6141 28.3471 14.6141 27.9688C14.6167 27.9533 14.6162 27.9374 14.6125 27.9222C14.6088 27.9069 14.602 27.8926 14.5926 27.8801C14.5831 27.8676 14.5713 27.8571 14.5576 27.8494C14.544 27.8417 14.529 27.8369 14.5134 27.8352C13.5788 27.5688 12.7161 27.0943 11.9897 26.4469C11.4604 25.9639 11.0198 25.3914 10.6877 24.7555C10.2197 23.837 9.9083 22.8464 9.7663 21.8248C9.59035 20.5432 9.52925 19.2484 9.58371 17.9559C9.59566 17.3534 9.62637 16.7576 9.69463 16.155C9.80348 15.0099 10.0914 13.8892 10.5478 12.834C11.1114 11.5365 12.1338 10.4944 13.4179 9.90837C14.2927 9.50678 15.2129 9.2136 16.1583 9.03531C17.0855 8.85913 18.0242 8.75099 18.967 8.71176C19.8169 8.68161 20.6677 8.69418 21.5163 8.74942C22.7309 8.80086 23.9345 9.00268 25.0997 9.3503C25.9636 9.60014 26.7855 9.97807 27.5381 10.4716C28.2714 10.9766 28.8645 11.6606 29.2615 12.4591C29.7283 13.3917 30.0456 14.3923 30.2017 15.4241C30.3031 16.0366 30.3698 16.6545 30.4014 17.2746C30.4457 18.0432 30.4406 18.8153 30.4116 19.5805C30.3826 20.3457 30.3177 21.0887 30.2239 21.8385C30.1053 22.9639 29.7605 24.0535 29.2103 25.0414C28.4942 26.2912 27.3471 27.235 25.9853 27.6949C25.0541 28.022 24.0926 28.2548 23.1152 28.3899C22.4002 28.4892 21.6835 28.5611 20.9635 28.5902C20.4123 28.6158 19.8611 28.609 19.31 28.6004C18.9977 28.6004 18.6872 28.5696 18.3766 28.5422C18.3461 28.5365 18.3146 28.5399 18.2861 28.5521C18.2575 28.5643 18.2332 28.5847 18.2162 28.6107C17.5883 29.3674 16.9364 30.1035 16.2795 30.8362C16.1598 30.9698 16.0213 31.0852 15.8683 31.1785C15.7678 31.2446 15.6533 31.2861 15.5339 31.2996C15.4145 31.3132 15.2937 31.2983 15.1811 31.2563C15.0685 31.2144 14.9673 31.1464 14.8857 31.0579C14.8041 30.9695 14.7444 30.863 14.7113 30.7471C14.6463 30.5412 14.6141 30.3263 14.6158 30.1103C14.6141 29.7714 14.6141 29.4376 14.6141 29.1037ZM15.3734 30.54L15.4536 30.4647L16.8784 28.8778C17.4267 28.2672 17.9745 27.656 18.5216 27.0443C18.5485 27.007 18.5848 26.9775 18.6268 26.9589C18.6688 26.9402 18.7149 26.9331 18.7605 26.9382C18.9465 26.957 19.1325 26.9639 19.3202 26.9656C19.9686 26.9656 20.6171 26.9656 21.2655 26.9194C21.8542 26.8731 22.4412 26.8012 23.0247 26.7088C23.6531 26.5991 24.2751 26.4556 24.8881 26.2791C26.2532 25.9111 27.3094 25.1236 27.9732 23.8482C28.3651 23.0641 28.6108 22.2148 28.6984 21.342C28.8021 20.5195 28.8642 19.6921 28.8844 18.8632C28.9146 17.822 28.8438 16.7802 28.6728 15.7527C28.5543 15.0083 28.3409 14.2823 28.038 13.5923C27.6524 12.7364 27.1064 12.0277 26.2651 11.5723C24.9751 10.8739 23.5793 10.5623 22.1408 10.4031C21.733 10.3586 21.3252 10.3346 20.9157 10.3192C20.0771 10.2759 19.2368 10.2804 18.3988 10.3329C17.7961 10.3778 17.1967 10.459 16.6037 10.576C15.7317 10.7355 14.8881 11.0239 14.1005 11.4319C13.6439 11.6634 13.2296 11.9708 12.8753 12.341C12.301 12.9849 11.8798 13.751 11.6433 14.5818C11.3627 15.5494 11.2095 16.5496 11.1877 17.5571C11.1328 18.5645 11.1453 19.5745 11.2252 20.5803C11.2749 21.1788 11.3748 21.7721 11.5239 22.3538C11.7456 23.2603 12.1757 24.1021 12.7797 24.812C13.4319 25.5363 14.2748 26.0609 15.2113 26.3253C15.329 26.3613 15.3819 26.4024 15.3819 26.5359C15.3717 27.0289 15.3819 27.522 15.3819 28.015L15.3734 30.54Z" fill="white"/>
<path d="M13.9155 15.0186C13.9032 14.616 14.1111 14.3237 14.3626 14.0608C14.6943 13.7264 15.0598 13.4311 15.4525 13.1803C15.6315 13.064 15.8444 13.0198 16.0521 13.0556C16.2597 13.0914 16.448 13.2048 16.5825 13.3751C17.0576 13.9008 17.4829 14.474 17.8523 15.0866C18.0352 15.3622 18.1733 15.6678 18.261 15.9911C18.296 16.1172 18.2983 16.2509 18.2676 16.3783C18.2369 16.5057 18.1743 16.6221 18.0863 16.7154C17.8848 16.9235 17.6701 17.117 17.4436 17.2944C17.3294 17.3902 17.2446 17.5191 17.1996 17.6652C17.1545 17.8113 17.1513 17.9681 17.1903 18.1162C17.3302 18.8112 17.6472 19.453 18.1073 19.9729C18.6663 20.6912 19.3867 21.2516 20.2032 21.6034C20.4038 21.712 20.6337 21.7451 20.8546 21.6972C20.9757 21.6624 21.0832 21.5885 21.162 21.4858C21.2843 21.3222 21.417 21.1641 21.5271 20.9894C21.6698 20.7716 21.8877 20.621 22.1344 20.5699C22.381 20.5187 22.6369 20.571 22.8475 20.7155C23.4395 21.0771 23.9985 21.4956 24.5172 21.9656C24.6395 22.0759 24.767 22.1825 24.8893 22.2947C25.0339 22.4108 25.1384 22.5736 25.1867 22.7583C25.2349 22.9429 25.2243 23.1391 25.1565 23.3168C25.0486 23.6155 24.8913 23.8919 24.6919 24.133C24.4441 24.4954 24.1285 24.8007 23.7645 25.0301C23.5904 25.1376 23.3949 25.2008 23.1935 25.2145C22.9921 25.2283 22.7905 25.1922 22.6047 25.1091C21.1916 24.5103 19.8712 23.6931 18.6871 22.6844C17.529 21.6809 16.5168 20.5041 15.683 19.1916C14.9814 18.105 14.4232 16.9232 14.0238 15.6785C13.9812 15.528 13.9462 15.3752 13.919 15.2208C13.9112 15.1537 13.91 15.0859 13.9155 15.0186Z" fill="white"/>
<path d="M20.3447 13.0441C21.4939 13.0674 22.5993 13.5323 23.4681 14.3579C24.3368 15.1835 24.9139 16.3173 25.0985 17.5616C25.1729 18.014 25.2127 18.4725 25.2174 18.9322C25.2174 19.0402 25.1919 19.1184 25.0867 19.1295C24.9814 19.1407 24.9542 19.042 24.9542 18.9433C24.97 18.0135 24.796 17.0916 24.4449 16.2451C24.1492 15.5495 23.7112 14.9381 23.165 14.4585C22.6187 13.9789 21.979 13.644 21.2954 13.4798C20.9341 13.388 20.5645 13.3406 20.1936 13.3383C20.1574 13.339 20.1214 13.3339 20.0866 13.3234C20.057 13.3142 20.0317 13.2928 20.0162 13.2636C20.0007 13.2344 19.9961 13.1998 20.0034 13.167C20.0036 13.1514 20.0067 13.136 20.0123 13.1218C20.018 13.1075 20.0263 13.0946 20.0365 13.0839C20.0468 13.0731 20.0589 13.0647 20.0722 13.0592C20.0854 13.0536 20.0996 13.051 20.1138 13.0515C20.1902 13.0403 20.2683 13.0441 20.3447 13.0441Z" fill="white"/>
<path d="M23.198 17.8714C23.1923 17.4259 23.0754 16.988 22.8566 16.5926C22.6379 16.1973 22.3235 15.8555 21.9386 15.5947C21.4894 15.2987 20.9672 15.1149 20.4212 15.0609C20.3289 15.0496 20.2367 15.0448 20.1427 15.0352C20.0487 15.0256 19.9923 14.9887 20.0009 14.8989C20.0094 14.8092 20.0692 14.7771 20.1717 14.7835C21.6857 14.8701 22.9741 15.6733 23.3706 17.1691C23.4431 17.4576 23.4792 17.753 23.4782 18.0493C23.4782 18.0766 23.4782 18.1038 23.4782 18.1295C23.4782 18.2096 23.4236 18.2625 23.3398 18.2609C23.3213 18.2604 23.303 18.2562 23.2862 18.2488C23.2694 18.2414 23.2544 18.2308 23.2421 18.2178C23.2297 18.2047 23.2204 18.1894 23.2146 18.1729C23.2088 18.1563 23.2066 18.1388 23.2083 18.1215C23.1946 18.0461 23.198 17.9691 23.198 17.8714Z" fill="white"/>
<path d="M21.0228 16.5227C21.8408 16.5755 22.4113 16.9557 22.5679 17.7818C22.5869 17.8876 22.6003 17.9942 22.6083 18.1013C22.6083 18.1876 22.5881 18.2611 22.4888 18.2611C22.3895 18.2611 22.3558 18.1972 22.3524 18.1013C22.3515 17.7847 22.2487 17.4759 22.0579 17.2162C21.8573 16.981 21.5694 16.8277 21.2534 16.788C21.1827 16.7754 21.1113 16.7669 21.0396 16.7624C20.9218 16.7624 20.8561 16.7065 20.8713 16.6202C20.8864 16.5339 20.9571 16.5179 21.0228 16.5227Z" fill="white"/>
</svg>
