<svg width="30" height="30" viewBox="0 0 30 30" fill="none" xmlns="http://www.w3.org/2000/svg">
<rect width="30" height="30" rx="15" fill="#2787F5"/>
<path fill-rule="evenodd" clip-rule="evenodd" d="M23.587 10.6771C23.7121 10.2868 23.587 10 22.9914 10H21.0222C20.5215 10 20.2907 10.2478 20.1655 10.521C20.1655 10.521 19.1641 12.8043 17.7455 14.2875C17.2865 14.7169 17.0779 14.8535 16.8275 14.8535C16.7024 14.8535 16.5212 14.7169 16.5212 14.3266V10.6771C16.5212 10.2087 16.3759 10 15.9586 10H12.8641C12.5512 10 12.363 10.2174 12.363 10.4234C12.363 10.8674 13.0723 10.9698 13.1454 12.2189V14.9316C13.1454 15.5263 13.0306 15.6341 12.7802 15.6341C12.1127 15.6341 10.4888 13.3406 9.5257 10.7162C9.33695 10.2061 9.14764 10 8.64437 10H6.67516C6.11253 10 6 10.2478 6 10.521C6 11.0089 6.6676 13.4289 9.10848 16.6294C10.7357 18.8152 13.0284 20 15.1146 20C16.3663 20 16.5212 19.7368 16.5212 19.2836V17.6316C16.5212 17.1053 16.6398 17.0002 17.0362 17.0002C17.3282 17.0002 17.8289 17.1368 18.9972 18.1907C20.3324 19.4397 20.5525 20 21.3036 20H23.2728C23.8354 20 24.1167 19.7368 23.9544 19.2175C23.7768 18.6999 23.1394 17.949 22.2935 17.0588C21.8345 16.5514 21.1461 16.0049 20.9374 15.7317C20.6453 15.3804 20.7288 15.2243 20.9374 14.912C20.9374 14.912 23.3366 11.7505 23.587 10.6771Z" fill="white"/>
</svg>
