<svg width="30" height="30" viewBox="0 0 30 30" fill="none" xmlns="http://www.w3.org/2000/svg">
<rect width="30" height="30" rx="15" fill="#F7931E"/>
<path d="M14.7391 6.52197C12.2943 6.52197 10.3125 8.50001 10.3125 10.94C10.3125 13.38 12.2943 15.3581 14.7391 15.3581C17.1839 15.3581 19.1657 13.38 19.1657 10.94C19.1657 8.50001 17.1839 6.52197 14.7391 6.52197ZM14.7391 12.7664C13.7285 12.7664 12.9093 11.9486 12.9093 10.94C12.9093 9.93141 13.7285 9.11373 14.7391 9.11373C15.7497 9.11373 16.569 9.93141 16.569 10.94C16.569 11.9486 15.7497 12.7664 14.7391 12.7664Z" fill="white"/>
<path d="M16.4017 18.8736C18.1738 18.5133 19.2358 17.6757 19.292 17.6307C19.8106 17.2156 19.8939 16.4596 19.478 15.942C19.0622 15.4244 18.3047 15.3413 17.786 15.7563C17.7751 15.7651 16.6424 16.6323 14.7788 16.6336C12.9152 16.6323 11.7586 15.7651 11.7476 15.7563C11.229 15.3413 10.4715 15.4244 10.0557 15.942C9.63981 16.4596 9.72311 17.2156 10.2417 17.6307C10.2986 17.6763 11.4044 18.5357 13.2263 18.8875L10.6872 21.5359C10.2258 22.0135 10.2397 22.7739 10.7182 23.2345C10.9517 23.4592 11.2528 23.571 11.5535 23.571C11.8689 23.571 12.1839 23.448 12.4201 23.2035L14.7788 20.6957L17.3759 23.2197C17.8464 23.6886 18.6083 23.6879 19.078 23.2184C19.5477 22.7489 19.5471 21.9883 19.0767 21.5196L16.4017 18.8736Z" fill="white"/>
</svg>
