<svg width="247" height="28" viewBox="0 0 247 28" fill="none" xmlns="http://www.w3.org/2000/svg">
<path fill-rule="evenodd" clip-rule="evenodd" d="M162.375 14.0233C162.375 8.5715 158.76 5.31564 153.338 5.29138C147.847 5.29138 144.303 8.88223 144.303 13.9749C144.303 19.4509 147.917 22.7078 153.338 22.7078C158.832 22.7078 162.375 19.1126 162.375 14.0233ZM159.196 13.9991C159.196 17.5447 156.953 19.9335 153.363 19.9335V19.9302C149.507 19.906 147.483 17.3013 147.483 13.9991C147.483 10.4776 149.702 8.08892 153.316 8.06466C157.172 8.08892 159.196 10.6936 159.196 13.9991Z" fill="#FF0D65"/>
<path fill-rule="evenodd" clip-rule="evenodd" d="M198.928 14.0233C198.928 8.5715 195.313 5.31564 189.892 5.29138C184.399 5.29138 180.857 8.88223 180.855 13.9749C180.855 19.4509 184.47 22.7078 189.892 22.7078C195.385 22.7078 198.928 19.1126 198.928 14.0233ZM195.749 13.9991C195.749 17.5447 193.506 19.9335 189.916 19.9335L189.917 19.9302C186.062 19.906 184.037 17.3013 184.036 13.9991C184.036 10.4776 186.255 8.08892 189.87 8.06466C193.725 8.08892 195.749 10.6936 195.749 13.9991Z" fill="#FF0D65"/>
<path fill-rule="evenodd" clip-rule="evenodd" d="M202.086 22.439V5.5536H209.41C213.17 5.5536 215.097 6.9518 215.097 9.75046C215.097 11.6797 214.326 12.959 212.591 13.6344C214.663 13.9958 215.604 15.3224 215.604 17.5172C215.604 21.0155 213.097 22.439 209 22.439H202.086ZM208.977 12.6934C210.881 12.6934 212.085 11.8494 212.085 10.4016C212.085 9.0508 211.193 8.32688 209.049 8.32688H205.098V12.6934H208.977ZM209.197 19.6646C211.508 19.6646 212.57 18.9165 212.57 17.3001C212.57 15.6838 211.366 15.0568 209.245 15.0568H205.101V19.6646H209.197Z" fill="#FF0D65"/>
<path fill-rule="evenodd" clip-rule="evenodd" d="M224.326 10.8115H222.036V5.5536H219.025V22.439H224.355C229.27 22.439 231.921 20.4601 231.921 16.5288C231.921 12.7177 229.675 10.8115 224.326 10.8115ZM222.036 19.6646V13.5858H224.591C227.531 13.5858 228.808 14.3815 228.808 16.4561C228.808 18.7479 227.363 19.6646 224.542 19.6646H222.036Z" fill="#FF0D65"/>
<path d="M238.085 15.1296H245.844L245.848 12.3552H238.089V8.32688H246.739V5.5536H235.073V22.439H247V19.6646H238.085V15.1296Z" fill="#FF0D65"/>
<path fill-rule="evenodd" clip-rule="evenodd" d="M168.54 17.18V22.439H165.527V5.5536H171.14C176.465 5.5536 178.734 7.45865 178.734 11.2698C178.734 15.2023 176.085 17.18 171.14 17.18H168.54ZM168.54 8.32688V14.4056H171.358C174.154 14.4056 175.598 13.4889 175.598 11.1982C175.598 9.1235 174.347 8.32688 171.407 8.32688H168.54Z" fill="#FF0D65"/>
<path fill-rule="evenodd" clip-rule="evenodd" d="M127.218 19.6646C128.182 17.3728 128.88 14.1886 128.953 9.0508L129.001 5.5536H140.856V19.6646H142.807V25.5748H139.989V22.439H128.205V25.5748H125.387V19.6646H127.218ZM130.158 19.6646H137.844V8.32688H131.749V9.1235C131.652 13.5374 131.118 17.0114 130.158 19.6646Z" fill="#FF0D65"/>
<path d="M116.712 5.31241C114.037 5.31241 112.086 6.10795 111.122 6.80757L111.119 11.0045C112.108 9.5092 114.156 8.03835 116.709 8.08569C118.493 8.13417 119.89 8.76107 119.89 10.329C119.89 11.5839 119.143 12.6208 116.975 12.6208H114.443V15.1054H116.998C119.624 15.1054 120.733 15.8051 120.733 17.3002C120.733 19.0136 119.095 19.8818 117.046 19.906C113.937 19.9303 111.745 18.5795 110.709 16.8661V20.5815C111.605 21.5941 113.937 22.7047 116.998 22.6805C121.528 22.6562 123.865 20.4129 123.865 17.4941C123.865 15.274 122.615 13.9231 120.013 13.5375C121.965 12.8379 123.001 11.5355 123.001 9.55775C123.001 6.59054 120.495 5.33668 116.712 5.31241Z" fill="#FF0D65"/>
<path d="M45.7411 19.4189C46.8363 19.425 47.9153 19.1557 48.8779 18.6359L49.6833 18.2019L52.0344 19.9262C50.4831 21.5795 48.1967 22.4882 45.5775 22.4882C43.0735 22.4882 40.785 21.6036 39.148 20.0104C37.5109 18.4172 36.6089 16.203 36.6089 13.7974C36.6089 11.3918 37.5242 9.21028 39.1579 7.67403C40.7916 6.13774 43.0791 5.29138 45.6005 5.29138C47.9253 5.29138 49.958 5.99449 51.4796 7.32522L51.6521 7.47066L49.046 9.382C48.0831 8.69663 46.9249 8.33608 45.7411 8.35306C42.466 8.35306 40.0885 10.6799 40.0885 13.886C40.0885 17.092 42.466 19.4189 45.7411 19.4189Z" fill="#21A038"/>
<path fill-rule="evenodd" clip-rule="evenodd" d="M63.1685 12.0389H58.7474V8.29711H65.8042L69.6079 5.50772H55.114V22.2649H62.695C66.9501 22.2649 69.3902 20.346 69.3902 17.001C69.3947 13.8016 67.183 12.0389 63.1685 12.0389ZM62.5356 19.4744H58.7474V14.8294H62.5356C64.8429 14.8294 65.9151 15.6069 65.9151 17.152C65.9151 18.7309 64.7736 19.4744 62.5356 19.4744Z" fill="#21A038"/>
<path d="M85.508 5.50772L81.7043 8.29711H76.4109V12.3944H84.1708V15.1849H76.4109V19.4744H85.508V22.2649H72.7775V5.50772H85.508Z" fill="#21A038"/>
<path fill-rule="evenodd" clip-rule="evenodd" d="M88.8909 5.50772H95.8228C100.245 5.50772 102.99 7.80505 102.99 11.5043C102.99 15.2034 100.242 17.5182 95.8201 17.5182H92.5244V22.2649H88.8909V5.50772ZM92.5244 14.7277H95.7443C98.0722 14.7277 99.3531 13.5862 99.3531 11.513C99.3531 9.43983 98.0722 8.29711 95.7443 8.29711H92.5244V14.7277Z" fill="#21A038"/>
<path d="M25.1151 5.4397C25.7768 6.29391 26.3427 7.22729 26.7952 8.22222L14.021 17.6241L8.68359 14.283V10.2638L14.021 13.6047L25.1151 5.4397Z" fill="#21A038"/>
<path d="M3.23897 13.9994C3.23897 13.8191 3.24338 13.64 3.25219 13.4619L0.0176155 13.3003C0.00660607 13.5322 0 13.7653 0 13.9994C0 17.8649 1.56885 21.3653 4.10652 23.8993L6.39979 21.6094C4.44891 19.659 3.23897 16.9678 3.23897 13.9994Z" fill="url(#paint0_linear_1_620)"/>
<path d="M14.0206 3.23326C14.2012 3.23326 14.3806 3.23986 14.559 3.24865L14.7208 0.0175904C14.4885 0.00659665 14.2551 0 14.0206 0C10.1497 0 6.64429 1.56661 4.10661 4.10066L6.39988 6.39066C8.35296 4.44037 11.048 3.23326 14.0206 3.23326Z" fill="url(#paint1_linear_1_620)"/>
<path d="M14.0202 24.7656C13.8397 24.7656 13.6602 24.7612 13.4819 24.7524L13.32 27.9824C13.5523 27.9934 13.7857 28 14.0202 28C17.8911 28 21.3966 26.4333 23.9342 23.8993L21.6409 21.6093C19.6878 23.5574 16.9927 24.7656 14.0202 24.7656Z" fill="url(#paint2_linear_1_620)"/>
<path d="M20.0987 5.11208L22.8257 3.10573C20.419 1.16314 17.3564 0 14.0206 0V3.23326C16.2742 3.23216 18.3669 3.92807 20.0987 5.11208Z" fill="url(#paint3_linear_1_620)"/>
<path d="M28.0402 13.9994C28.0402 13.143 27.9631 12.3053 27.8156 11.4907L24.7979 13.7114C24.8001 13.8071 24.8023 13.9027 24.8023 13.9983C24.8023 17.159 23.4305 20.0064 21.2506 21.9776L23.4272 24.3797C26.26 21.8192 28.0402 18.1166 28.0402 13.9994Z" fill="#21A038"/>
<path d="M14.0202 24.7656C10.855 24.7656 8.00375 23.3958 6.02976 21.219L3.6242 23.3925C6.1894 26.2222 9.8972 28 14.0202 28V24.7656Z" fill="url(#paint4_linear_1_620)"/>
<path d="M6.79062 6.02016L4.61406 3.61803C1.78023 6.17957 0 9.8823 0 13.9994H3.23897C3.24008 10.8377 4.61075 7.99134 6.79062 6.02016Z" fill="url(#paint5_linear_1_620)"/>
<defs>
<linearGradient id="paint0_linear_1_620" x1="183.81" y1="26.9289" x2="183.096" y2="-3.2682" gradientUnits="userSpaceOnUse">
<stop offset="0.1444" stop-color="#F2E913"/>
<stop offset="0.3037" stop-color="#E7E518"/>
<stop offset="0.5823" stop-color="#CADB26"/>
<stop offset="0.891" stop-color="#A3CD39"/>
</linearGradient>
<linearGradient id="paint1_linear_1_620" x1="21.5413" y1="20.4717" x2="69.0916" y2="-75.9076" gradientUnits="userSpaceOnUse">
<stop offset="0.0592" stop-color="#0FA8E0"/>
<stop offset="0.5385" stop-color="#0099F9"/>
<stop offset="0.9234" stop-color="#0291EB"/>
</linearGradient>
<linearGradient id="paint2_linear_1_620" x1="-4.97395" y1="19.4475" x2="98.1304" y2="-104.497" gradientUnits="userSpaceOnUse">
<stop offset="0.1226" stop-color="#A3CD39"/>
<stop offset="0.2846" stop-color="#86C339"/>
<stop offset="0.8693" stop-color="#21A038"/>
</linearGradient>
<linearGradient id="paint3_linear_1_620" x1="-19.0093" y1="5.93353" x2="58.2493" y2="128.192" gradientUnits="userSpaceOnUse">
<stop offset="0.0566" stop-color="#0291EB"/>
<stop offset="0.79" stop-color="#0C8ACB"/>
</linearGradient>
<linearGradient id="paint4_linear_1_620" x1="19.3017" y1="7.34696" x2="65.3922" y2="106.573" gradientUnits="userSpaceOnUse">
<stop offset="0.1324" stop-color="#F2E913"/>
<stop offset="0.2977" stop-color="#EBE716"/>
<stop offset="0.5306" stop-color="#D9E01F"/>
<stop offset="0.8023" stop-color="#BBD62D"/>
<stop offset="0.9829" stop-color="#A3CD39"/>
</linearGradient>
<linearGradient id="paint5_linear_1_620" x1="1.20714" y1="14.3916" x2="5.04791" y2="4.3861" gradientUnits="userSpaceOnUse">
<stop offset="0.0698" stop-color="#A3CD39"/>
<stop offset="0.2599" stop-color="#81C55F"/>
<stop offset="0.9216" stop-color="#0FA8E0"/>
</linearGradient>
</defs>
</svg>
