<svg width="298" height="262" viewBox="0 0 298 262" fill="none" xmlns="http://www.w3.org/2000/svg">
<path d="M83.3346 292.164C91.8285 296.531 101.107 297.837 109.905 296.474C123.147 294.423 135.276 286.332 141.92 273.627C141.94 273.599 141.959 273.57 141.977 273.54C141.993 273.51 142.009 273.481 142.024 273.451L142.047 273.405C142.062 273.373 142.077 273.343 142.092 273.313L165.508 227.742L201.614 264.094C201.65 264.134 201.685 264.163 201.721 264.197C201.737 264.213 201.753 264.228 201.77 264.247C218.748 281.186 246.335 281.225 263.346 264.305C280.379 247.384 280.493 219.749 263.665 202.633L263.627 202.59C263.595 202.553 263.57 202.526 263.534 202.499L227.49 166.114L273.175 142.986C294.635 132.122 303.274 105.776 292.415 84.2849C281.557 62.7945 255.261 54.1314 233.776 64.9771L188.082 88.041L180.211 37.3651C176.502 13.5729 154.158 -2.79983 130.393 0.881024C106.628 4.56187 90.2839 26.9269 93.9513 50.7476L101.751 101.39L51.2199 93.2302C51.2009 93.2331 51.177 93.2325 51.1527 93.2295C51.1211 93.2261 51.0881 93.2187 51.062 93.2104C27.3591 89.4523 5.00261 105.651 1.16878 129.374C-2.66537 153.096 13.4395 175.52 37.0828 179.464C37.1046 179.468 37.1244 179.472 37.1435 179.477L37.2275 179.495L37.2656 179.502L87.7847 187.73L64.4366 233.314C64.4292 233.337 64.4166 233.361 64.4038 233.385C64.3908 233.409 64.3782 233.433 64.3707 233.457C53.487 254.865 61.9808 281.189 83.3346 292.164Z" fill="#34354D"/>
</svg>
