<svg width="90" height="97" viewBox="0 0 90 97" fill="none" xmlns="http://www.w3.org/2000/svg">
<path d="M61.0376 52.3951C60.8973 52.2356 60.4536 51.923 60.3154 51.7527C59.8386 51.4143 59.5974 51.0942 59.1388 50.4917C58.4294 57.3712 55.6809 70.5427 55.6809 70.5427C53.7842 67.3956 52.0911 65.2271 50.6477 63.7247C49.9865 66.0441 49.2772 67.5917 48.5946 68.6146C50.8427 76.6365 51.88 95.0945 51.9829 96.9849C60.953 96.1475 76.9976 94.0566 87.7165 89.2529C87.7165 89.2529 89.9121 88.7227 90 83.5903C90 83.5903 89.2092 73.512 82.4358 63.4272C82.4358 63.4272 80.4973 60.7705 75.9303 59.0029C75.9303 59.0029 73.3307 58.2075 70.1856 56.995C70.581 59.0989 70.6528 61.3126 70.6657 63.2451C73.7443 63.9693 76.0471 66.7468 76.0471 70.0609C76.0471 73.9237 72.9224 77.0665 69.0819 77.0665C65.2414 77.0665 62.1167 73.9237 62.1167 70.0609C62.1167 66.7662 64.3927 64.0027 67.4445 63.2591C67.3995 59.8878 67.1467 57.2763 66.4298 55.4301C64.8546 54.7166 63.3329 53.9384 62.0942 53.1355C61.7138 52.8898 61.358 52.6419 61.0376 52.3951ZM64.1559 77.6011C64.5245 77.6011 64.8256 77.9384 64.8256 78.3555V82.45H68.8987C69.3134 82.45 69.6477 82.7507 69.6477 83.1236V87.1653C69.6477 87.5382 69.3123 87.8389 68.8987 87.8389H64.8256V91.9344C64.8256 92.3515 64.5245 92.6889 64.1559 92.6889H60.1375C59.7668 92.6889 59.4678 92.3515 59.4678 91.9344V87.8389H55.3948C54.9822 87.8389 54.6457 87.5382 54.6457 87.1653V83.1236C54.6457 82.7507 54.9822 82.45 55.3948 82.45H59.4678V78.3555C59.4678 77.9384 59.7668 77.6011 60.1375 77.6011H64.1559Z" fill="white"/>
<path d="M33.4297 46.8564C34.6127 50.2794 37.9378 56.1231 43.7329 58.6494C44.1369 58.8283 44.5612 58.9868 45.0016 59.1269V59.1139C45.4388 58.9706 45.8664 58.8132 46.2703 58.6365C52.0632 56.1102 55.3894 50.2686 56.5735 46.8434C56.5253 46.4414 56.5006 46.0286 56.4963 45.604L56.492 45.1955L56.7471 44.8862C57 44.5812 57.2496 44.2719 57.4875 43.9582L57.6429 43.7577C59.2921 41.558 60.6444 39.0673 61.5402 36.5582L61.6238 36.3265L61.791 36.1562C62.9922 34.9501 63.8355 31.9237 64.0573 30.86L64.1013 30.7188C65.1793 27.6751 64.7271 26.4519 64.4838 26.0671L64.2041 25.6295L64.367 25.1348C64.4838 24.7975 67.092 16.7648 63.5065 10.6775L63.3833 10.3574C63.3351 10.1343 62.031 4.7605 55.5308 2.29131L55.3487 2.19862C52.3622 0.361012 48.0824 -0.0539327 45.0016 0.00534508V0.0204339C41.9209 -0.0409995 37.6389 0.373945 34.6545 2.21156L34.4702 2.30209C27.9744 4.77128 26.6703 10.1451 26.6221 10.3682L26.4967 10.6883C22.9112 16.7756 25.5194 24.8093 25.6362 25.1478L25.7991 25.6425L25.5183 26.08C25.2751 26.4648 24.824 27.6881 25.9009 30.7317L25.9448 30.8751C26.1666 31.9356 27.01 34.962 28.2112 36.1713L28.3784 36.3394L28.4641 36.5711C29.3588 39.0802 30.7069 41.5709 32.356 43.7707L32.5125 43.9711C32.7536 44.2848 33 44.5941 33.2529 44.8991L33.508 45.2084L33.5037 45.6169C33.5037 46.0394 33.4758 46.4543 33.4297 46.8564Z" fill="white"/>
<path d="M2.2878 89.268C13.0056 94.0738 29.0513 96.1604 38.0193 97C38.1221 95.1074 39.1594 76.6494 41.4097 68.6275C40.725 67.609 40.0156 66.057 39.3566 63.7398C37.9078 65.2411 36.219 67.4107 34.3191 70.5556C34.3191 70.5556 31.5727 57.3841 30.8655 50.5036C30.4068 51.1082 30.169 51.4272 29.6889 51.7689C29.5507 51.937 29.107 52.2463 28.9645 52.4091C28.6473 52.6559 28.2916 52.9038 27.9101 53.1517C26.7721 53.8889 25.3951 54.6034 23.9592 55.2673C22.6123 57.5727 21.8289 60.3523 21.7625 63.0317C22.384 63.3938 22.8866 63.9542 23.1963 64.6354C25.4851 65.7218 27.5061 68.0088 29.0535 71.2648C29.3128 71.8134 29.346 72.432 29.1563 72.9968C30.0843 75.3992 30.6147 78.0246 30.6147 80.2298C30.6147 83.3187 30.6147 86.2405 27.2661 86.9907C26.9028 87.2946 26.4495 87.4606 25.9727 87.4606H23.7353C22.6133 87.4606 21.7014 86.5412 21.7014 85.4139C21.7261 84.265 22.639 83.3672 23.7353 83.3672H25.9727C26.2031 83.3672 26.427 83.406 26.6424 83.4825C26.7774 83.4426 26.8203 83.4114 26.8203 83.4114C27.0689 82.9673 27.0689 81.1179 27.0689 80.2309C27.0689 78.4374 26.6231 76.2743 25.842 74.2664C25.4358 74.0347 25.109 73.6844 24.9075 73.2608C23.5499 70.4037 21.7057 68.5585 20.2076 68.5585C18.6742 68.5585 16.7379 70.5535 15.3877 73.5206C15.167 74.0034 14.7802 74.3979 14.3033 74.6329C13.5971 76.5589 13.2092 78.5387 13.2092 80.2298C13.2092 80.9756 13.2092 82.9544 13.4921 83.4189C13.4953 83.4189 13.5596 83.4577 13.7364 83.5019C13.97 83.4114 14.2133 83.3661 14.4662 83.3661H16.7079C17.7816 83.3661 18.6732 84.2122 18.7396 85.2921L18.7557 85.3568L18.7428 85.4139C18.7428 86.5423 17.8298 87.4606 16.709 87.4606H14.4673C14.0226 87.4606 13.5929 87.3119 13.2392 87.0392C11.9587 86.7967 11.0575 86.2276 10.4864 85.304C9.79414 84.1874 9.66662 82.7184 9.66662 80.2298C9.66662 78.0451 10.1681 75.5307 11.079 73.1283C10.945 72.6142 10.99 72.0775 11.2118 71.5935C12.1612 69.507 13.3678 67.72 14.7009 66.4277C15.4338 65.7164 16.2214 65.1463 17.0454 64.7292C17.3541 64.0017 17.892 63.4046 18.5478 63.0274C18.5885 61.0259 18.9539 59.0029 19.6086 57.0877C16.5568 58.2549 14.0729 59.0148 14.0729 59.0148C9.5016 60.7877 7.56635 63.4391 7.56635 63.4391C0.791889 73.526 0 83.6043 0 83.6043C0.0921549 88.7356 2.2878 89.268 2.2878 89.268Z" fill="white"/>
<path d="M69.083 73.2943C70.8584 73.2943 72.2977 71.8466 72.2977 70.0609C72.2977 68.2752 70.8584 66.8276 69.083 66.8276C67.3075 66.8276 65.8683 68.2752 65.8683 70.0609C65.8683 71.8466 67.3075 73.2943 69.083 73.2943Z" fill="white"/>
</svg>
