<svg width="144" height="47" viewBox="0 0 144 47" fill="none" xmlns="http://www.w3.org/2000/svg">
<path d="M17.7349 0H19.0155C23.4611 0.0966443 27.8343 1.88456 30.9752 5.04966C29.8155 6.23356 28.6316 7.36913 27.496 8.55302C25.7322 6.95839 23.6061 5.72617 21.2866 5.29128C17.8557 4.56644 14.1591 5.21879 11.2839 7.17584C8.14299 9.22953 6.01681 12.7087 5.55775 16.4295C5.05037 20.102 6.08929 23.9678 8.48124 26.8188C10.7765 29.5973 14.2799 31.3369 17.9041 31.4577C21.2866 31.651 24.8141 30.6121 27.2786 28.2443C29.2114 26.5772 30.1054 24.0403 30.3953 21.5758C26.3846 21.5758 22.3739 21.6 18.3631 21.5758V16.5987H35.2517C36.1215 21.9383 34.8651 27.9544 30.8061 31.7718C28.1 34.4779 24.3551 36.0725 20.5376 36.3866C16.841 36.749 13.0235 36.0483 9.73762 34.2604C5.79936 32.1584 2.65842 28.6067 1.11211 24.4268C-0.337552 20.5852 -0.361713 16.2362 0.991307 12.3705C2.22352 8.84295 4.59131 5.72618 7.6356 3.55168C10.5591 1.40134 14.1108 0.21745 17.7349 0Z" fill="#3780FF"/>
<path d="M114.621 1.25684H119.791V35.7589C118.076 35.7589 116.336 35.783 114.621 35.7347C114.645 24.2582 114.621 12.7575 114.621 1.25684Z" fill="#38B137"/>
<path d="M46.7524 13.2163C49.9416 12.6123 53.3967 13.2888 56.0302 15.1975C58.4222 16.8888 60.0893 19.5465 60.5967 22.4458C61.249 25.8042 60.4275 29.4767 58.2531 32.1344C55.9094 35.1062 52.0678 36.7008 48.3228 36.4592C44.892 36.2659 41.5578 34.5505 39.5282 31.7478C37.2329 28.6552 36.6772 24.4029 37.9336 20.7787C39.19 16.8888 42.7416 13.917 46.7524 13.2163ZM47.4772 17.8069C46.1725 18.1451 44.9645 18.8941 44.0947 19.9572C41.751 22.7599 41.896 27.3263 44.4812 29.9357C45.9551 31.4337 48.1779 32.1344 50.2316 31.7237C52.1403 31.3854 53.8074 30.1049 54.7255 28.4136C56.3202 25.5384 55.8611 21.576 53.4208 19.329C51.8504 17.8794 49.5551 17.2753 47.4772 17.8069Z" fill="#FA3913"/>
<path d="M72.3631 13.2161C76.0114 12.5154 79.998 13.5302 82.7282 16.0913C87.1739 20.0779 87.6571 27.5436 83.8638 32.1342C81.5685 35.0336 77.8477 36.6282 74.1752 36.4591C70.6718 36.3624 67.2168 34.6228 65.139 31.7476C62.7953 28.5825 62.288 24.2336 63.6168 20.5369C64.9457 16.7678 68.4249 13.8926 72.3631 13.2161ZM73.088 17.8067C71.7833 18.145 70.5752 18.894 69.7054 19.9329C67.3859 22.6872 67.4826 27.1812 69.9712 29.8148C71.445 31.3852 73.7403 32.1584 75.8665 31.7235C77.751 31.3611 79.4423 30.1047 80.3604 28.4134C81.9309 25.5141 81.4718 21.5517 79.0074 19.3047C77.4369 17.855 75.1416 17.2752 73.088 17.8067Z" fill="#FCBD06"/>
<path d="M94.0839 14.6182C96.8625 12.8786 100.559 12.3954 103.555 13.8934C104.497 14.3041 105.271 15.0048 106.02 15.7054C106.044 15.0531 106.02 14.3766 106.044 13.7001C107.662 13.7242 109.281 13.7001 110.924 13.7242V35.0343C110.9 38.2477 110.079 41.6544 107.759 43.9981C105.222 46.5833 101.332 47.3806 97.8289 46.8491C94.0839 46.2934 90.8222 43.5632 89.3725 40.1081C90.8222 39.4075 92.3443 38.8518 93.8423 38.1994C94.688 40.1806 96.4034 41.8719 98.5537 42.2585C100.704 42.645 103.193 42.1135 104.594 40.3256C106.092 38.4893 106.092 35.9766 106.02 33.7296C104.908 34.8169 103.628 35.7833 102.081 36.1457C98.7229 37.088 95.0262 35.9283 92.441 33.6571C89.8316 31.386 88.2853 27.8826 88.4302 24.4034C88.5027 20.4652 90.7255 16.6719 94.0839 14.6182ZM99.0853 17.7108C97.6115 17.9524 96.2343 18.7739 95.292 19.9095C93.0208 22.6155 93.0208 26.9403 95.3161 29.5981C96.6208 31.1685 98.7229 32.0383 100.752 31.8209C102.661 31.6276 104.425 30.4195 105.367 28.7524C106.962 25.9256 106.696 22.084 104.546 19.6195C103.217 18.0974 101.091 17.3484 99.0853 17.7108Z" fill="#3780FF"/>
<path d="M126.001 15.8499C128.9 13.1438 133.37 12.2257 137.091 13.6512C140.618 14.9801 142.865 18.3385 144.001 21.7935C138.758 23.968 133.539 26.1183 128.296 28.2928C129.021 29.67 130.132 30.9264 131.63 31.4338C133.732 32.1828 136.245 31.917 138.009 30.5156C138.709 29.9841 139.265 29.2834 139.797 28.6069C141.126 29.5009 142.454 30.3707 143.783 31.2646C141.899 34.0915 138.734 36.0727 135.327 36.3868C131.558 36.8458 127.547 35.3962 125.107 32.4485C121.096 27.8096 121.483 20.0297 126.001 15.8499ZM128.586 20.3197C127.764 21.5036 127.426 22.9532 127.45 24.3787C130.954 22.9291 134.457 21.4794 137.96 20.0056C137.381 18.6526 135.979 17.8311 134.554 17.6136C132.258 17.2029 129.866 18.4351 128.586 20.3197Z" fill="#FA3913"/>
</svg>
