<svg width="92" height="97" viewBox="0 0 92 97" fill="none" xmlns="http://www.w3.org/2000/svg">
<path d="M42.9113 7.40156C42.9134 9.06164 43.5261 10.6629 44.6325 11.9006C45.7389 13.1382 47.2618 13.9257 48.9113 14.1131V18.0938H50.7863V14.0606C52.3453 13.7938 53.762 12.9901 54.7909 11.7888C55.8198 10.5875 56.3961 9.0641 56.4201 7.48256L56.4806 4.67006C56.486 4.42142 56.3924 4.18083 56.2204 4.00122C56.0484 3.82161 55.812 3.71768 55.5634 3.71231C55.3148 3.70694 55.0742 3.80056 54.8945 3.97258C54.7149 4.1446 54.611 4.38092 54.6056 4.62956L54.5449 7.45219C54.5291 8.74031 54.0046 9.96993 53.0857 10.8728C52.1669 11.7758 50.9283 12.2787 49.6401 12.272C48.3519 12.2652 47.1186 11.7494 46.2092 10.8369C45.2999 9.92444 44.7882 8.68941 44.7859 7.40119V4.59375C44.7859 4.34511 44.6871 4.10665 44.5113 3.93084C44.3355 3.75502 44.097 3.65625 43.8484 3.65625H17.4109C16.6652 3.65709 15.9503 3.95368 15.4231 4.48094C14.8958 5.00821 14.5992 5.72309 14.5984 6.46875V91.4062C14.5984 91.6549 14.6972 91.8933 14.873 92.0692C15.0488 92.245 15.2872 92.3438 15.5359 92.3438C15.7845 92.3438 16.023 92.245 16.1988 92.0692C16.3746 91.8933 16.4734 91.6549 16.4734 91.4062V6.46875C16.4737 6.2202 16.5726 5.98192 16.7483 5.80617C16.9241 5.63042 17.1623 5.53155 17.4109 5.53125H42.9109L42.9113 7.40156Z" fill="white"/>
<path d="M75.8644 60.8203V72.0818C75.8644 72.3304 75.9632 72.5688 76.139 72.7447C76.3148 72.9205 76.5532 73.0193 76.8019 73.0193C77.0505 73.0193 77.289 72.9205 77.4648 72.7447C77.6406 72.5688 77.7394 72.3304 77.7394 72.0818V60.8203C77.7394 58.9369 76.9912 57.1305 75.6594 55.7987C74.3276 54.4669 72.5213 53.7188 70.6378 53.7188C68.7544 53.7188 66.9481 54.4669 65.6163 55.7987C64.2845 57.1305 63.5363 58.9369 63.5363 60.8203V79.9568C63.5363 81.6475 62.8646 83.269 61.6691 84.4646C60.4735 85.6601 58.852 86.3317 57.1613 86.3317C55.4705 86.3317 53.849 85.6601 52.6534 84.4646C51.4579 83.269 50.7863 81.6475 50.7863 79.9568V71.4129C51.6434 71.1987 52.4043 70.7039 52.9479 70.0074C53.4915 69.311 53.7866 68.4527 53.7863 67.5692V64.3046C53.7857 63.7578 53.5682 63.2335 53.1815 62.8469C52.7948 62.4602 52.2706 62.2427 51.7238 62.2421H50.7863V58.9688H48.9113V62.2421H47.9738C47.4269 62.2428 46.9027 62.4603 46.5161 62.8469C46.1294 63.2336 45.9119 63.7578 45.9113 64.3046V67.5696C45.9109 68.4531 46.206 69.3113 46.7496 70.0078C47.2932 70.7043 48.0541 71.199 48.9113 71.4133V79.9571C48.9113 82.1452 49.7805 84.2436 51.3276 85.7908C52.8748 87.3379 54.9732 88.2071 57.1613 88.2071C59.3493 88.2071 61.4477 87.3379 62.9949 85.7908C64.5421 84.2436 65.4113 82.1452 65.4113 79.9571V60.8203C65.4113 59.4341 65.9619 58.1047 66.9421 57.1246C67.9222 56.1444 69.2516 55.5938 70.6378 55.5938C72.024 55.5938 73.3534 56.1444 74.3336 57.1246C75.3137 58.1047 75.8644 59.4341 75.8644 60.8203Z" fill="white"/>
<path d="M80.6526 80.925C80.0151 79.5814 77.5963 76.0106 77.4947 75.8593C77.4088 75.7326 77.2932 75.6289 77.1579 75.5572C77.0227 75.4854 76.8719 75.4479 76.7188 75.4479C76.5658 75.4479 76.4151 75.4854 76.2799 75.557C76.1447 75.6287 76.0291 75.7323 75.9431 75.8589C75.84 76.0106 73.4119 79.5913 72.7834 80.9274C72.4219 81.6962 72.036 82.6103 72.036 83.7426C72.0438 84.9794 72.5406 86.1628 73.418 87.0346C74.2953 87.9064 75.4819 88.3957 76.7187 88.3957C77.9556 88.3957 79.1422 87.9064 80.0195 87.0346C80.8968 86.1628 81.3936 84.9794 81.4014 83.7426C81.4013 82.5992 81.0471 81.7577 80.6526 80.925Z" fill="white"/>
<path d="M62.0363 46.9688V37.6296C60.6401 37.7392 59.7863 38.0908 58.8945 38.46C57.7519 38.9329 56.457 39.4688 54.0983 39.4688C52.4688 39.5038 50.8539 39.1564 49.383 38.4546C48.3574 38.0119 47.3888 37.5938 45.4104 37.5938C43.4321 37.5938 42.4641 38.0119 41.4386 38.4546C40.2535 39.0196 38.9715 39.353 37.6613 39.4371V41.5312H39.1875C39.4361 41.5312 39.6746 41.63 39.8504 41.8058C40.0262 41.9817 40.125 42.2201 40.125 42.4688C40.125 42.7174 40.0262 42.9558 39.8504 43.1317C39.6746 43.3075 39.4361 43.4062 39.1875 43.4062H37.6613V46.9688C37.6616 47.2173 37.7604 47.4556 37.9362 47.6313C38.1119 47.8071 38.3502 47.906 38.5988 47.9062H61.0988C61.3473 47.906 61.5856 47.8071 61.7613 47.6313C61.9371 47.4556 62.036 47.2173 62.0363 46.9688Z" fill="white"/>
<path d="M37.6613 19.8255V22.7813H41.25C41.4986 22.7813 41.7371 22.88 41.9129 23.0558C42.0887 23.2317 42.1875 23.4701 42.1875 23.7188C42.1875 23.9674 42.0887 24.2058 41.9129 24.3817C41.7371 24.5575 41.4986 24.6563 41.25 24.6563H37.6613V28.4062H39.1875C39.4361 28.4063 39.6746 28.505 39.8504 28.6808C40.0262 28.8567 40.125 29.0951 40.125 29.3438C40.125 29.5924 40.0262 29.8308 39.8504 30.0067C39.6746 30.1825 39.4361 30.2812 39.1875 30.2812H37.6613V34.0312H41.25C41.4986 34.0313 41.7371 34.13 41.9129 34.3058C42.0887 34.4817 42.1875 34.7201 42.1875 34.9688C42.1875 35.2174 42.0887 35.4558 41.9129 35.6317C41.7371 35.8075 41.4986 35.9062 41.25 35.9062H37.6613V37.5576C39.0358 37.4479 39.8471 37.0993 40.6956 36.7326C42.1777 36.0638 43.7852 35.718 45.4112 35.718C47.0372 35.718 48.6447 36.0638 50.1268 36.7326C51.1524 37.1751 52.1209 37.5932 54.099 37.5932C56.0848 37.5932 57.1016 37.1724 58.1783 36.7269C59.1594 36.321 60.255 35.8695 62.037 35.7497V19.8255C62.0367 19.577 61.9378 19.3387 61.7621 19.1629C61.5863 18.9872 61.3481 18.8883 61.0995 18.888H38.5995C38.3508 18.8881 38.1123 18.9869 37.9364 19.1627C37.7605 19.3384 37.6616 19.5768 37.6613 19.8255ZM59.6029 33.0546C59.6029 33.3032 59.5041 33.5417 59.3283 33.7175C59.1525 33.8933 58.914 33.9921 58.6654 33.9921C58.4167 33.9921 58.1783 33.8933 58.0025 33.7175C57.8267 33.5417 57.7279 33.3032 57.7279 33.0546V25.2937C57.7279 25.0451 57.8267 24.8067 58.0025 24.6308C58.1783 24.455 58.4167 24.3562 58.6654 24.3562C58.914 24.3562 59.1525 24.455 59.3283 24.6308C59.5041 24.8067 59.6029 25.0451 59.6029 25.2937V33.0546ZM58.587 21.0801C58.7897 21.0786 58.9883 21.1373 59.1576 21.2489C59.3269 21.3604 59.4592 21.5198 59.5378 21.7066C59.6164 21.8935 59.6378 22.0995 59.5991 22.2985C59.5605 22.4975 59.4636 22.6806 59.3207 22.8244C59.1779 22.9683 58.9955 23.0665 58.7968 23.1066C58.5981 23.1467 58.3919 23.1268 58.2045 23.0496C58.0171 22.9723 57.8568 22.8411 57.744 22.6726C57.6313 22.5042 57.5711 22.306 57.5711 22.1033C57.5705 21.833 57.6771 21.5734 57.8675 21.3816C58.058 21.1898 58.3167 21.0814 58.587 21.0801Z" fill="white"/>
<path d="M56.9738 51.6562V49.7812H42.3488V51.6562C42.3493 52.1037 42.5272 52.5326 42.8436 52.8489C43.1599 53.1653 43.5889 53.3433 44.0363 53.3438H55.2863C55.7337 53.3433 56.1626 53.1653 56.4789 52.8489C56.7953 52.5326 56.9733 52.1037 56.9738 51.6562Z" fill="white"/>
<path d="M47.4113 58.0312H51.9113C52.1598 58.031 52.3981 57.9321 52.5738 57.7563C52.7496 57.5806 52.8485 57.3423 52.8488 57.0938V55.2188H46.4738V57.0938C46.4741 57.3423 46.5729 57.5806 46.7487 57.7563C46.9244 57.9321 47.1627 58.031 47.4113 58.0312Z" fill="white"/>
</svg>
