<svg width="90" height="90" viewBox="0 0 90 90" fill="none" xmlns="http://www.w3.org/2000/svg">
<path d="M45 2.6875C22.3567 2.6875 4 21.2681 4 44.1875C4 67.1069 22.3567 85.6875 45 85.6875C67.6433 85.6875 86 67.1069 86 44.1875C86 21.2681 67.6433 2.6875 45 2.6875ZM70.5843 49.7116C70.5843 51.6526 69.0307 53.225 67.1132 53.225C67.1132 53.225 53.9287 53.225 53.9287 53.2238V66.5691C53.9287 68.5101 52.3739 70.0825 50.4576 70.0825H39.5424C37.6248 70.0825 36.0713 68.5088 36.0713 66.5691C36.0713 66.5691 36.0713 53.2238 36.0701 53.2238H22.8868C20.9692 53.2238 19.4157 51.6501 19.4157 49.7104V38.6621C19.4157 36.7212 20.9705 35.1487 22.8868 35.1487H36.0701C36.0713 35.15 36.0713 21.8034 36.0713 21.8034C36.0713 19.8624 37.6261 18.29 39.5424 18.29H50.4576C52.3752 18.29 53.9287 19.8637 53.9287 21.8034V35.1487C53.9287 35.1475 67.1132 35.1475 67.1132 35.1475C69.0307 35.1475 70.5843 36.7212 70.5843 38.6609V49.7116Z" fill="white"/>
</svg>
