<svg width="92" height="88" viewBox="0 0 92 88" fill="none" xmlns="http://www.w3.org/2000/svg">
<path d="M90.744 54.976C90.1656 53.8237 89.3651 52.7963 88.3882 51.9526C87.4114 51.1089 86.2774 50.4655 85.051 50.0591C83.8246 49.6527 82.53 49.4913 81.2411 49.5842C79.9521 49.677 78.6941 50.0223 77.5391 50.6002L41.6155 68.5484C39.6331 69.5393 38.0444 71.1687 37.1069 73.1726C36.1694 75.1765 35.9379 77.4374 36.4501 79.5888C36.9623 81.7403 38.188 83.6562 39.9287 85.0261C41.6694 86.396 43.823 87.1396 46.0405 87.1363C47.5643 87.1371 49.0672 86.782 50.4286 86.0994L86.3485 68.1475C88.6819 66.9811 90.4553 64.9383 91.2789 62.4684C92.1024 59.9985 91.9087 57.3036 90.7403 54.976H90.744ZM49.1933 83.632C48.3608 84.0641 47.4505 84.3267 46.5153 84.4047C45.58 84.4826 44.6386 84.3742 43.7458 84.0859C42.853 83.7975 42.0266 83.335 41.3147 82.7251C40.6029 82.1153 40.0198 81.3703 39.5994 80.5336C39.179 79.6969 38.9297 78.7852 38.866 77.8515C38.8024 76.9178 38.9256 75.9808 39.2285 75.0951C39.5314 74.2093 40.008 73.3925 40.6305 72.6921C41.253 71.9918 42.009 71.4219 42.8545 71.0157L59.581 62.6576L65.9124 75.2738L49.1933 83.632ZM88.6495 61.6022C88.3599 62.482 87.8978 63.2955 87.2901 63.9956C86.6824 64.6957 85.9411 65.2683 85.1095 65.6802L68.383 74.0383L62.0442 61.4221L78.7707 53.0639C79.7526 52.5775 80.8345 52.3257 81.9309 52.3285C82.6931 52.3308 83.4501 52.455 84.1729 52.6962C85.055 52.9883 85.8707 53.451 86.5733 54.0578C87.2758 54.6646 87.8515 55.4037 88.2673 56.2326C88.6831 57.0615 88.9309 57.9641 88.9965 58.8886C89.0621 59.8132 88.9442 60.7416 88.6495 61.6206V61.6022ZM38.0423 55.4283L18.6682 20.3263C17.409 18.0462 15.2931 16.3583 12.7859 15.6338C10.2787 14.9094 7.58566 15.2079 5.29912 16.4635C3.01259 17.7191 1.31991 19.8291 0.593448 22.3292C-0.133015 24.8293 0.166249 27.5148 1.42541 29.795L20.7995 64.897C21.739 66.5955 23.1622 67.9784 24.8894 68.8709C26.6165 69.7634 28.5701 70.1255 30.5035 69.9114C32.4369 69.6974 34.2633 68.9168 35.7521 67.6683C37.2409 66.4198 38.3253 64.7593 38.8683 62.8966C39.2345 61.6594 39.3501 60.3618 39.2083 59.0796C39.0665 57.7974 38.6701 56.5562 38.0423 55.4283ZM6.63216 18.8775C8.27774 17.9774 10.2141 17.7645 12.0168 18.2856C13.8195 18.8067 15.3414 20.0192 16.2492 21.6574L25.2688 38.0023L12.8677 44.805L3.84441 28.4601C2.94406 26.8199 2.73191 24.8908 3.25435 23.0949C3.7768 21.299 4.99131 19.7827 6.63216 18.8775ZM36.2207 62.1244C35.8306 63.4654 35.0505 64.661 33.9791 65.5599C32.9076 66.4588 31.5929 67.0208 30.2013 67.1747C28.8096 67.3286 27.4034 67.0675 26.1605 66.4245C24.9175 65.7815 23.8938 64.7854 23.2185 63.5621L14.1989 47.2209L26.6 40.4145L35.6233 56.7594C36.0731 57.5701 36.3576 58.4615 36.4601 59.3823C36.5626 60.3031 36.4812 61.2351 36.2207 62.1244ZM42.3308 22.5289C44.5122 22.5289 46.6446 21.8839 48.4584 20.6754C50.2722 19.4668 51.6858 17.7491 52.5206 15.7395C53.3554 13.7298 53.5738 11.5184 53.1482 9.38491C52.7227 7.25144 51.6722 5.29173 50.1297 3.75358C48.5873 2.21544 46.622 1.16795 44.4826 0.743577C42.3431 0.319203 40.1255 0.537007 38.1101 1.36945C36.0948 2.20188 34.3722 3.61157 33.1603 5.42023C31.9484 7.2289 31.3015 9.35532 31.3015 11.5306C31.3054 14.4463 32.4687 17.2415 34.5363 19.3033C36.6038 21.365 39.4069 22.525 42.3308 22.5289ZM42.3308 19.7711C40.3815 19.768 38.4961 19.0775 37.0081 17.8218C35.5201 16.5661 34.5254 14.8261 34.1999 12.9095H50.447C50.1227 14.8239 49.1303 16.5624 47.6452 17.8179C46.1601 19.0735 44.2778 19.7652 42.3308 19.7711ZM42.3308 3.2901C44.2772 3.29679 46.1586 3.98895 47.6429 5.24441C49.1273 6.49986 50.1191 8.23788 50.4433 10.1517H34.1999C34.5254 8.23509 35.5201 6.49506 37.0081 5.23936C38.4961 3.98365 40.3815 3.29319 42.3308 3.2901ZM46.5383 50.6738C48.6067 52.7369 51.4123 53.8961 54.3379 53.8965C57.2634 53.8968 60.0693 52.7382 62.1382 50.6756C64.2072 48.613 65.3697 45.8153 65.37 42.8979C65.3704 39.9806 64.2085 37.1826 62.1401 35.1195C60.0717 33.0568 57.2662 31.898 54.341 31.898C51.4158 31.898 48.6104 33.0568 46.542 35.1195C44.4735 37.1821 43.3115 39.9796 43.3115 42.8966C43.3115 45.8136 44.4698 48.6111 46.5383 50.6738ZM60.182 48.7249C58.8001 50.0943 56.9775 50.9331 55.0358 51.0932C53.0942 51.2534 51.1582 50.7245 49.5694 49.6L61.0597 38.1457C62.1875 39.7291 62.7183 41.6588 62.5584 43.5943C62.3985 45.5299 61.5545 47.3469 60.182 48.7249ZM54.3337 34.6598C56.0439 34.6657 57.7101 35.2015 59.1016 36.1932L47.6113 47.6512C46.7329 46.421 46.2112 44.9733 46.1034 43.467C45.9956 41.9606 46.306 40.4537 47.0004 39.1117C47.6949 37.7696 48.7466 36.6442 50.0401 35.8589C51.3337 35.0736 52.8192 34.6587 54.3337 34.6598ZM67.7672 33.2368C70.318 33.2355 72.7894 32.3523 74.7604 30.7377C76.7314 29.1231 78.08 26.877 78.5765 24.382C79.0729 21.8871 78.6865 19.2976 77.4831 17.0549C76.2797 14.8122 74.3337 13.0549 71.9766 12.0826C69.6196 11.1102 66.9974 10.9828 64.5568 11.7222C62.1162 12.4615 60.0081 14.0219 58.5918 16.1374C57.1755 18.2529 56.5386 20.7926 56.7896 23.3239C57.0405 25.8551 58.1639 28.2213 59.9682 30.0193C62.0336 32.0791 64.835 33.2365 67.7562 33.2368H67.7672ZM73.6119 16.4138C74.9862 17.7905 75.8283 19.6072 75.9896 21.5429C76.1508 23.4787 75.6208 25.4091 74.4932 26.993L63.0067 15.5387C64.5919 14.4066 66.5291 13.8731 68.4723 14.0334C70.4155 14.1937 72.2347 15.0374 73.6119 16.4138ZM61.0486 17.4876L72.5499 28.9455C70.9631 30.0741 69.0264 30.6051 67.0841 30.4441C65.1418 30.2831 63.3196 29.4406 61.9414 28.0663C60.5632 26.692 59.7183 24.8749 59.5569 22.938C59.3955 21.0011 59.9279 19.0699 61.0597 17.4876H61.0486Z" fill="white"/>
</svg>
