<svg width="79" height="98" viewBox="0 0 79 98" fill="none" xmlns="http://www.w3.org/2000/svg">
<path d="M79 49.4368V85.6249C79 90.3345 75.1108 94.1933 70.3404 94.1933H63.4127C63.6861 93.221 63.8077 92.2183 63.8077 91.1549V72.9241C63.8077 68.3968 61.3465 64.4772 57.67 62.3806C56.9408 52.9918 49.0711 45.5779 39.5 45.5779C29.9288 45.5779 22.0592 52.9918 21.33 62.3806C17.6534 64.4769 15.1923 68.3968 15.1923 72.9241V91.1549C15.1923 92.2183 15.3138 93.221 15.5873 94.1933H8.65956C3.88948 94.1933 -6.10352e-05 90.3345 -6.10352e-05 85.6249V32.8771C-6.10352e-05 28.1675 3.88917 24.3087 8.65956 24.3087H25.128C28.44 24.3087 31.5088 26.2229 32.9369 29.1702L37.92 39.4402C38.3454 40.3214 39.2265 40.8683 40.2292 40.8683H70.3404C75.1105 40.8683 79 44.7271 79 49.4368Z" fill="white"/>
<path d="M60.7692 0H18.2307C13.2172 0 9.11532 4.10193 9.11532 9.11539V18.2308H25.128C30.7492 18.2308 35.9753 21.4819 38.4061 26.5258L42.4169 34.7904H69.8846V9.11539C69.8846 4.10193 65.7827 0 60.7692 0ZM54.6923 27.3447H42.5384C40.8591 27.3447 39.5 25.984 39.5 24.3062C39.5 22.6284 40.8591 21.2677 42.5384 21.2677H54.6923C56.3716 21.2677 57.7307 22.6284 57.7307 24.3062C57.7307 25.984 56.3716 27.3447 54.6923 27.3447ZM54.6923 15.1908H24.3076C22.6283 15.1908 21.2692 13.8302 21.2692 12.1523C21.2692 10.4745 22.6283 9.11387 24.3076 9.11387H54.6923C56.3716 9.11387 57.7307 10.4745 57.7307 12.1523C57.7307 13.8302 56.3716 15.1908 54.6923 15.1908Z" fill="white"/>
<path d="M51.6538 66.8461V63.8077C51.6538 57.0927 46.2149 51.6538 39.4999 51.6538C32.7849 51.6538 27.3461 57.0927 27.3461 63.8077V66.8461C24.0038 66.8461 21.2691 69.5807 21.2691 72.9231V91.1538C21.2691 94.4961 24.0038 97.2308 27.3461 97.2308H51.6538C54.9961 97.2308 57.7307 94.4961 57.7307 91.1538V72.9231C57.7307 69.5807 54.9961 66.8461 51.6538 66.8461ZM42.1434 84.4084C42.5992 85.5934 41.7788 86.8696 40.5634 86.8696H38.5276C37.3122 86.8696 36.4919 85.5934 36.9476 84.4084L37.4642 83.0411C36.7349 82.4334 36.2488 81.5219 36.2488 80.4888C36.2488 78.6657 37.7072 77.2073 39.4999 77.2073C41.2926 77.2073 42.7511 78.6657 42.7511 80.4888C42.7511 81.4915 42.2953 82.3727 41.5965 82.9804L42.1434 84.4084ZM45.5769 66.8461H33.423V63.8077C33.423 60.4654 36.1576 57.7307 39.4999 57.7307C42.8422 57.7307 45.5769 60.4654 45.5769 63.8077V66.8461Z" fill="white"/>
</svg>
