<svg width="31" height="29" viewBox="0 0 31 29" fill="none" xmlns="http://www.w3.org/2000/svg">
<path d="M30.2141 7.86521C29.3571 0.111949 20.6491 -2.35854 15.4999 2.78738C10.3503 -2.35854 1.64267 0.111949 0.785583 7.86521C-0.0718575 15.6143 15.4879 28.4051 15.4978 28.4176H15.4999C15.5118 28.4051 31.0712 15.6143 30.2141 7.86521ZM23.8491 15.1356C23.8491 16.2958 22.9092 17.24 21.7543 17.24H19.1985V19.7591C19.1985 20.8974 18.2406 21.8239 17.0636 21.8239H13.9358C12.7587 21.8239 11.8005 20.8974 11.8005 19.7591V18.477H13.0558V19.7591C13.0558 20.2155 13.4505 20.5869 13.9358 20.5869H17.0636C17.5488 20.5869 17.9432 20.2159 17.9432 19.7591V16.0027H21.7539C22.217 16.0027 22.5937 15.6136 22.5937 15.1356V12.0524C22.5937 11.5744 22.2174 11.1854 21.7539 11.1854H16.1272V17.24H9.24545C8.09021 17.24 7.15066 16.2958 7.15066 15.1356V12.0524C7.15066 10.8922 8.09021 9.94838 9.24545 9.94838H11.8009V7.42926C11.8009 6.29094 12.7591 5.36451 13.9362 5.36451H17.0639C18.241 5.36451 19.1989 6.29094 19.1989 7.42926V8.71105H17.9436V7.42926C17.9436 6.97282 17.5492 6.60114 17.0639 6.60114H13.9362C13.4509 6.60114 13.0562 6.97248 13.0562 7.42926V11.1854H9.24545C8.78237 11.1854 8.40528 11.5744 8.40528 12.0524V15.1356C8.40528 15.6136 8.78202 16.0027 9.24545 16.0027H14.8722V9.94873H21.7543C22.9092 9.94873 23.8491 10.8925 23.8491 12.0527V15.1356Z" fill="white"/>
</svg>
