<svg width="18" height="18" viewBox="0 0 18 18" fill="none" xmlns="http://www.w3.org/2000/svg">
<path d="M16.5328 7.14062C16.2281 6.82266 15.9133 6.49453 15.7867 6.18906C15.6695 5.90547 15.6633 5.48594 15.6562 5.04219C15.6453 4.30937 15.6328 3.47969 15.0766 2.92344C14.5203 2.36719 13.6875 2.35469 12.9578 2.34375C12.5141 2.33672 12.0984 2.33047 11.8109 2.21328C11.5055 2.08672 11.1773 1.77188 10.8594 1.46719C10.3406 0.970312 9.75313 0.40625 9 0.40625C8.24687 0.40625 7.65937 0.970312 7.14062 1.46719C6.82266 1.77188 6.49453 2.08672 6.18906 2.21328C5.90547 2.33047 5.48594 2.33672 5.04219 2.34375C4.30937 2.35469 3.47969 2.36719 2.92344 2.92344C2.36719 3.47969 2.35469 4.3125 2.34375 5.04219C2.33672 5.48594 2.33047 5.90156 2.21328 6.18906C2.08672 6.49453 1.77188 6.82266 1.46719 7.14062C0.970312 7.65937 0.40625 8.24687 0.40625 9C0.40625 9.75313 0.970312 10.3406 1.46719 10.8594C1.77188 11.1773 2.08672 11.5055 2.21328 11.8109C2.33047 12.0945 2.33672 12.5141 2.34375 12.9578C2.35469 13.6906 2.36719 14.5203 2.92344 15.0766C3.47969 15.6328 4.3125 15.6453 5.04219 15.6562C5.48594 15.6633 5.90156 15.6695 6.18906 15.7867C6.49453 15.9133 6.82266 16.2281 7.14062 16.5328C7.65937 17.0297 8.24687 17.5938 9 17.5938C9.75313 17.5938 10.3406 17.0297 10.8594 16.5328C11.1773 16.2281 11.5055 15.9133 11.8109 15.7867C12.0945 15.6695 12.5141 15.6633 12.9578 15.6562C13.6906 15.6453 14.5203 15.6328 15.0766 15.0766C15.6328 14.5203 15.6453 13.6906 15.6562 12.9578C15.6633 12.5141 15.6695 12.0984 15.7867 11.8109C15.9133 11.5055 16.2281 11.1773 16.5328 10.8594C17.0297 10.3406 17.5938 9.75313 17.5938 9C17.5938 8.24687 17.0297 7.65937 16.5328 7.14062ZM15.8562 10.2109C15.4914 10.5906 15.1141 10.9844 14.9187 11.4531C14.7328 11.9016 14.725 12.4312 14.7172 12.9437C14.7086 13.525 14.6992 14.1266 14.4125 14.4141C14.1258 14.7016 13.5234 14.7102 12.9422 14.7188C12.4297 14.7266 11.9 14.7344 11.4516 14.9203C10.9828 15.1141 10.5922 15.4914 10.2086 15.8578C9.79844 16.2484 9.37422 16.6578 8.99844 16.6578C8.62266 16.6578 8.19844 16.2508 7.7875 15.8578C7.40781 15.493 7.01406 15.1156 6.54531 14.9203C6.09688 14.7344 5.56719 14.7266 5.05469 14.7188C4.47344 14.7102 3.87188 14.7008 3.58437 14.4141C3.29688 14.1273 3.28828 13.525 3.27969 12.9437C3.27187 12.4312 3.26406 11.9016 3.07812 11.4531C2.88438 10.9844 2.50703 10.5938 2.14062 10.2102C1.75078 9.8 1.34375 9.37578 1.34375 9C1.34375 8.62422 1.75078 8.2 2.14375 7.78906C2.50859 7.40938 2.88594 7.01562 3.08125 6.54688C3.26719 6.09844 3.275 5.56875 3.28281 5.05625C3.29141 4.475 3.30078 3.87344 3.5875 3.58594C3.87422 3.29844 4.47656 3.28984 5.05781 3.28125C5.57031 3.27344 6.1 3.26562 6.54844 3.07969C7.01719 2.88594 7.40781 2.50859 7.79141 2.14219C8.2 1.75078 8.62422 1.34375 9 1.34375C9.37578 1.34375 9.8 1.75078 10.2109 2.14375C10.5906 2.50859 10.9844 2.88594 11.4531 3.08125C11.9016 3.26719 12.4312 3.275 12.9437 3.28281C13.525 3.29141 14.1266 3.30078 14.4141 3.5875C14.7016 3.87422 14.7102 4.47656 14.7188 5.05781C14.7266 5.57031 14.7344 6.1 14.9203 6.54844C15.1141 7.01719 15.4914 7.40781 15.8578 7.79141C16.2484 8.20156 16.6578 8.62578 16.6578 9.00156C16.6578 9.37734 16.2492 9.8 15.8562 10.2109ZM12.4563 6.79375C12.544 6.88164 12.5933 7.00078 12.5933 7.125C12.5933 7.24922 12.544 7.36836 12.4563 7.45625L8.08125 11.8313C7.99336 11.919 7.87422 11.9683 7.75 11.9683C7.62578 11.9683 7.50664 11.919 7.41875 11.8313L5.54375 9.95625C5.46095 9.86739 5.41587 9.74986 5.41802 9.62842C5.42016 9.50699 5.46935 9.39112 5.55524 9.30524C5.64112 9.21935 5.75699 9.17016 5.87842 9.16802C5.99986 9.16587 6.11739 9.21095 6.20625 9.29375L7.75 10.8367L11.7937 6.79375C11.8816 6.70597 12.0008 6.65666 12.125 6.65666C12.2492 6.65666 12.3684 6.70597 12.4563 6.79375Z" fill="#F8F8F8"/>
</svg>
