<svg width="84" height="80" viewBox="0 0 84 80" fill="none" xmlns="http://www.w3.org/2000/svg">
<path d="M53.1217 0.000704323C52.4352 -0.0101266 51.7449 0.119844 51.0116 0.277977C49.8381 0.530338 48.5829 0.925723 47.3287 1.33865C46.0742 1.75077 44.8378 2.17437 43.7886 2.49156C42.7393 2.8089 41.8165 2.99736 41.5218 2.9979C41.2267 2.99774 40.3242 2.81757 39.2746 2.50239C38.2247 2.18666 36.9756 1.75954 35.7204 1.34938C34.4653 0.939424 33.1945 0.53088 32.0208 0.280359C30.8469 0.0296225 29.803 -0.157211 28.6849 0.207792C27.5668 0.572254 26.8276 1.35615 26.0263 2.25062C25.225 3.14515 24.4234 4.21216 23.6504 5.28427C22.8773 6.35631 22.1331 7.43243 21.4703 8.3067C20.8075 9.18087 20.1667 9.85927 19.9283 10.0333C19.688 10.2034 18.8515 10.6174 17.8155 10.9765C16.7794 11.3356 15.5233 11.7089 14.2669 12.1155C13.0109 12.5228 11.7587 12.953 10.6624 13.442C9.56581 13.9305 8.61723 14.3968 7.92822 15.3533C7.23767 16.3064 7.08842 17.3704 6.96554 18.5661C6.84267 19.7618 6.82745 21.0804 6.8312 22.4028C6.83491 23.7252 6.85714 25.0386 6.83402 26.1361C6.81095 27.2337 6.69827 28.1694 6.60734 28.4505C6.51628 28.7316 6.06697 29.5291 5.44315 30.4319C4.81927 31.3344 4.02365 32.3966 3.24631 33.4655C2.46892 34.5343 1.70039 35.615 1.09982 36.6558C0.499263 37.6965 -0.000953925 38.6515 1.36602e-06 39.8293C0.000939382 41.0071 0.503158 41.9491 1.10541 42.9888C1.70766 44.0285 2.47281 45.1031 3.25188 46.1707C4.03096 47.2384 4.82336 48.2888 5.44873 49.1903C6.07414 50.092 6.5272 50.902 6.61851 51.1829C6.70966 51.4645 6.83429 52.3943 6.85921 53.4918C6.88417 54.5893 6.86074 55.9053 6.85918 57.2277C6.85763 58.5502 6.86595 59.872 6.99071 61.0673C7.11555 62.2628 7.25863 63.3193 7.95063 64.2717C8.64262 65.224 9.61264 65.6993 10.71 66.1859C11.8074 66.6722 13.0576 67.0933 14.3145 67.4984C15.5713 67.9034 16.8336 68.2902 17.8686 68.6513C18.9038 69.0131 19.7428 69.3987 19.9815 69.5721C20.2204 69.746 20.8565 70.4284 21.5207 71.3016C22.1849 72.1747 22.9427 73.2476 23.7175 74.3184C24.4923 75.3892 25.2825 76.4668 26.0851 77.3604C26.8877 78.2541 27.6306 79.0151 28.7493 79.3781C29.8679 79.741 30.9258 79.5552 32.0991 79.3023C33.2726 79.05 34.5278 78.6574 35.782 78.2445C37.0366 77.8324 38.2729 77.4059 39.3221 77.0888C40.3714 76.7714 41.2942 76.5829 41.5889 76.5819C41.884 76.582 42.7894 76.7649 43.839 77.0801C44.8888 77.3958 46.1351 77.8229 47.3903 78.2331C48.6454 78.6431 49.9079 79.0322 51.0815 79.2825C52.2554 79.5332 53.2994 79.7201 54.4174 79.3551C55.5356 78.9906 56.2834 78.227 57.0844 77.3317C57.8853 76.4363 58.6817 75.3534 59.4547 74.2814C60.2278 73.2093 60.9804 72.1472 61.6432 71.2729C62.306 70.3987 62.9383 69.706 63.1768 69.5323C63.4171 69.3622 64.262 68.965 65.2981 68.6059C66.3342 68.2468 67.5794 67.8577 68.8354 67.4502C70.0914 67.0429 71.3436 66.6126 72.4399 66.1236C73.5365 65.6351 74.4966 65.1836 75.1853 64.2262C75.8759 63.2733 76.0223 62.212 76.1452 61.0164C76.2681 59.8206 76.2777 58.4852 76.2739 57.1628C76.2702 55.8403 76.2479 54.5242 76.2711 53.4267C76.2944 52.3292 76.4124 51.4102 76.5034 51.1291C76.5944 50.848 77.038 50.0333 77.662 49.131C78.2858 48.2285 79.0871 47.1859 79.8644 46.117C80.6418 45.0481 81.4019 43.9477 82.0025 42.907C82.603 41.8663 83.1117 40.9309 83.1107 39.7531C83.1097 38.5752 82.6103 37.6305 82.0081 36.5908C81.4058 35.5511 80.6323 34.4597 79.8532 33.392C79.0741 32.3244 78.2817 31.2767 77.6564 30.3752C77.0309 29.4736 76.5751 28.6608 76.4838 28.3799C76.393 28.0994 76.2792 27.1854 76.2543 26.0878C76.2294 24.9903 76.2499 23.677 76.2515 22.3547C76.253 21.0322 76.239 19.6938 76.1144 18.4983C75.9895 17.3028 75.8465 16.2434 75.1544 15.2911C74.4625 14.3389 73.5009 13.8831 72.4035 13.3966C71.3061 12.9097 70.0474 12.4723 68.7906 12.0672C67.5338 11.6621 66.2799 11.2923 65.2449 10.9311C64.2097 10.5693 63.3624 10.1642 63.1236 9.99075C62.8851 9.818 62.2459 9.13727 61.5816 8.26408C60.9174 7.39083 60.1623 6.31527 59.3876 5.24446C58.6128 4.17366 57.8283 3.11293 57.0256 2.21921C56.2231 1.32555 55.4829 0.564456 54.3642 0.201456C53.9448 0.0655272 53.5335 0.00774445 53.1217 0.000704323ZM41.5498 24.5662C41.7973 24.5664 42.0406 24.6306 42.2559 24.7527C42.4712 24.8748 42.6512 25.0507 42.7783 25.263L50.3092 37.806L62.3148 30.8377C62.5681 30.691 62.8602 30.6254 63.1518 30.6496C63.4435 30.6739 63.7207 30.7869 63.9463 30.9734C64.1718 31.16 64.3348 31.4111 64.4134 31.693C64.492 31.9749 64.4823 32.2741 64.3858 32.5504L56.9417 54.0431C56.8439 54.3244 56.661 54.5683 56.4182 54.7408C56.1755 54.9134 55.885 55.006 55.5872 55.0058H27.5263C27.2285 55.0059 26.938 54.9133 26.6953 54.7408C26.4525 54.5683 26.2696 54.3244 26.1718 54.0431L18.7137 32.5504C18.6166 32.2737 18.6067 31.974 18.6853 31.6915C18.7639 31.4091 18.9273 31.1575 19.1534 30.9708C19.3794 30.7841 19.6573 30.6713 19.9495 30.6475C20.2417 30.6237 20.5342 30.6901 20.7875 30.8377L32.7932 37.8061L40.324 25.263C40.4509 25.0511 40.6305 24.8755 40.8453 24.7534C41.06 24.6313 41.3027 24.5668 41.5498 24.5662Z" fill="white"/>
</svg>
