<svg width="12" height="9" viewBox="0 0 12 9" fill="none" xmlns="http://www.w3.org/2000/svg">
<path d="M7.12649 7.77447C7.05846 7.83926 7.0039 7.9174 6.96606 8.00421C6.92822 8.09103 6.90788 8.18475 6.90624 8.27978C6.90459 8.3748 6.9217 8.4692 6.95652 8.55732C6.99134 8.64545 7.04317 8.7255 7.10891 8.79271C7.17465 8.85991 7.25297 8.91289 7.33917 8.94849C7.42538 8.98409 7.51772 9.00157 7.61068 8.99989C7.70365 8.99821 7.79532 8.97741 7.88025 8.93873C7.96518 8.90005 8.04161 8.84428 8.105 8.77474L11.7975 5.00013C11.9271 4.86743 12 4.68755 12 4.5C12 4.31245 11.9271 4.13257 11.7975 3.99986L8.105 0.225256C8.04161 0.155721 7.96518 0.0999497 7.88025 0.0612677C7.79532 0.0225857 7.70365 0.00178604 7.61068 0.000109481C7.51772 -0.00156708 7.42538 0.0159128 7.33918 0.0515087C7.25297 0.0871046 7.17465 0.140086 7.10891 0.207291C7.04317 0.274497 6.99134 0.354551 6.95652 0.442677C6.9217 0.530803 6.9046 0.625194 6.90624 0.720223C6.90788 0.815251 6.92822 0.908969 6.96606 0.995785C7.0039 1.0826 7.05846 1.16073 7.12649 1.22553L9.63738 3.79226L0.692312 3.79226C0.508692 3.79226 0.332591 3.86683 0.202751 3.99955C0.0729124 4.13228 -3.03127e-05 4.31229 -3.03209e-05 4.5C-3.03291e-05 4.6877 0.0729124 4.86772 0.202751 5.00045C0.332591 5.13317 0.508692 5.20774 0.692312 5.20774L9.63738 5.20774L7.12649 7.77447Z" fill="#A6C68D"/>
</svg>
