<svg width="91" height="92" viewBox="0 0 91 92" fill="none" xmlns="http://www.w3.org/2000/svg">
<circle cx="45.5" cy="46.1875" r="44" stroke="white" stroke-width="3"/>
<line x1="76.0957" y1="17.7131" x2="17.0256" y2="76.7833" stroke="white" stroke-width="3"/>
<circle cx="45.5352" cy="46.5351" r="28.5351" fill="white" stroke="white" stroke-width="2"/>
<path d="M35.6978 50.568V46.86H47.9018C48.0938 46.86 48.3278 46.854 48.6038 46.842C48.8918 46.818 49.2098 46.758 49.5578 46.662C50.5538 46.386 51.2738 45.888 51.7178 45.168C52.1618 44.436 52.3838 43.584 52.3838 42.612C52.3838 42.024 52.2938 41.436 52.1138 40.848C51.9458 40.248 51.6518 39.72 51.2318 39.264C50.8238 38.808 50.2658 38.49 49.5578 38.31C49.2458 38.226 48.9278 38.178 48.6038 38.166C48.2918 38.154 48.0578 38.148 47.9018 38.148H41.1158V34.08H48.0818C48.2138 34.08 48.4718 34.086 48.8558 34.098C49.2518 34.11 49.6898 34.152 50.1698 34.224C51.6578 34.452 52.8878 34.95 53.8598 35.718C54.8438 36.486 55.5698 37.458 56.0378 38.634C56.5178 39.798 56.7578 41.082 56.7578 42.486C56.7578 44.634 56.2118 46.41 55.1198 47.814C54.0278 49.218 52.3778 50.088 50.1698 50.424C49.6898 50.484 49.2518 50.526 48.8558 50.55C48.4718 50.562 48.2138 50.568 48.0818 50.568H35.6978ZM35.6978 56.472V53.07H51.0518V56.472H35.6978ZM38.2718 60V34.08H42.6098V60H38.2718Z" fill="#A6C68D"/>
</svg>
