<svg width="62" height="62" viewBox="0 0 62 62" fill="none" xmlns="http://www.w3.org/2000/svg">
<path d="M30.9989 58.8991C31.0157 58.8991 31.033 58.9003 31.0485 58.9003C42.3177 58.9003 55.7289 56.4823 55.7289 51.4566C55.7289 37.9115 52.0647 39.2916 46.1096 37.8172C46.3458 38.5805 46.4965 39.3741 46.5523 40.1726C48.3478 40.5787 49.6932 42.1839 49.6932 44.1003C49.6932 46.3224 47.8853 48.1303 45.6632 48.1303C43.4411 48.1303 41.6332 46.3224 41.6332 44.1003C41.6332 42.2137 42.9377 40.6302 44.6916 40.1937C44.6036 39.1217 44.3147 38.0628 43.8435 37.1235C42.3338 36.5586 40.7094 35.7229 38.9876 34.3924C38.9442 36.0403 30.9989 42.3315 30.9989 42.3315C30.9989 42.3315 23.0543 36.0403 23.0102 34.3911C21.446 35.6001 19.9617 36.4005 18.5717 36.961C18.0279 37.8743 17.7037 38.9295 17.6671 40.0579C18.0261 40.2662 18.3162 40.5886 18.4942 40.9792C19.8185 41.6042 20.9884 42.9198 21.8843 44.7929C22.0344 45.1084 22.0536 45.4643 21.9438 45.7892C22.4808 47.1712 22.7877 48.6815 22.7877 49.95C22.7877 51.7276 22.7877 53.4084 20.8502 53.8399C20.64 54.0147 20.3777 54.1102 20.1018 54.1102H18.8073C18.1575 54.1102 17.6293 53.5814 17.6293 52.9328L17.6336 52.8498C17.677 52.2415 18.1922 51.7548 18.8079 51.7548H20.1024C20.2345 51.7548 20.3647 51.7772 20.4893 51.8212C20.5674 51.7989 20.5922 51.7809 20.5922 51.7809C20.7367 51.5248 20.7367 50.4609 20.7367 49.95C20.7367 48.9208 20.4788 47.6765 20.0262 46.5189C19.7918 46.3856 19.6027 46.1841 19.4862 45.9405C18.7006 44.2969 17.6336 43.2354 16.7656 43.2354C15.8784 43.2354 14.758 44.383 13.9768 46.0899C13.8491 46.3683 13.6253 46.5952 13.3494 46.7297C12.9414 47.8358 12.717 48.9748 12.717 49.9494C12.717 50.3784 12.717 51.5174 12.8813 51.7846C12.8832 51.7846 12.9197 51.8069 13.022 51.8323C13.156 51.7809 13.2998 51.7542 13.4443 51.7542H14.7413C15.3402 51.7542 15.8406 52.2062 15.9094 52.7952L15.9162 52.8082L15.9187 52.8863C15.9187 53.5814 15.3904 54.1102 14.7419 54.1102H13.4449C13.1876 54.1102 12.939 54.0247 12.7344 53.8678C11.9941 53.7283 11.4714 53.4016 11.1403 52.8702C10.7404 52.2267 10.6673 51.3822 10.6673 49.95C10.6673 48.6933 10.9574 47.2468 11.4844 45.8648C11.4069 45.5691 11.433 45.2603 11.5613 44.982C12.1106 43.7816 12.8088 42.7537 13.58 42.0103C14.0041 41.6017 14.4592 41.2737 14.9366 41.0332C15.1158 40.6134 15.4283 40.2706 15.8089 40.053C15.8288 39.2494 15.9571 38.4726 16.1902 37.741C10.0584 39.3424 6.27148 37.6852 6.27148 51.4566C6.27024 56.4823 19.6827 58.9003 30.9493 58.9003C30.9661 58.9003 30.9834 58.8991 30.9989 58.8991ZM35.3396 50.9178C35.3396 50.7033 35.5342 50.5303 35.7736 50.5303H38.1302V48.1743C38.1302 47.9344 38.3032 47.7403 38.5171 47.7403H40.8427C41.056 47.7403 41.2296 47.9344 41.2296 48.1743V50.5303H43.5862C43.8261 50.5303 44.0196 50.7033 44.0196 50.9178V53.2428C44.0196 53.4574 43.8255 53.6303 43.5862 53.6303H41.2296V55.9863C41.2296 56.2263 41.056 56.4203 40.8427 56.4203H38.5171C38.3032 56.4203 38.1302 56.2263 38.1302 55.9863V53.6303H35.7736C35.5342 53.6303 35.3396 53.4574 35.3396 53.2428V50.9178Z" fill="white"/>
<path d="M42.8372 14.541C42.5359 8.9963 40.8414 6.51754 38.3385 5.41146C36.5659 3.98794 34.1944 3.1001 31.0485 3.1001C27.9107 3.1001 25.5485 3.96562 23.7827 5.35752C21.0268 6.51506 19.2226 9.2722 19.1197 15.8138C19.103 16.0221 19.0893 16.228 19.0775 16.4351C18.2604 16.595 17.8884 18.3701 18.2492 20.4167C18.5822 22.3071 19.4241 23.7635 20.1991 23.8738C21.3715 27.0668 23.3562 30.1451 25.8058 32.0764C27.3911 33.3263 29.1674 34.1013 31.0491 34.1013C32.919 34.1013 34.6854 33.3375 36.2621 32.1006C38.7297 30.1668 40.7304 27.0668 41.9072 23.854C42.6518 23.6326 43.433 22.2203 43.7517 20.4161C44.097 18.4556 43.7697 16.7444 43.0201 16.4648C42.9847 15.8281 42.9252 15.1839 42.8372 14.541Z" fill="white"/>
<path d="M45.6627 45.9597C46.69 45.9597 47.5227 45.127 47.5227 44.0997C47.5227 43.0725 46.69 42.2397 45.6627 42.2397C44.6355 42.2397 43.8027 43.0725 43.8027 44.0997C43.8027 45.127 44.6355 45.9597 45.6627 45.9597Z" fill="white"/>
</svg>
