<svg width="20" height="27" viewBox="0 0 20 27" fill="none" xmlns="http://www.w3.org/2000/svg">
<path d="M3.06031 15.9403C2.92298 15.793 2.75738 15.6748 2.57338 15.5928C2.38938 15.5108 2.19076 15.4667 1.98935 15.4632C1.78795 15.4596 1.58789 15.4967 1.40111 15.5721C1.21434 15.6475 1.04467 15.7598 0.90223 15.9023C0.759793 16.0447 0.647503 16.2144 0.572061 16.4011C0.496619 16.5879 0.459571 16.788 0.463124 16.9894C0.466678 17.1908 0.510761 17.3894 0.592745 17.5734C0.674729 17.7574 0.792933 17.923 0.940306 18.0603L8.94031 26.0603C9.22156 26.3412 9.60281 26.499 10.0003 26.499C10.3978 26.499 10.7791 26.3412 11.0603 26.0603L19.0603 18.0603C19.2077 17.923 19.3259 17.7574 19.4079 17.5734C19.4899 17.3894 19.5339 17.1908 19.5375 16.9894C19.541 16.788 19.504 16.5879 19.4286 16.4011C19.3531 16.2144 19.2408 16.0447 19.0984 15.9023C18.9559 15.7598 18.7863 15.6475 18.5995 15.5721C18.4127 15.4967 18.2127 15.4596 18.0113 15.4632C17.8099 15.4667 17.6112 15.5108 17.4272 15.5928C17.2432 15.6748 17.0776 15.793 16.9403 15.9403L11.5003 21.3803L11.5003 2.00034C11.5003 1.60252 11.3423 1.22098 11.061 0.939678C10.7797 0.658375 10.3981 0.50034 10.0003 0.50034C9.60248 0.50034 9.22095 0.658375 8.93965 0.939678C8.65834 1.22098 8.50031 1.60252 8.50031 2.00034L8.50031 21.3803L3.06031 15.9403Z" fill="#191A2A"/>
</svg>
