<svg width="200" height="23" viewBox="0 0 200 23" fill="none" xmlns="http://www.w3.org/2000/svg">
<path d="M11.2002 3.7077H3.56655V16.7158H0V0.377046H14.7668V16.7158H11.2002V3.7077Z" fill="#F52A14"/>
<path d="M18.2374 0.377046H21.804V2.16803C22.534 1.47677 23.3161 0.942626 24.1504 0.56557C24.9847 0.188523 25.9232 0 26.9661 0C28.1341 0 29.2083 0.219947 30.1886 0.659832C31.1897 1.07878 32.0448 1.67577 32.7539 2.45082C33.463 3.20492 34.0158 4.10569 34.4121 5.15296C34.8084 6.17943 35.0065 7.3001 35.0065 8.51498C35.0065 9.77184 34.7875 10.9239 34.3495 11.9713C33.9324 12.9977 33.3588 13.888 32.6288 14.6421C31.8989 15.3752 31.0229 15.9513 30.0009 16.3703C28.9997 16.7891 27.9255 16.9986 26.7784 16.9986C25.7564 16.9986 24.8387 16.8416 24.0252 16.5273C23.2118 16.2131 22.4714 15.7732 21.804 15.2077V23H18.2374V0.377046ZM26.2466 13.668C26.9557 13.668 27.6127 13.5528 28.2175 13.3224C28.8432 13.092 29.3855 12.7569 29.8444 12.317C30.3032 11.8561 30.6578 11.3115 30.9081 10.683C31.1792 10.0337 31.3149 9.30053 31.3149 8.48365C31.3149 7.72953 31.2001 7.03829 30.9707 6.40981C30.7412 5.76045 30.4075 5.21582 29.9695 4.77595C29.5524 4.31509 29.0518 3.95897 28.4678 3.7077C27.8838 3.45633 27.2372 3.3306 26.5281 3.3306C25.4435 3.3306 24.4841 3.59241 23.6498 4.11614C22.8364 4.63977 22.2211 5.26825 21.804 6.00137V10.9658C22.2211 11.8457 22.8155 12.5159 23.5872 12.9768C24.359 13.4377 25.2454 13.668 26.2466 13.668Z" fill="#F52A14"/>
<path d="M36.8596 8.51498C36.8596 7.27912 37.0682 6.148 37.4853 5.12162C37.9025 4.07426 38.497 3.17349 39.2687 2.4194C40.0404 1.6653 40.9581 1.07878 42.0218 0.659832C43.0855 0.219947 44.2639 0 45.557 0C46.8293 0 47.9973 0.219947 49.061 0.659832C50.1456 1.07878 51.0737 1.6653 51.8454 2.4194C52.6171 3.17349 53.2116 4.07426 53.6288 5.12162C54.0668 6.148 54.2857 7.27912 54.2857 8.51498C54.2857 9.75095 54.0668 10.8925 53.6288 11.9399C53.2116 12.9663 52.6171 13.8565 51.8454 14.6107C51.0737 15.3648 50.1456 15.9513 49.061 16.3703C47.9973 16.7891 46.8293 16.9986 45.557 16.9986C44.2848 16.9986 43.1168 16.7891 42.053 16.3703C40.9893 15.9513 40.0716 15.3648 39.2999 14.6107C38.5282 13.8565 37.9233 12.9663 37.4853 11.9399C37.0682 10.8925 36.8596 9.75095 36.8596 8.51498ZM40.5513 8.51498C40.5513 9.2482 40.6661 9.929 40.8955 10.5574C41.1458 11.1858 41.4899 11.7304 41.9279 12.1912C42.3659 12.6521 42.8873 13.0187 43.4922 13.291C44.1179 13.5423 44.8062 13.668 45.557 13.668C46.3079 13.668 46.9857 13.5528 47.5906 13.3224C48.2163 13.071 48.7482 12.7254 49.1862 12.2855C49.6242 11.8247 49.9683 11.2801 50.2186 10.6517C50.4689 10.0232 50.594 9.31098 50.594 8.51498C50.594 7.71899 50.4585 7.00685 50.1873 6.37838C49.937 5.72901 49.5825 5.18439 49.1236 4.74452C48.6648 4.28365 48.1329 3.93808 47.528 3.7077C46.9231 3.45633 46.2662 3.3306 45.557 3.3306C44.8479 3.3306 44.1805 3.45633 43.5548 3.7077C42.9499 3.93808 42.4181 4.28365 41.9592 4.74452C41.5212 5.18439 41.177 5.72901 40.9268 6.37838C40.6765 7.00685 40.5513 7.71899 40.5513 8.51498Z" fill="#F52A14"/>
<path d="M55.2381 13.3852H57.1215C57.854 12.4426 58.3458 11.3638 58.5969 10.1489C58.8481 8.93397 58.9736 7.56192 58.9736 6.0328V0.377046H72.095V13.3852H74.3866V20.455H71.0591V16.7158H58.5655V20.455H55.2381V13.3852ZM68.5165 13.3852V3.7077H62.3638V7.8866C62.3638 8.89209 62.2278 9.89757 61.9557 10.903C61.6837 11.8876 61.307 12.715 60.8257 13.3852H68.5165Z" fill="#3981F1"/>
<path d="M75.1128 8.51498C75.1128 7.27912 75.322 6.148 75.7406 5.12162C76.159 4.07426 76.7555 3.17349 77.5298 2.4194C78.3041 1.6653 79.2249 1.07878 80.2922 0.659832C81.3595 0.219947 82.5419 0 83.8394 0C85.1159 0 86.2879 0.219947 87.3551 0.659832C88.4434 1.07878 89.3747 1.6653 90.149 2.4194C90.9232 3.17349 91.5197 4.07426 91.9382 5.12162C92.3777 6.148 92.5974 7.27912 92.5974 8.51498C92.5974 9.75095 92.3777 10.8925 91.9382 11.9399C91.5197 12.9663 90.9232 13.8565 90.149 14.6107C89.3747 15.3648 88.4434 15.9513 87.3551 16.3703C86.2879 16.7891 85.1159 16.9986 83.8394 16.9986C82.5629 16.9986 81.3909 16.7891 80.3236 16.3703C79.2563 15.9513 78.3355 15.3648 77.5612 14.6107C76.7868 13.8565 76.18 12.9663 75.7406 11.9399C75.322 10.8925 75.1128 9.75095 75.1128 8.51498ZM78.8168 8.51498C78.8168 9.2482 78.9319 9.929 79.1621 10.5574C79.4132 11.1858 79.7586 11.7304 80.198 12.1912C80.6375 12.6521 81.1607 13.0187 81.7676 13.291C82.3954 13.5423 83.086 13.668 83.8394 13.668C84.5928 13.668 85.2729 13.5528 85.8798 13.3224C86.5076 13.071 87.0412 12.7254 87.4808 12.2855C87.9202 11.8247 88.2655 11.2801 88.5167 10.6517C88.7677 10.0232 88.8933 9.31098 88.8933 8.51498C88.8933 7.71899 88.7573 7.00685 88.4852 6.37838C88.2341 5.72901 87.8784 5.18439 87.4179 4.74452C86.9575 4.28365 86.4239 3.93808 85.817 3.7077C85.2101 3.45633 84.551 3.3306 83.8394 3.3306C83.1279 3.3306 82.4582 3.45633 81.8304 3.7077C81.2235 3.93808 80.6898 4.28365 80.2294 4.74452C79.79 5.18439 79.4447 5.72901 79.1935 6.37838C78.9424 7.00685 78.8168 7.71899 78.8168 8.51498Z" fill="#3981F1"/>
<path d="M94.812 0.377046H98.3905V7.00685L105.453 0.377046H110.13L102.189 7.76097L110.413 16.7158H105.83L99.5838 9.99178L98.3905 11.1543V16.7158H94.812V0.377046Z" fill="#3981F1"/>
<path d="M111.543 0.377046H126.925V3.7077H121.023V16.7158H117.445V3.7077H111.543V0.377046Z" fill="#3981F1"/>
<path d="M127.707 8.51498C127.707 7.27912 127.916 6.148 128.335 5.12162C128.753 4.07426 129.35 3.17349 130.124 2.4194C130.898 1.6653 131.819 1.07878 132.887 0.659832C133.953 0.219947 135.136 0 136.433 0C137.71 0 138.882 0.219947 139.95 0.659832C141.038 1.07878 141.969 1.6653 142.743 2.4194C143.517 3.17349 144.114 4.07426 144.532 5.12162C144.972 6.148 145.191 7.27912 145.191 8.51498C145.191 9.75095 144.972 10.8925 144.532 11.9399C144.114 12.9663 143.517 13.8565 142.743 14.6107C141.969 15.3648 141.038 15.9513 139.95 16.3703C138.882 16.7891 137.71 16.9986 136.433 16.9986C135.157 16.9986 133.985 16.7891 132.918 16.3703C131.85 15.9513 130.93 15.3648 130.155 14.6107C129.381 13.8565 128.774 12.9663 128.335 11.9399C127.916 10.8925 127.707 9.75095 127.707 8.51498ZM131.411 8.51498C131.411 9.2482 131.527 9.929 131.756 10.5574C132.008 11.1858 132.352 11.7304 132.792 12.1912C133.231 12.6521 133.755 13.0187 134.362 13.291C134.99 13.5423 135.68 13.668 136.433 13.668C137.187 13.668 137.868 13.5528 138.474 13.3224C139.102 13.071 139.635 12.7254 140.075 12.2855C140.514 11.8247 140.86 11.2801 141.11 10.6517C141.362 10.0232 141.488 9.31098 141.488 8.51498C141.488 7.71899 141.351 7.00685 141.079 6.37838C140.829 5.72901 140.472 5.18439 140.012 4.74452C139.551 4.28365 139.018 3.93808 138.411 3.7077C137.805 3.45633 137.145 3.3306 136.433 3.3306C135.722 3.3306 135.052 3.45633 134.425 3.7077C133.818 3.93808 133.284 4.28365 132.824 4.74452C132.384 5.18439 132.039 5.72901 131.788 6.37838C131.537 7.00685 131.411 7.71899 131.411 8.51498Z" fill="#3981F1"/>
<path d="M147.378 0.377046H150.956V2.16803C151.689 1.47677 152.473 0.942626 153.31 0.56557C154.148 0.188523 155.09 0 156.136 0C157.308 0 158.386 0.219947 159.37 0.659832C160.373 1.07878 161.231 1.67577 161.943 2.45082C162.654 3.20492 163.21 4.10569 163.607 5.15296C164.005 6.17943 164.203 7.3001 164.203 8.51498C164.203 9.77184 163.984 10.9239 163.544 11.9713C163.126 12.9977 162.55 13.888 161.817 14.6421C161.085 15.3752 160.206 15.9513 159.181 16.3703C158.176 16.7891 157.098 16.9986 155.948 16.9986C154.922 16.9986 154.001 16.8416 153.185 16.5273C152.369 16.2131 151.626 15.7732 150.956 15.2077V23H147.378V0.377046ZM155.414 13.668C156.126 13.668 156.785 13.5528 157.391 13.3224C158.019 13.092 158.564 12.7569 159.024 12.317C159.484 11.8561 159.84 11.3115 160.091 10.683C160.363 10.0337 160.499 9.30053 160.499 8.48365C160.499 7.72953 160.384 7.03829 160.154 6.40981C159.924 5.76045 159.589 5.21582 159.15 4.77595C158.73 4.31509 158.229 3.95897 157.643 3.7077C157.056 3.45633 156.408 3.3306 155.696 3.3306C154.609 3.3306 153.646 3.59241 152.809 4.11614C151.992 4.63977 151.375 5.26825 150.956 6.00137V10.9658C151.375 11.8457 151.971 12.5159 152.746 12.9768C153.52 13.4377 154.41 13.668 155.414 13.668Z" fill="#3981F1"/>
<path d="M165.978 8.51498C165.978 7.27912 166.188 6.148 166.606 5.12162C167.025 4.07426 167.621 3.17349 168.395 2.4194C169.17 1.6653 170.09 1.07878 171.157 0.659832C172.225 0.219947 173.408 0 174.705 0C175.981 0 177.153 0.219947 178.221 0.659832C179.309 1.07878 180.24 1.6653 181.014 2.4194C181.789 3.17349 182.385 4.07426 182.804 5.12162C183.243 6.148 183.463 7.27912 183.463 8.51498C183.463 9.75095 183.243 10.8925 182.804 11.9399C182.385 12.9663 181.789 13.8565 181.014 14.6107C180.24 15.3648 179.309 15.9513 178.221 16.3703C177.153 16.7891 175.981 16.9986 174.705 16.9986C173.429 16.9986 172.256 16.7891 171.189 16.3703C170.122 15.9513 169.201 15.3648 168.427 14.6107C167.652 13.8565 167.046 12.9663 166.606 11.9399C166.188 10.8925 165.978 9.75095 165.978 8.51498ZM169.682 8.51498C169.682 9.2482 169.797 9.929 170.028 10.5574C170.279 11.1858 170.624 11.7304 171.064 12.1912C171.503 12.6521 172.026 13.0187 172.633 13.291C173.261 13.5423 173.951 13.668 174.705 13.668C175.458 13.668 176.138 13.5528 176.745 13.3224C177.373 13.071 177.907 12.7254 178.346 12.2855C178.786 11.8247 179.13 11.2801 179.382 10.6517C179.633 10.0232 179.759 9.31098 179.759 8.51498C179.759 7.71899 179.623 7.00685 179.35 6.37838C179.099 5.72901 178.744 5.18439 178.283 4.74452C177.823 4.28365 177.29 3.93808 176.682 3.7077C176.075 3.45633 175.416 3.3306 174.705 3.3306C173.993 3.3306 173.324 3.45633 172.696 3.7077C172.089 3.93808 171.555 4.28365 171.095 4.74452C170.655 5.18439 170.31 5.72901 170.059 6.37838C169.808 7.00685 169.682 7.71899 169.682 8.51498Z" fill="#3981F1"/>
<path d="M185.686 0.377046H192.654C194.935 0.377046 196.651 0.70173 197.803 1.3511C198.953 2.00045 199.53 3.12113 199.53 4.71308C199.53 5.4672 199.362 6.10612 199.027 6.62975C198.692 7.15348 198.252 7.62479 197.709 8.04367C198.483 8.33702 199.058 8.82922 199.435 9.52047C199.811 10.1908 200 10.9658 200 11.8457C200 13.4795 199.425 14.705 198.273 15.5218C197.123 16.3178 195.501 16.7158 193.408 16.7158H185.686V0.377046ZM189.265 9.96034V13.4795H193.063C194.13 13.4795 194.935 13.3434 195.48 13.071C196.024 12.7987 196.296 12.3589 196.296 11.7514C196.296 11.102 196.034 10.6411 195.511 10.3689C195.009 10.0965 194.224 9.96034 193.157 9.96034H189.265ZM189.265 3.6134V6.84969H193.47C194.203 6.84969 194.779 6.7136 195.197 6.44125C195.616 6.16898 195.825 5.75 195.825 5.18439C195.825 4.51413 195.543 4.0847 194.977 3.8962C194.433 3.7077 193.628 3.6134 192.56 3.6134H189.265Z" fill="#3981F1"/>
</svg>
