<svg width="83" height="84" viewBox="0 0 83 84" fill="none" xmlns="http://www.w3.org/2000/svg">
<path d="M76.1908 67.2228C74.2019 68.3699 71.7934 68.5585 69.6646 67.6942C69.1208 69.0142 68.204 70.1299 67.0542 70.9471L74.2174 83.5657L76.1131 78.9142C76.3773 78.2542 77.061 77.8614 77.7447 77.9557L82.6548 78.6156L76.1908 67.2228Z" fill="white"/>
<path d="M48.004 13.2915H56.6279L46.4657 2.95152V11.7201C46.4657 12.5687 47.1494 13.2915 48.004 13.2915Z" fill="white"/>
<path d="M62.7344 44.7041C59.5024 44.7041 56.8764 47.3912 56.8764 50.6755C56.8764 53.9598 59.5024 56.647 62.7344 56.647C65.9664 56.647 68.5924 53.9598 68.5924 50.6755C68.5924 47.3912 65.9664 44.7041 62.7344 44.7041Z" fill="white"/>
<path d="M46.9007 65.0855C45.3624 62.9327 45.0361 60.1355 45.9839 57.7155C44.0882 56.8827 42.6431 55.2955 41.9128 53.347H10.9136C10.059 53.347 9.35976 52.6398 9.35976 51.7755C9.35976 50.9112 10.059 50.2041 10.9136 50.2041H41.4622C41.6331 47.2498 43.4201 44.7355 45.9839 43.6041C45.8285 43.1955 45.7198 42.7712 45.6265 42.347H10.9136C10.059 42.347 9.35976 41.6398 9.35976 40.7755C9.35976 39.9112 10.059 39.2041 10.9136 39.2041H45.611C45.9062 37.7898 46.5899 36.4384 47.6621 35.3384C49.853 33.1227 53.0539 32.5098 55.7887 33.6255C56.4102 32.1484 57.4824 30.9384 58.8031 30.1212V16.4184H48.0039C45.4401 16.4184 43.3579 14.297 43.3579 11.7041V0.704102H4.77591C2.21206 0.704102 0.114372 2.82553 0.114372 5.41839V65.1327C0.114372 67.7255 2.21206 69.847 4.77591 69.847H44.197L46.9007 65.0855ZM17.0979 17.2198H41.8196C42.6742 17.2198 43.3734 17.927 43.3734 18.7912C43.3734 19.6555 42.6742 20.3627 41.8196 20.3627H17.0979C16.2433 20.3627 15.5441 19.6555 15.5441 18.7912C15.5441 17.927 16.2433 17.2198 17.0979 17.2198ZM10.9136 28.2198H48.0039C48.8585 28.2198 49.5578 28.927 49.5578 29.7912C49.5578 30.6555 48.8585 31.3627 48.0039 31.3627H10.9136C10.059 31.3627 9.35976 30.6555 9.35976 29.7912C9.35976 28.927 10.059 28.2198 10.9136 28.2198Z" fill="white"/>
<path d="M68.0953 63.8755C68.6236 63.6555 69.2296 63.7341 69.6802 64.1113C71.4361 65.557 73.9844 65.4155 75.6004 63.7813C77.2164 62.1313 77.3562 59.5384 75.9111 57.7313C75.5537 57.2755 75.4761 56.6784 75.6936 56.1441C75.9111 55.6098 76.3928 55.2484 76.9677 55.1855C79.2208 54.9341 80.9301 53.0013 80.9301 50.6755C80.9301 48.3498 79.2208 46.417 76.9677 46.1656C76.3928 46.1184 75.9111 45.7413 75.6936 45.207C75.4761 44.6884 75.5537 44.0755 75.9111 43.6198C77.3562 41.8127 77.2164 39.2198 75.6004 37.5698C73.9844 35.9355 71.4361 35.7941 69.6802 37.2555C69.2296 37.617 68.6236 37.7113 68.0953 37.4913C67.567 37.2556 67.2096 36.7684 67.1474 36.2027C66.9144 33.8927 65.0187 32.1484 62.7345 32.1484C60.4504 32.1484 58.5547 33.8927 58.3216 36.2027C58.2594 36.7684 57.8865 37.2556 57.3582 37.4913C56.8454 37.7113 56.2394 37.617 55.7888 37.2555C54.0174 35.7941 51.4691 35.9355 49.8687 37.5698C48.2527 39.2198 48.1128 41.8127 49.5579 43.6198C49.8997 44.0755 49.993 44.6884 49.7754 45.207C49.5579 45.7413 49.0762 46.1184 48.5013 46.1656C46.2482 46.417 44.539 48.3498 44.539 50.6755C44.539 53.0013 46.2482 54.9341 48.5013 55.1855C49.0762 55.2484 49.5579 55.6098 49.7754 56.1441C49.993 56.6784 49.8997 57.2755 49.5579 57.7313C48.1128 59.5384 48.2527 62.1313 49.8687 63.7813C51.4691 65.4155 54.0174 65.557 55.7888 64.1113C56.0685 63.8755 56.4259 63.7498 56.7677 63.7498C56.9697 63.7498 57.1717 63.797 57.3582 63.8755C57.8865 64.0956 58.2594 64.5827 58.3216 65.1641C58.5547 67.4741 60.4504 69.2027 62.7345 69.2027C65.0187 69.2027 66.9144 67.4741 67.1474 65.1641C67.2096 64.5827 67.567 64.0798 68.0953 63.8755ZM62.7345 59.7741C57.7933 59.7741 53.7688 55.6884 53.7688 50.6598C53.7688 45.6313 57.7933 41.5455 62.7345 41.5455C67.6757 41.5455 71.7002 45.6313 71.7002 50.6598C71.7002 55.6884 67.6757 59.7741 62.7345 59.7741Z" fill="white"/>
<path d="M55.7886 67.71C53.6754 68.5742 51.2669 68.3857 49.278 67.2385L42.7985 78.6314L47.7086 77.9714C48.4079 77.8771 49.0916 78.27 49.3557 78.93L51.2359 83.5814L58.3991 70.9628C57.2648 70.1457 56.348 69.0142 55.7886 67.71Z" fill="white"/>
</svg>
