<svg width="24" height="24" viewBox="0 0 24 24" fill="none" xmlns="http://www.w3.org/2000/svg">
<g clip-path="url(#clip0_1_343)">
<path d="M22.7143 22.7141L15.8572 15.857M10.1429 6.57129V13.7141M6.57147 10.1427H13.7143M10.1429 18.7141C9.01728 18.7141 7.90269 18.4924 6.86276 18.0617C5.82282 17.6309 4.87792 16.9996 4.08199 16.2036C3.28605 15.4077 2.65469 14.4628 2.22393 13.4229C1.79318 12.3829 1.57147 11.2683 1.57147 10.1427C1.57147 9.0171 1.79318 7.90251 2.22393 6.86257C2.65469 5.82264 3.28605 4.87773 4.08199 4.0818C4.87792 3.28587 5.82282 2.6545 6.86276 2.22375C7.90269 1.793 9.01728 1.57129 10.1429 1.57129C12.4162 1.57129 14.5964 2.47435 16.2038 4.0818C17.8113 5.68926 18.7143 7.86943 18.7143 10.1427C18.7143 12.416 17.8113 14.5962 16.2038 16.2036C14.5964 17.8111 12.4162 18.7141 10.1429 18.7141Z" stroke="#EF8459" stroke-width="2"/>
</g>
<defs>
<clipPath id="clip0_1_343">
<rect width="24" height="24" fill="white"/>
</clipPath>
</defs>
</svg>
