<svg width="10" height="17" viewBox="0 0 10 17" fill="none" xmlns="http://www.w3.org/2000/svg">
<path d="M9.275 8.04742L2.30876 1.40992C2.19252 1.29912 2.03809 1.2373 1.87751 1.2373C1.71692 1.2373 1.56249 1.29912 1.44626 1.40992L1.43876 1.41742C1.38221 1.47114 1.33719 1.5358 1.30642 1.60746C1.27565 1.67913 1.25979 1.75631 1.25979 1.8343C1.25979 1.91229 1.27565 1.98947 1.30642 2.06113C1.33719 2.1328 1.38221 2.19746 1.43876 2.25117L7.99875 8.50117L1.43876 14.7487C1.38221 14.8024 1.33719 14.867 1.30642 14.9387C1.27565 15.0104 1.25979 15.0876 1.25979 15.1655C1.25979 15.2435 1.27565 15.3207 1.30642 15.3924C1.33719 15.464 1.38221 15.5287 1.43876 15.5824L1.44626 15.5899C1.56249 15.7007 1.71692 15.7625 1.87751 15.7625C2.03809 15.7625 2.19252 15.7007 2.30876 15.5899L9.275 8.95242C9.33627 8.89405 9.38504 8.82385 9.41837 8.74607C9.4517 8.66828 9.46888 8.58455 9.46888 8.49992C9.46888 8.4153 9.4517 8.33156 9.41837 8.25378C9.38504 8.176 9.33627 8.1058 9.275 8.04742Z" fill="white" stroke="white"/>
</svg>
