<svg width="30" height="30" viewBox="0 0 30 30" fill="none" xmlns="http://www.w3.org/2000/svg">
<rect width="30" height="30" rx="15" fill="#34AADF"/>
<path d="M8.34605 14.4686C8.34605 14.4686 14.4495 11.8979 16.5662 10.9927C17.3777 10.6307 20.1295 9.47202 20.1295 9.47202C20.1295 9.47202 21.3996 8.96516 21.2937 10.1962C21.2584 10.7031 20.9762 12.4772 20.694 14.3961C20.2706 17.1117 19.812 20.0806 19.812 20.0806C19.812 20.0806 19.7414 20.9134 19.1417 21.0582C18.5419 21.203 17.5541 20.5513 17.3777 20.4065C17.2365 20.2979 14.7317 18.6685 13.8144 17.872C13.5674 17.6548 13.2852 17.2203 13.8497 16.7134C15.1198 15.5186 16.6368 14.0341 17.5541 13.0927C17.9774 12.6582 18.4008 11.6445 16.6368 12.8755C14.1319 14.6496 11.6624 16.3151 11.6624 16.3151C11.6624 16.3151 11.0979 16.6772 10.0395 16.3513C8.98105 16.0255 7.74626 15.591 7.74626 15.591C7.74626 15.591 6.89959 15.0479 8.34605 14.4686Z" fill="white"/>
</svg>
