<svg width="82" height="82" viewBox="0 0 82 82" fill="none" xmlns="http://www.w3.org/2000/svg">
<path d="M57.0024 0C51.1382 0 45.4976 2.11406 41 5.96905C36.49 2.11406 30.8494 0 24.9852 0C11.2067 0 0 11.4781 0 25.5924C0 45.7255 38.5276 80.2217 40.1676 81.6767C40.4037 81.8881 40.7018 82 41 82C41.2858 82 41.584 81.8881 41.82 81.6767C43.4601 80.2217 82 45.7255 82 25.5924C82 11.4781 70.781 0 57.0024 0ZM62.8409 40.2957H52.2803C51.8211 40.2957 51.3995 40.0419 51.1835 39.6363L48.3905 34.3888L41.9381 50.1761C41.7464 50.6449 41.2908 50.9485 40.7879 50.9485C40.7721 50.9485 40.7564 50.9485 40.74 50.9473C40.2183 50.9278 39.7651 50.5829 39.6049 50.085L33.1999 30.1396L29.412 39.5185C29.2221 39.9884 28.7665 40.2957 28.2599 40.2957H19.1492C18.4631 40.2957 17.9068 39.7395 17.9068 39.0521C17.9068 38.3648 18.4631 37.8086 19.1492 37.8086H27.4221L32.1813 26.0252C32.3779 25.5394 32.8644 25.1994 33.3789 25.2492C33.9012 25.2674 34.3562 25.6123 34.5163 26.1114L40.928 46.0775L47.0922 30.9945C47.2748 30.5488 47.6983 30.2477 48.1794 30.2234C48.6774 30.193 49.113 30.4565 49.3393 30.8816L53.0259 37.8086H62.8409C63.5271 37.8086 64.0834 38.3648 64.0834 39.0521C64.0834 39.7395 63.5271 40.2957 62.8409 40.2957Z" fill="white"/>
</svg>
