<svg width="68" height="92" viewBox="0 0 68 92" fill="none" xmlns="http://www.w3.org/2000/svg">
<path d="M45.3333 2.875C45.3333 2.1125 45.0348 1.38124 44.5035 0.842068C43.9721 0.302901 43.2514 0 42.5 0H25.5C24.7486 0 24.0279 0.302901 23.4965 0.842068C22.9652 1.38124 22.6667 2.1125 22.6667 2.875C22.6667 3.6375 22.3682 4.36877 21.8368 4.90793C21.3054 5.4471 20.5848 5.75 19.8333 5.75C19.0819 5.75 18.3612 6.0529 17.8299 6.59207C17.2985 7.13124 17 7.8625 17 8.625V11.5C17 12.2625 17.2985 12.9938 17.8299 13.5329C18.3612 14.0721 19.0819 14.375 19.8333 14.375H48.1667C48.9181 14.375 49.6388 14.0721 50.1701 13.5329C50.7015 12.9938 51 12.2625 51 11.5V8.625C51 7.8625 50.7015 7.13124 50.1701 6.59207C49.6388 6.0529 48.9181 5.75 48.1667 5.75C47.4152 5.75 46.6945 5.4471 46.1632 4.90793C45.6318 4.36877 45.3333 3.6375 45.3333 2.875Z" fill="white"/>
<path d="M11.815 5.75H8.5C6.24566 5.75 4.08365 6.6587 2.48959 8.27621C0.895533 9.89371 0 12.0875 0 14.375V83.375C0 85.6625 0.895533 87.8563 2.48959 89.4738C4.08365 91.0913 6.24566 92 8.5 92H59.5C61.7543 92 63.9164 91.0913 65.5104 89.4738C67.1045 87.8563 68 85.6625 68 83.375V14.375C68 12.0875 67.1045 9.89371 65.5104 8.27621C63.9164 6.6587 61.7543 5.75 59.5 5.75H56.185C56.4967 6.647 56.6667 7.61875 56.6667 8.625V11.5C56.6667 13.7875 55.7711 15.9813 54.1771 17.5988C52.583 19.2163 50.421 20.125 48.1667 20.125H19.8333C17.579 20.125 15.417 19.2163 13.8229 17.5988C12.2289 15.9813 11.3333 13.7875 11.3333 11.5V8.625C11.3333 7.61875 11.5033 6.647 11.815 5.75ZM50.1727 45.1605L33.1727 62.4105C32.9095 62.6782 32.5968 62.8907 32.2526 63.0356C31.9084 63.1805 31.5393 63.2551 31.1667 63.2551C30.794 63.2551 30.425 63.1805 30.0807 63.0356C29.7365 62.8907 29.4239 62.6782 29.1607 62.4105L20.6607 53.7855C20.3972 53.5182 20.1883 53.2009 20.0457 52.8516C19.9031 52.5024 19.8298 52.128 19.8298 51.75C19.8298 51.372 19.9031 50.9976 20.0457 50.6484C20.1883 50.2991 20.3972 49.9818 20.6607 49.7145C21.1927 49.1747 21.9143 48.8714 22.6667 48.8714C23.0392 48.8714 23.4081 48.9458 23.7523 49.0905C24.0965 49.2352 24.4092 49.4472 24.6727 49.7145L31.1667 56.3098L46.1607 41.0895C46.6927 40.5497 47.4143 40.2464 48.1667 40.2464C48.9191 40.2464 49.6406 40.5497 50.1727 41.0895C50.7047 41.6293 51.0036 42.3615 51.0036 43.125C51.0036 43.8885 50.7047 44.6207 50.1727 45.1605Z" fill="white"/>
</svg>
