<svg width="28" height="26" viewBox="0 0 28 26" fill="none" xmlns="http://www.w3.org/2000/svg">
<path d="M19.5152 12.248V9.94347H14.7886C14.1368 9.94347 13.6061 9.42619 13.6061 8.79328V2.25956C13.6061 1.62331 14.1338 1.10938 14.7886 1.10938H25.8175C26.4693 1.10938 27 1.62665 27 2.25956V8.79328C27 9.42953 26.4723 9.94347 25.8175 9.94347H20.303V12.248H21.8788C22.0964 12.248 22.2727 12.42 22.2727 12.6321C22.2727 12.8442 22.0964 13.0162 21.8788 13.0162H17.9394C17.7218 13.0162 17.5455 12.8442 17.5455 12.6321C17.5455 12.42 17.7218 12.248 17.9394 12.248H19.5152ZM14.3939 2.25956V8.79328C14.3939 9.00187 14.5719 9.17528 14.7886 9.17528H25.8175C26.0373 9.17528 26.2121 9.00507 26.2121 8.79328V2.25956C26.2121 2.05097 26.0342 1.87756 25.8175 1.87756H14.7886C14.5687 1.87756 14.3939 2.04777 14.3939 2.25956ZM12.8182 19.1616V24.923H14C14.2176 24.923 14.3939 25.095 14.3939 25.3071C14.3939 25.5192 14.2176 25.6912 14 25.6912H1.39394C1.17637 25.6912 1 25.5192 1 25.3071C1 25.095 1.17637 24.923 1.39394 24.923H2.57576V19.1616H1.39394C1.17637 19.1616 1 18.9897 1 18.7776V17.2412C1 17.0957 1.08431 16.9627 1.21777 16.8977L7.5208 13.8249C7.6317 13.7709 7.76224 13.7709 7.87314 13.8249L14.1762 16.8977C14.3096 16.9627 14.3939 17.0957 14.3939 17.2412V18.7776C14.3939 18.9897 14.2176 19.1616 14 19.1616H12.8182ZM1.78788 17.4786V18.3935H13.6061V17.4786L7.69697 14.5979L1.78788 17.4786ZM12.0303 19.1616H9.66667V24.923H12.0303V19.1616ZM8.87879 19.1616H6.51515V24.923H8.87879V19.1616ZM5.72727 19.1616H3.36364V24.923H5.72727V19.1616ZM23.4545 17.4003V18.7776C23.4545 20.8988 21.6908 22.6185 19.5152 22.6185H17.9394C17.7218 22.6185 17.5455 22.4465 17.5455 22.2344C17.5455 22.0222 17.7218 21.8503 17.9394 21.8503H19.5152C21.2557 21.8503 22.6667 20.4746 22.6667 18.7776V17.4003L21.3695 18.6651C21.2156 18.8151 20.9662 18.8151 20.8124 18.6651C20.6585 18.5151 20.6585 18.2719 20.8124 18.1219L22.7821 16.2014C22.9359 16.0514 23.1853 16.0514 23.3392 16.2014L25.3089 18.1219C25.4627 18.2719 25.4627 18.5151 25.3089 18.6651C25.155 18.8151 24.9056 18.8151 24.7518 18.6651L23.4545 17.4003ZM4.54545 8.63211V7.25483C4.54545 5.13355 6.30918 3.41392 8.48485 3.41392H10.0606C10.2782 3.41392 10.4545 3.58588 10.4545 3.79801C10.4545 4.01014 10.2782 4.1821 10.0606 4.1821H8.48485C6.74431 4.1821 5.33333 5.55781 5.33333 7.25483V8.63211L6.63054 7.36733C6.78438 7.21734 7.0338 7.21734 7.18764 7.36733C7.34149 7.51733 7.34149 7.76051 7.18764 7.91051L5.21795 9.83096C5.0641 9.98096 4.81469 9.98096 4.66084 9.83096L2.69115 7.91051C2.5373 7.76051 2.5373 7.51733 2.69115 7.36733C2.84499 7.21734 3.09441 7.21734 3.24825 7.36733L4.54545 8.63211Z" fill="white" stroke="white" stroke-width="0.5"/>
</svg>
