<svg width="35" height="35" viewBox="0 0 35 35" fill="none" xmlns="http://www.w3.org/2000/svg">
<rect width="35" height="35" rx="5" fill="#EF8459"/>
<path d="M18 6C11.9326 6 7 10.9326 7 17C7 23.0674 11.9326 28 18 28C24.0674 28 29 23.0674 29 17C29 10.9326 24.0674 6 18 6ZM25.3411 23.5074L21.9137 20.08L21.08 20.9137L24.5074 24.3411C22.7705 25.8926 20.5011 26.8189 18 26.8189C12.5811 26.8189 8.18105 22.4189 8.18105 17C8.18105 14.4989 9.13053 12.2295 10.6589 10.4926L14.0863 13.92L14.92 13.0863L11.4926 9.65895C13.2295 8.10737 15.4989 7.18105 18 7.18105C23.4189 7.18105 27.8189 11.5811 27.8189 17C27.8189 19.5011 26.8926 21.7705 25.3411 23.5074Z" fill="white"/>
<path d="M23.0485 11.6969C22.3769 11.0253 21.4737 10.6548 20.5011 10.6548C19.5285 10.6548 18.6485 11.0253 17.9537 11.6969L12.6969 16.9769C12.0253 17.6485 11.6548 18.5516 11.6548 19.5243C11.6548 20.4969 12.0253 21.3769 12.6969 22.0716L12.9748 22.3495C13.6695 23.0443 14.5958 23.3916 15.5222 23.3916C16.4485 23.3916 17.3516 23.0443 18.0695 22.3495L23.3495 17.0695C24.0211 16.3979 24.3916 15.4948 24.3916 14.5222C24.3916 13.5495 24.0211 12.6695 23.3495 11.9748L23.0485 11.6969ZM17.2127 21.4695C16.2632 22.419 14.7348 22.419 13.7853 21.4695L13.5074 21.1916C13.0443 20.7285 12.8127 20.1264 12.8127 19.4779C12.8127 18.8295 13.0674 18.2274 13.5074 17.7643L15.7306 15.5411L19.4127 19.2232L17.2127 21.4695ZM22.4695 16.2127L20.2464 18.4358L16.5643 14.7537L18.7874 12.5306C19.2506 12.0674 19.8527 11.8358 20.5011 11.8358C21.1495 11.8358 21.7516 12.0906 22.2148 12.5306L22.4695 12.7853C22.9327 13.2485 23.1643 13.8506 23.1643 14.499C23.1643 15.1474 22.9327 15.7495 22.4695 16.2127Z" fill="white"/>
<path d="M20.5009 12.9014C20.0609 12.9014 19.6672 13.0635 19.3662 13.3645L18.3241 14.4066C18.0925 14.6382 18.0925 15.0087 18.3241 15.2403C18.4399 15.3561 18.5788 15.4024 18.7409 15.4024C18.8799 15.4024 19.042 15.3561 19.1578 15.2403L20.1999 14.1982C20.362 14.0361 20.6399 14.0361 20.802 14.1982C21.0335 14.4298 21.4041 14.4298 21.6357 14.1982C21.8672 13.9666 21.8672 13.5961 21.6357 13.3645C21.3346 13.0635 20.9409 12.9014 20.5009 12.9014Z" fill="white"/>
</svg>
