<svg width="94" height="95" viewBox="0 0 94 95" fill="none" xmlns="http://www.w3.org/2000/svg">
<g clip-path="url(#clip0_14_2027)">
<path d="M86.4619 13.2531C81.4232 7.92239 74.513 4.76254 67.1913 4.44121C59.8697 4.11989 52.7101 6.66226 47.2253 11.5312C47.1704 11.5788 47.1002 11.6049 47.0276 11.6049C46.955 11.6049 46.8849 11.5788 46.83 11.5312C42.5601 7.73941 37.2429 5.33336 31.58 4.63044C25.9172 3.92751 20.1746 4.96074 15.1099 7.5938C15.9154 8.21226 16.4822 9.09119 16.7137 10.081C21.2343 7.79199 26.3373 6.91658 31.3607 7.56839C36.384 8.2202 41.0959 10.3691 44.885 13.7364C45.4774 14.2578 46.2389 14.5454 47.0275 14.5454C47.816 14.5454 48.5776 14.2578 49.1699 13.7364C54.0857 9.37315 60.5023 7.09502 67.064 7.38339C73.6257 7.67175 79.8186 10.504 84.334 15.2818C87.2576 18.406 89.332 22.2294 90.3589 26.3862C91.3857 30.543 91.3307 34.8943 90.199 39.0237H76.7063C76.5419 38.8478 76.4023 38.6502 76.2916 38.4363L73.7777 32.6603C73.6118 32.2756 73.3371 31.9479 72.9874 31.7178C72.6377 31.4876 72.2284 31.3651 71.81 31.3652C71.3917 31.3654 70.9825 31.4883 70.633 31.7187C70.2835 31.9491 70.009 32.2769 69.8433 32.6618C69.8268 32.698 65.604 44.2155 65.604 44.2155L62.4998 27.5798C62.4076 27.0894 62.1518 26.645 61.7742 26.3195C61.3967 25.994 60.9199 25.8068 60.4221 25.7885C59.9207 25.787 59.4335 25.9553 59.0396 26.2659C58.6456 26.5766 58.368 27.0115 58.2519 27.5001L55.5751 38.6065C55.4311 38.7863 55.2464 38.9293 55.0363 39.0237H44.7001C44.9656 39.9897 45.1668 40.9723 45.3023 41.965H55.1088C55.8496 41.8993 56.5557 41.6203 57.1418 41.1616C57.7279 40.7029 58.169 40.0841 58.4118 39.3799L60.2721 31.6578L63.2329 47.5266C63.3143 47.9942 63.547 48.422 63.8953 48.7438C64.2435 49.0657 64.6878 49.2638 65.1596 49.3075C65.6314 49.3512 66.1045 49.2381 66.5057 48.9857C66.907 48.7332 67.2141 48.3555 67.3797 47.9108L71.8737 35.6494L73.6113 39.6427C73.6551 39.7375 74.7075 41.965 76.4136 41.965H89.2211C87.9161 45.2519 85.9495 48.2344 83.4437 50.7268L47.2525 86.728C47.1924 86.7873 47.1114 86.8206 47.027 86.8205C46.9426 86.8204 46.8617 86.7871 46.8016 86.7277L23.7145 63.7616C21.9166 63.5335 20.141 63.1543 18.4065 62.6281L44.7301 88.8137C45.346 89.4114 46.1699 89.7456 47.0275 89.7456C47.885 89.7456 48.7089 89.4114 49.3248 88.8137L85.5156 52.8128C96.4471 41.9388 96.8718 24.1922 86.4619 13.2531Z" fill="white"/>
<path d="M35.1426 60.1535C36.049 59.9166 36.9656 59.6261 37.9449 59.2653C37.9861 59.25 38.0249 59.2218 38.0656 59.2035C39.0283 59.9456 39.8073 60.8999 40.3422 61.9923C40.8772 63.0847 41.1537 64.2859 41.1503 65.5026C41.1527 65.8927 41.3095 66.2659 41.5863 66.5402C41.8632 66.8145 42.2374 66.9675 42.6268 66.9656C43.0162 66.9637 43.3889 66.8071 43.6631 66.53C43.9372 66.253 44.0904 65.8783 44.0889 65.4883C44.0988 63.8569 43.7371 62.2447 43.0313 60.7744C42.3256 59.3042 41.2943 58.0145 40.016 57.0035C40.7567 55.538 41.3354 53.9959 41.7419 52.4046C44.6776 39.9626 40.1337 31.0572 28.2362 25.9361C22.2622 23.3647 12.0405 19.8336 13.8639 11.3922C13.9285 11.092 13.8977 10.7791 13.7759 10.4973C13.654 10.2155 13.4472 9.97892 13.1845 9.82075C12.9217 9.66258 12.6161 9.59072 12.3105 9.61523C12.0049 9.63975 11.7146 9.75941 11.4803 9.95746C5.95391 14.6276 2.23475 18.8762 0.770477 25.6183C-0.236591 29.9496 -0.284388 34.4493 0.630446 38.8011C1.54528 43.1529 3.40054 47.2512 6.06583 50.8079C10.8547 57.3232 19.1593 61.0957 27.7767 61.0957C30.262 61.0972 32.7374 60.7806 35.1426 60.1535ZM8.43262 49.0651C6.01902 45.8422 4.33941 42.1288 3.51184 38.186C2.68426 34.2432 2.72881 30.1668 3.64235 26.2431C4.69051 21.4153 7.1348 17.9732 10.7363 14.5548C11.5179 22.6589 20.7066 25.897 27.0754 28.6383C37.7619 33.238 41.5137 40.5751 38.8822 51.7285C38.5493 52.983 38.1027 54.2045 37.548 55.3776C34.8191 53.8379 28.4839 49.9154 24.7021 44.7702C24.4711 44.4568 24.1253 44.248 23.7407 44.1896C23.3561 44.1312 22.9641 44.228 22.6507 44.4588C22.3373 44.6896 22.1281 45.0355 22.069 45.4206C22.0098 45.8057 22.1056 46.1986 22.3353 46.513C25.9462 51.4264 31.495 55.2085 34.8056 57.1906C34.671 57.2283 34.5333 57.2729 34.3997 57.3077C26.358 59.4114 14.8012 57.7289 8.43262 49.0651Z" fill="white"/>
</g>
<defs>
<clipPath id="clip0_14_2027">
<rect width="94" height="95" fill="white"/>
</clipPath>
</defs>
</svg>
