<svg width="29" height="21" viewBox="0 0 29 21" fill="none" xmlns="http://www.w3.org/2000/svg">
<path d="M27.6739 1.01801H4.5661C3.5041 1.01801 2.4325 0.977485 1.3711 1.01801C1.3561 1.01859 1.3411 1.01801 1.3261 1.01801C1.15 1.01801 1 1.16217 1 1.33267V19.707C1 19.8772 1.1494 20.0217 1.3261 20.0217H24.4336C25.4956 20.0217 26.5672 20.0625 27.6286 20.0217C27.6436 20.0211 27.6589 20.0217 27.6736 20.0217C27.7732 20.0217 27.8491 19.9861 27.9016 19.9316C27.9607 19.8813 28 19.8063 28 19.707V1.33267C28 1.16275 27.8506 1.01801 27.6739 1.01801ZM27.3475 19.3924H2.3998C2.1595 19.3924 1.9018 19.3709 1.6525 19.3744V17.8416H24.4339C25.3081 17.8416 26.1892 17.8683 27.0652 17.8555C27.1597 17.859 27.2545 17.861 27.3478 17.8596L27.3475 19.3924ZM27.3475 17.2123H4.5661C3.6919 17.2123 2.8111 17.1854 1.9348 17.1984C1.8403 17.195 1.7458 17.1929 1.6522 17.1944V15.6616H24.4336C25.3078 15.6616 26.1886 15.6882 27.0646 15.6755C27.1591 15.679 27.2542 15.681 27.3475 15.6796V17.2123ZM27.3475 15.0323H4.5661C3.6919 15.0323 2.8111 15.0057 1.9348 15.0184C1.8403 15.0149 1.7458 15.0129 1.6522 15.0144V13.4816H24.4336C25.3078 13.4816 26.1889 13.5085 27.0649 13.4955C27.1594 13.499 27.2542 13.501 27.3475 13.4995V15.0323ZM27.3475 12.8523H4.5661C3.6919 12.8523 2.8114 12.8256 1.9354 12.8384C1.8406 12.8349 1.7461 12.8329 1.6522 12.8343V1.64762H26.6005C26.8408 1.64762 27.0985 1.66904 27.3475 1.66556V12.8523Z" fill="white"/>
<path d="M25.6651 4.36729H24.8959C24.6301 4.36729 24.3001 4.41852 24.0844 4.23616C23.8525 4.04018 23.8984 3.73826 23.8984 3.47194V2.69934C23.8984 2.62292 23.8753 2.56097 23.8375 2.51321C23.7874 2.43331 23.6992 2.37571 23.5723 2.37571H5.38991C5.26421 2.37571 5.17631 2.43244 5.12591 2.51176C5.08751 2.55952 5.06381 2.62176 5.06381 2.69905V3.44734C5.06381 3.70902 5.11211 4.00834 4.90271 4.21184C4.69481 4.41418 4.37981 4.367 4.11041 4.367H3.33491C3.15881 4.367 3.00881 4.51144 3.00881 4.68165V10.0303C3.00881 10.2005 3.15821 10.3449 3.33491 10.3449H4.08461C4.34651 10.3449 4.66481 10.2963 4.87781 10.476C5.10641 10.6691 5.06381 10.9621 5.06381 11.224V11.9816C5.06381 12.1515 5.21351 12.2963 5.38991 12.2963H13.8319C14.248 12.3455 14.668 12.3449 15.0817 12.2963H23.572C23.7484 12.2963 23.8981 12.1521 23.8981 11.9816V11.224C23.8981 10.9502 23.8558 10.6515 24.1066 10.4587C24.319 10.2954 24.6412 10.3446 24.8956 10.3446H25.6648C25.8412 10.3446 25.9909 10.2005 25.9909 10.03V4.68223C25.9912 4.51202 25.8418 4.36729 25.6651 4.36729ZM5.72441 11.6669C5.74751 11.0918 5.78471 10.4361 5.33921 10.0314C4.91411 9.64526 4.24361 9.68463 3.66131 9.70779V5.00529C4.25501 5.02873 4.94171 5.06868 5.36441 4.65734C5.79131 4.24165 5.74811 3.58137 5.72441 3.00531H11.9731C10.3825 3.87171 9.33431 5.54226 9.31961 7.35639C9.33401 9.14679 10.3384 10.7838 11.9071 11.6669H5.72441ZM15.0766 11.6669H13.8586C13.7728 11.6554 13.6876 11.6423 13.6024 11.6253C11.5042 11.2151 9.98831 9.41542 9.97181 7.3561C9.98621 5.55181 11.1622 3.87952 12.937 3.26613C14.7364 2.64434 16.7635 3.18739 17.9788 4.60755C19.1785 6.00976 19.3102 8.06271 18.3382 9.6111C17.6281 10.7424 16.4035 11.4892 15.0766 11.6669ZM25.339 9.70721C24.7567 9.68347 24.0826 9.64092 23.6497 10.0091C23.1772 10.4118 23.2147 11.0799 23.2378 11.6669H17.0539C17.5861 11.3746 18.067 10.9907 18.4621 10.5235C19.8301 8.90652 20.0272 6.57742 18.901 4.78355C18.4228 4.02166 17.7484 3.41752 16.9681 3.00531H23.2378C23.2138 3.59208 23.1697 4.26973 23.6227 4.68137C24.0541 5.07302 24.7453 5.02931 25.339 5.00529V9.70721Z" fill="white"/>
<path d="M15.247 6.28644C15.2611 6.69054 15.9136 6.69228 15.8995 6.28644C15.8761 5.62007 15.3886 5.12044 14.8069 4.9702V4.78088C14.8069 4.37591 14.1547 4.37533 14.1547 4.78088V4.95428C13.9147 5.00551 13.681 5.12275 13.4779 5.31873C12.6652 6.10291 13.1497 7.35286 14.1547 7.60904V9.05149C13.9108 8.93396 13.7251 8.69572 13.7146 8.39409C13.7005 7.98999 13.048 7.98825 13.0624 8.39409C13.0855 9.06046 13.5733 9.56009 14.1547 9.71033V9.89964C14.1547 10.3043 14.8069 10.3052 14.8069 9.89964V9.72596C15.0472 9.67472 15.2806 9.55778 15.4837 9.36151C16.2967 8.57733 15.8119 7.32738 14.8069 7.07091V5.62875C15.0511 5.74686 15.2365 5.9848 15.247 6.28644ZM14.155 6.94615C13.7167 6.73425 13.5421 6.1472 13.9393 5.76394C14.0062 5.69938 14.0791 5.65104 14.155 5.6163V6.94615ZM15.0226 8.91688C14.9557 8.98144 14.8831 9.02978 14.8069 9.06451V7.73467C15.2452 7.94686 15.4201 8.53362 15.0226 8.91688Z" fill="white"/>
<path d="M27.6739 1.01801H4.5661C3.5041 1.01801 2.4325 0.977485 1.3711 1.01801C1.3561 1.01859 1.3411 1.01801 1.3261 1.01801C1.15 1.01801 1 1.16217 1 1.33267V19.707C1 19.8772 1.1494 20.0217 1.3261 20.0217H24.4336C25.4956 20.0217 26.5672 20.0625 27.6286 20.0217C27.6436 20.0211 27.6589 20.0217 27.6736 20.0217C27.7732 20.0217 27.8491 19.9861 27.9016 19.9316C27.9607 19.8813 28 19.8063 28 19.707V1.33267C28 1.16275 27.8506 1.01801 27.6739 1.01801ZM27.3475 19.3924H2.3998C2.1595 19.3924 1.9018 19.3709 1.6525 19.3744V17.8416H24.4339C25.3081 17.8416 26.1892 17.8683 27.0652 17.8555C27.1597 17.859 27.2545 17.861 27.3478 17.8596L27.3475 19.3924ZM27.3475 17.2123H4.5661C3.6919 17.2123 2.8111 17.1854 1.9348 17.1984C1.8403 17.195 1.7458 17.1929 1.6522 17.1944V15.6616H24.4336C25.3078 15.6616 26.1886 15.6882 27.0646 15.6755C27.1591 15.679 27.2542 15.681 27.3475 15.6796V17.2123ZM27.3475 15.0323H4.5661C3.6919 15.0323 2.8111 15.0057 1.9348 15.0184C1.8403 15.0149 1.7458 15.0129 1.6522 15.0144V13.4816H24.4336C25.3078 13.4816 26.1889 13.5085 27.0649 13.4955C27.1594 13.499 27.2542 13.501 27.3475 13.4995V15.0323ZM27.3475 12.8523H4.5661C3.6919 12.8523 2.8114 12.8256 1.9354 12.8384C1.8406 12.8349 1.7461 12.8329 1.6522 12.8343V1.64762H26.6005C26.8408 1.64762 27.0985 1.66904 27.3475 1.66556V12.8523Z" stroke="white" stroke-width="0.2"/>
<path d="M25.6651 4.36729H24.8959C24.6301 4.36729 24.3001 4.41852 24.0844 4.23616C23.8525 4.04018 23.8984 3.73826 23.8984 3.47194V2.69934C23.8984 2.62292 23.8753 2.56097 23.8375 2.51321C23.7874 2.43331 23.6992 2.37571 23.5723 2.37571H5.38991C5.26421 2.37571 5.17631 2.43244 5.12591 2.51176C5.08751 2.55952 5.06381 2.62176 5.06381 2.69905V3.44734C5.06381 3.70902 5.11211 4.00834 4.90271 4.21184C4.69481 4.41418 4.37981 4.367 4.11041 4.367H3.33491C3.15881 4.367 3.00881 4.51144 3.00881 4.68165V10.0303C3.00881 10.2005 3.15821 10.3449 3.33491 10.3449H4.08461C4.34651 10.3449 4.66481 10.2963 4.87781 10.476C5.10641 10.6691 5.06381 10.9621 5.06381 11.224V11.9816C5.06381 12.1515 5.21351 12.2963 5.38991 12.2963H13.8319C14.248 12.3455 14.668 12.3449 15.0817 12.2963H23.572C23.7484 12.2963 23.8981 12.1521 23.8981 11.9816V11.224C23.8981 10.9502 23.8558 10.6515 24.1066 10.4587C24.319 10.2954 24.6412 10.3446 24.8956 10.3446H25.6648C25.8412 10.3446 25.9909 10.2005 25.9909 10.03V4.68223C25.9912 4.51202 25.8418 4.36729 25.6651 4.36729ZM5.72441 11.6669C5.74751 11.0918 5.78471 10.4361 5.33921 10.0314C4.91411 9.64526 4.24361 9.68463 3.66131 9.70779V5.00529C4.25501 5.02873 4.94171 5.06868 5.36441 4.65734C5.79131 4.24165 5.74811 3.58137 5.72441 3.00531H11.9731C10.3825 3.87171 9.33431 5.54226 9.31961 7.35639C9.33401 9.14679 10.3384 10.7838 11.9071 11.6669H5.72441ZM15.0766 11.6669H13.8586C13.7728 11.6554 13.6876 11.6423 13.6024 11.6253C11.5042 11.2151 9.98831 9.41542 9.97181 7.3561C9.98621 5.55181 11.1622 3.87952 12.937 3.26613C14.7364 2.64434 16.7635 3.18739 17.9788 4.60755C19.1785 6.00976 19.3102 8.06271 18.3382 9.6111C17.6281 10.7424 16.4035 11.4892 15.0766 11.6669ZM25.339 9.70721C24.7567 9.68347 24.0826 9.64092 23.6497 10.0091C23.1772 10.4118 23.2147 11.0799 23.2378 11.6669H17.0539C17.5861 11.3746 18.067 10.9907 18.4621 10.5235C19.8301 8.90652 20.0272 6.57742 18.901 4.78355C18.4228 4.02166 17.7484 3.41752 16.9681 3.00531H23.2378C23.2138 3.59208 23.1697 4.26973 23.6227 4.68137C24.0541 5.07302 24.7453 5.02931 25.339 5.00529V9.70721Z" stroke="white" stroke-width="0.2"/>
<path d="M15.247 6.28644C15.2611 6.69054 15.9136 6.69228 15.8995 6.28644C15.8761 5.62007 15.3886 5.12044 14.8069 4.9702V4.78088C14.8069 4.37591 14.1547 4.37533 14.1547 4.78088V4.95428C13.9147 5.00551 13.681 5.12275 13.4779 5.31873C12.6652 6.10291 13.1497 7.35286 14.1547 7.60904V9.05149C13.9108 8.93396 13.7251 8.69572 13.7146 8.39409C13.7005 7.98999 13.048 7.98825 13.0624 8.39409C13.0855 9.06046 13.5733 9.56009 14.1547 9.71033V9.89964C14.1547 10.3043 14.8069 10.3052 14.8069 9.89964V9.72596C15.0472 9.67472 15.2806 9.55778 15.4837 9.36151C16.2967 8.57733 15.8119 7.32738 14.8069 7.07091V5.62875C15.0511 5.74686 15.2365 5.9848 15.247 6.28644ZM14.155 6.94615C13.7167 6.73425 13.5421 6.1472 13.9393 5.76394C14.0062 5.69938 14.0791 5.65104 14.155 5.6163V6.94615ZM15.0226 8.91688C14.9557 8.98144 14.8831 9.02978 14.8069 9.06451V7.73467C15.2452 7.94686 15.4201 8.53362 15.0226 8.91688Z" stroke="white" stroke-width="0.2"/>
</svg>
