<svg width="97" height="97" viewBox="0 0 97 97" fill="none" xmlns="http://www.w3.org/2000/svg">
<path d="M82.3627 14.5995C63.7601 -4.11413 33.2401 -4.11413 14.6374 14.5995C-4.11058 33.168 -4.11058 63.632 14.6374 82.2005C23.9387 91.4848 36.2921 96.1269 48.5001 96.1269C60.7081 96.1269 73.0614 91.4848 82.3627 82.2005C101.111 63.632 101.111 33.168 82.3627 14.5995ZM16.6721 16.6304C25.3921 7.9264 37.0187 3.42934 48.5001 3.42934C59.5454 3.42934 70.7361 7.4912 79.3108 15.6149L56.2027 38.6805C55.6214 37.3749 55.3307 35.9243 55.3307 33.8933V22.1429C55.3307 19.6768 53.4414 17.7909 50.9707 17.7909H47.4827C45.0121 17.7909 43.1227 19.6768 43.1227 22.1429V33.8933C43.1227 38.5355 41.3787 40.7115 39.4894 43.1776C37.4548 45.7888 35.1294 48.6901 35.1294 54.2027V59.5701L15.6547 79.1541C-0.91325 61.6011 -0.622582 33.7483 16.6721 16.6304ZM52.4241 34.7637C52.5694 37.2299 53.1507 39.2608 53.8774 40.8565L38.0361 56.8139V54.3477C38.0361 49.8507 39.7801 47.6747 41.6694 45.0635C43.5588 42.5973 45.7388 39.8411 45.8841 34.9088H52.4241V34.7637ZM46.0294 31.8624V21.9979C46.0294 21.1275 46.6107 20.5472 47.4827 20.5472H50.9707C51.8428 20.5472 52.4241 21.1275 52.4241 21.9979V31.8624H46.0294ZM55.4761 43.4677C55.9121 44.048 56.2027 44.4832 56.6387 45.0635C58.6734 47.5296 60.2721 49.7056 60.2721 54.3477V77.8485C60.2721 78.1387 59.9814 78.4288 59.6908 78.4288H38.6174C38.3268 78.4288 38.0361 78.1387 38.0361 77.8485V60.8757L55.4761 43.4677ZM80.3281 80.1696C63.0334 97.2875 35.2747 97.7227 17.6894 81.1851L35.1294 63.7771V77.8485C35.1294 79.7344 36.7281 81.3301 38.6174 81.3301H59.6908C61.5801 81.3301 63.1787 79.7344 63.1787 77.8485V54.2027C63.1787 48.6901 60.8534 45.7888 58.9641 43.1776C58.5281 42.5973 57.9468 41.872 57.5107 41.2917L81.2001 17.6459C97.9134 35.1989 97.6227 63.0517 80.3281 80.1696Z" fill="white"/>
</svg>
