<svg width="40" height="40" viewBox="0 0 40 40" fill="none" xmlns="http://www.w3.org/2000/svg">
<rect width="40" height="40" rx="20" fill="#00D95F"/>
<path d="M10 29.2595L11.435 23.924C10.2777 21.8455 9.91003 19.4202 10.3994 17.0929C10.8888 14.7657 12.2024 12.6927 14.0992 11.2543C15.996 9.81594 18.3487 9.1087 20.7256 9.26236C23.1026 9.41602 25.3443 10.4203 27.0394 12.0908C28.7345 13.7614 29.7694 15.9862 29.9541 18.357C30.1387 20.7279 29.4608 23.0856 28.0447 24.9977C26.6286 26.9098 24.5694 28.248 22.2448 28.7666C19.9202 29.2853 17.4863 28.9496 15.3896 27.8213L10 29.2595ZM15.6494 25.8247L15.9827 26.0221C17.5014 26.9207 19.2752 27.2926 21.0277 27.0798C22.7802 26.8669 24.4129 26.0813 25.6715 24.8453C26.9301 23.6093 27.7437 21.9924 27.9857 20.2466C28.2277 18.5007 27.8844 16.724 27.0093 15.1933C26.1342 13.6625 24.7765 12.4638 23.1478 11.7838C21.519 11.1039 19.7108 10.9809 18.0047 11.4341C16.2986 11.8873 14.7907 12.8912 13.7158 14.2893C12.6409 15.6874 12.0594 17.4013 12.062 19.1638C12.0606 20.6251 12.4654 22.0583 13.2315 23.3036L13.4405 23.6476L12.6383 26.6256L15.6494 25.8247Z" fill="white"/>
<path fill-rule="evenodd" clip-rule="evenodd" d="M23.7384 20.5339C23.543 20.3765 23.3142 20.2658 23.0695 20.2101C22.8247 20.1544 22.5705 20.1552 22.3261 20.2124C21.9588 20.3647 21.7216 20.94 21.4843 21.2276C21.4343 21.2965 21.3607 21.3449 21.2775 21.3636C21.1943 21.3823 21.1071 21.37 21.0323 21.3291C19.688 20.8034 18.5611 19.8394 17.8348 18.5937C17.7728 18.5159 17.7435 18.4172 17.753 18.3184C17.7625 18.2195 17.81 18.1281 17.8856 18.0635C18.1502 17.802 18.3446 17.478 18.4506 17.1216C18.4741 16.7285 18.3839 16.337 18.1907 15.9936C18.0413 15.5123 17.7571 15.0837 17.3715 14.7584C17.1726 14.6692 16.9522 14.6392 16.7366 14.6722C16.5211 14.7053 16.3198 14.7998 16.1569 14.9446C15.8741 15.1881 15.6497 15.4919 15.5001 15.8335C15.3505 16.1752 15.2796 16.546 15.2925 16.9186C15.2934 17.1278 15.32 17.3362 15.3716 17.539C15.5028 18.0262 15.7045 18.4918 15.9705 18.9208C16.1623 19.2495 16.3716 19.5676 16.5975 19.874C17.3317 20.8802 18.2546 21.7345 19.3149 22.3894C19.847 22.7223 20.4157 22.9929 21.0097 23.196C21.6268 23.4752 22.3082 23.5824 22.9814 23.5062C23.365 23.4482 23.7284 23.297 24.0397 23.0659C24.351 22.8348 24.6006 22.5308 24.7666 22.1808C24.8641 21.9693 24.8937 21.7329 24.8514 21.504C24.7497 21.0358 24.1226 20.7595 23.7384 20.5339Z" fill="white"/>
</svg>
