<svg width="89" height="97" viewBox="0 0 89 97" fill="none" xmlns="http://www.w3.org/2000/svg">
<path d="M9.15059 17.7324L16.4981 75.2277L0.122168 23.4325C-0.0859325 22.7686 -0.0264764 22.0481 0.287538 21.4285C0.601553 20.8089 1.14458 20.3407 1.79791 20.1261L9.15059 17.7324ZM22.9523 92.1309C22.5624 92.1297 22.174 92.0807 21.7957 91.9848L22.8073 95.1765C23.0193 95.839 23.4809 96.3895 24.0914 96.708C24.7019 97.0266 25.4119 97.0871 26.0663 96.8766L52.436 88.2957L23.5794 92.0912C23.3714 92.1183 23.162 92.1308 22.9523 92.1309ZM22.9441 80.8767V8.55384L13.0747 9.8524C12.394 9.94414 11.7767 10.3054 11.3576 10.8572C10.9385 11.4091 10.7516 12.1067 10.8376 12.7979L20.3821 87.5103C20.4721 88.2009 20.8278 88.8273 21.3717 89.2526C21.9155 89.6779 22.6032 89.8675 23.2844 89.7799L53.9637 85.7445H27.9209C26.6253 85.7662 25.3741 85.2662 24.4412 84.3538C23.5084 83.4414 22.97 82.191 22.9441 80.8767ZM89 15.2896V80.8767C88.9737 81.5736 88.6771 82.2318 88.1747 82.7079C87.6724 83.184 87.0049 83.4394 86.3178 83.4185H27.924C27.2369 83.4394 26.5694 83.184 26.067 82.7079C25.5647 82.2318 25.268 81.5736 25.2418 80.8767V2.54293C25.2681 1.84655 25.5642 1.18885 26.0659 0.712855C26.5677 0.236861 27.2343 -0.0189349 27.9209 0.0010934H73.0291V12.9616C73.0291 13.5791 73.2708 14.1712 73.7012 14.6078C74.1315 15.0444 74.7151 15.2896 75.3237 15.2896H89ZM53.8907 23.8622C53.8907 24.1709 54.0116 24.467 54.2268 24.6853C54.4419 24.9036 54.7338 25.0262 55.038 25.0262H79.7793C80.0836 25.0262 80.3754 24.9036 80.5906 24.6853C80.8058 24.467 80.9266 24.1709 80.9266 23.8622C80.9266 23.5535 80.8058 23.2574 80.5906 23.0391C80.3754 22.8208 80.0836 22.6982 79.7793 22.6982H55.038C54.7338 22.6982 54.4419 22.8208 54.2268 23.0391C54.0116 23.2574 53.8907 23.5535 53.8907 23.8622ZM79.7783 32.0384H42.323C42.0187 32.0384 41.7269 32.1611 41.5117 32.3794C41.2966 32.5977 41.1757 32.8937 41.1757 33.2024C41.1757 33.5112 41.2966 33.8072 41.5117 34.0255C41.7269 34.2438 42.0187 34.3664 42.323 34.3664H79.7783C80.0826 34.3664 80.3744 34.2438 80.5896 34.0255C80.8047 33.8072 80.9256 33.5112 80.9256 33.2024C80.9256 32.8937 80.8047 32.5977 80.5896 32.3794C80.3744 32.1611 80.0826 32.0384 79.7783 32.0384ZM33.31 23.8622C33.3099 24.0151 33.3394 24.1665 33.3971 24.3078C33.4547 24.4491 33.5392 24.5775 33.6457 24.6856C33.7523 24.7937 33.8788 24.8794 34.0181 24.9379C34.1574 24.9963 34.3066 25.0264 34.4573 25.0262H51.1345C51.4388 25.0262 51.7306 24.9036 51.9458 24.6853C52.1609 24.467 52.2818 24.1709 52.2818 23.8622C52.2818 23.5535 52.1609 23.2574 51.9458 23.0391C51.7306 22.8208 51.4388 22.6982 51.1345 22.6982H34.4604C34.1561 22.6982 33.8643 22.8208 33.6491 23.0391C33.434 23.2574 33.3131 23.5535 33.3131 23.8622H33.31ZM33.31 33.2024C33.3099 33.3553 33.3394 33.5068 33.3971 33.648C33.4547 33.7893 33.5392 33.9177 33.6457 34.0258C33.7523 34.1339 33.8788 34.2197 34.0181 34.2781C34.1574 34.3366 34.3066 34.3666 34.4573 34.3664H38.4164C38.7207 34.3664 39.0125 34.2438 39.2276 34.0255C39.4428 33.8072 39.5637 33.5112 39.5637 33.2024C39.5637 32.8937 39.4428 32.5977 39.2276 32.3794C39.0125 32.1611 38.7207 32.0384 38.4164 32.0384H34.4604C34.1561 32.0384 33.8643 32.1611 33.6491 32.3794C33.434 32.5977 33.3131 32.8937 33.3131 33.2024H33.31ZM44.6731 61.2262C44.6731 60.9175 44.5523 60.6215 44.3371 60.4032C44.1219 60.1849 43.8301 60.0622 43.5258 60.0622H34.4573C34.153 60.0622 33.8612 60.1849 33.646 60.4032C33.4309 60.6215 33.31 60.9175 33.31 61.2262C33.31 61.535 33.4309 61.831 33.646 62.0493C33.8612 62.2676 34.153 62.3902 34.4573 62.3902H43.5258C43.8301 62.3902 44.1219 62.2676 44.3371 62.0493C44.5523 61.831 44.6731 61.535 44.6731 61.2262ZM34.4573 53.05H64.1353C64.4396 53.05 64.7315 52.9274 64.9466 52.7091C65.1618 52.4908 65.2827 52.1947 65.2827 51.886C65.2827 51.5773 65.1618 51.2812 64.9466 51.0629C64.7315 50.8446 64.4396 50.722 64.1353 50.722H34.4573C34.153 50.722 33.8612 50.8446 33.646 51.0629C33.4309 51.2812 33.31 51.5773 33.31 51.886C33.31 52.1947 33.4309 52.4908 33.646 52.7091C33.8612 52.9274 34.153 53.05 34.4573 53.05ZM80.9256 61.2262C80.9256 60.9175 80.8047 60.6215 80.5896 60.4032C80.3744 60.1849 80.0826 60.0622 79.7783 60.0622H47.5949C47.2906 60.0622 46.9988 60.1849 46.7836 60.4032C46.5685 60.6215 46.4476 60.9175 46.4476 61.2262C46.4476 61.535 46.5685 61.831 46.7836 62.0493C46.9988 62.2676 47.2906 62.3902 47.5949 62.3902H79.7814C80.0857 62.3902 80.3775 62.2676 80.5927 62.0493C80.8078 61.831 80.9287 61.535 80.9287 61.2262H80.9256ZM80.9256 51.886C80.9256 51.5773 80.8047 51.2812 80.5896 51.0629C80.3744 50.8446 80.0826 50.722 79.7783 50.722H68.2013C67.897 50.722 67.6052 50.8446 67.39 51.0629C67.1749 51.2812 67.054 51.5773 67.054 51.886C67.054 52.1947 67.1749 52.4908 67.39 52.7091C67.6052 52.9274 67.897 53.05 68.2013 53.05H79.7814C79.9323 53.05 80.0818 53.0198 80.2212 52.9611C80.3606 52.9024 80.4872 52.8164 80.5938 52.708C80.7003 52.5996 80.7848 52.4709 80.8423 52.3293C80.8997 52.1877 80.9291 52.036 80.9287 51.8829L80.9256 51.886ZM80.9256 42.5458C80.9256 42.2371 80.8047 41.941 80.5896 41.7227C80.3744 41.5044 80.0826 41.3818 79.7783 41.3818H34.4573C34.153 41.3818 33.8612 41.5044 33.646 41.7227C33.4309 41.941 33.31 42.2371 33.31 42.5458C33.31 42.8545 33.4309 43.1506 33.646 43.3689C33.8612 43.5872 34.153 43.7098 34.4573 43.7098H79.7814C79.9323 43.7098 80.0818 43.6796 80.2212 43.6209C80.3606 43.5622 80.4872 43.4762 80.5938 43.3678C80.7003 43.2593 80.7848 43.1307 80.8423 42.9891C80.8997 42.8475 80.9291 42.6958 80.9287 42.5427L80.9256 42.5458ZM75.3237 0.0010934V12.9616H88.9969L75.3237 0.0010934Z" fill="#A6C68D"/>
</svg>
