<svg width="18" height="18" viewBox="0 0 18 18" fill="none" xmlns="http://www.w3.org/2000/svg">
<path d="M9 0.75C9.14723 0.75 9.29154 0.79336 9.41406 0.875C9.53652 0.956635 9.6318 1.07316 9.68848 1.20898L9.68945 1.20996L11.5078 5.53516L11.625 5.81348L11.9258 5.83984L16.5693 6.24219H16.5703C16.7174 6.25455 16.8579 6.30969 16.9736 6.40137C17.0894 6.49312 17.1761 6.61734 17.2217 6.75781C17.2672 6.89819 17.2702 7.04928 17.2305 7.19141C17.1951 7.31781 17.1254 7.43083 17.0322 7.52246L16.9912 7.55859L13.4678 10.6338L13.2422 10.8311L13.3096 11.123L14.3652 15.7012V15.7021C14.3987 15.8457 14.3893 15.9966 14.3379 16.1348C14.2864 16.2729 14.1954 16.3928 14.0762 16.4795C13.9571 16.5661 13.8151 16.6156 13.668 16.6221C13.5207 16.6284 13.3743 16.5917 13.248 16.5156H13.249L9.25586 14.0938L8.99707 13.9365L8.7373 14.0947L4.75488 16.5156C4.6286 16.5917 4.48226 16.6284 4.33496 16.6221C4.18764 16.6157 4.04503 16.5662 3.92578 16.4795C3.80666 16.3928 3.71547 16.2729 3.66406 16.1348C3.61262 15.9966 3.60321 15.8457 3.63672 15.7021L3.6377 15.7012L4.69141 11.1279L4.75879 10.8359L4.5332 10.6387L1.00879 7.55957L1.00586 7.55762L0.928711 7.47949C0.856822 7.3963 0.803305 7.29815 0.773438 7.19141C0.73368 7.04919 0.737613 6.89827 0.783203 6.75781C0.828809 6.61734 0.914543 6.49312 1.03027 6.40137C1.14598 6.30968 1.28648 6.25455 1.43359 6.24219H1.43457L6.08008 5.83984L6.38086 5.81348L6.49805 5.53418L8.31152 1.20996V1.20898C8.36819 1.07317 8.46349 0.956634 8.58594 0.875C8.70846 0.793363 8.85277 0.750004 9 0.75Z" stroke="#EF8459"/>
</svg>
