<svg width="27" height="32" viewBox="0 0 27 32" fill="none" xmlns="http://www.w3.org/2000/svg">
<path d="M13.1374 31.4911C5.27956 28.8124 0 21.443 0 13.1534V6.75075C0 6.4661 0.194361 6.21806 0.471106 6.14962C5.03445 5.02044 9.23594 2.99476 12.9591 0.12883C13.1823 -0.0429125 13.4934 -0.0429745 13.7167 0.12883C17.4398 2.9947 21.6413 5.02044 26.2047 6.14962C26.4814 6.21812 26.6758 6.4661 26.6758 6.75081V13.1534C26.6758 21.443 21.3962 28.8124 13.5384 31.4912C13.4085 31.5354 13.2674 31.5354 13.1374 31.4911ZM1.24073 7.23192V13.1534C1.24073 20.8425 6.09292 27.6857 13.3379 30.2493C20.5828 27.6857 25.435 20.8425 25.435 13.1534V7.23192C21.0389 6.08063 16.9736 4.11986 13.3379 1.39736C9.70202 4.11986 5.63677 6.08063 1.24073 7.23192Z" fill="white"/>
<path d="M13.107 29.0335C6.70011 26.4698 2.48144 20.2707 2.48144 13.3483V8.6335C2.48144 8.36105 2.65974 8.12062 2.92072 8.04116C6.51183 6.94722 9.89785 5.31031 12.9847 3.17594C13.1971 3.02897 13.4787 3.02897 13.6911 3.17594C16.7778 5.31031 20.1638 6.94722 23.755 8.04116C24.016 8.12069 24.1943 8.36111 24.1943 8.6335V13.3483C24.1943 20.2668 19.979 26.4684 13.5687 29.0335C13.4205 29.0928 13.2552 29.0928 13.107 29.0335ZM3.72217 9.08909V13.3483C3.72217 19.7015 7.4881 25.3426 13.3378 27.7893C19.1876 25.3426 22.9535 19.7015 22.9535 13.3483V9.08909C19.5381 8.00301 16.3077 6.43955 13.3378 4.43543C10.3679 6.43961 7.13741 8.00307 3.72217 9.08909Z" fill="white"/>
<path d="M14.8888 23.1943H11.787C11.4444 23.1943 11.1666 22.917 11.1666 22.5749V18.2396H6.82404C6.48147 18.2396 6.20367 17.9623 6.20367 17.6202V14.5235C6.20367 14.1815 6.48147 13.9042 6.82404 13.9042H11.1666V9.56881C11.1666 9.22675 11.4444 8.94947 11.787 8.94947H14.8888C15.2314 8.94947 15.5092 9.22675 15.5092 9.56881V13.9042H19.8517C20.1943 13.9042 20.4721 14.1815 20.4721 14.5235V17.6202C20.4721 17.9623 20.1943 18.2396 19.8517 18.2396H15.5092V22.5749C15.5092 22.917 15.2314 23.1943 14.8888 23.1943ZM12.4073 21.9556H14.2684V17.6202C14.2684 17.2782 14.5462 17.0009 14.8888 17.0009H19.2313V15.1429H14.8888C14.5462 15.1429 14.2684 14.8656 14.2684 14.5235V10.1881H12.4073V14.5235C12.4073 14.8656 12.1295 15.1429 11.787 15.1429H7.4444V17.0009H11.787C12.1295 17.0009 12.4073 17.2782 12.4073 17.6202V21.9556Z" fill="white"/>
</svg>
