<svg width="31" height="35" viewBox="0 0 31 35" fill="none" xmlns="http://www.w3.org/2000/svg">
<path d="M13.8335 1.2002C13.2812 1.2002 12.8335 1.64791 12.8335 2.2002V9.0818C12.8335 9.34523 12.9374 9.59802 13.1228 9.78525L20.6228 17.3629C21.2512 17.9979 22.3335 17.5529 22.3335 16.6595V14.0002C22.3335 12.1681 21.306 10.586 19.8079 9.78063C19.4366 9.58101 19.1668 9.21357 19.1668 8.792V2.20019C19.1668 1.64791 18.7191 1.2002 18.1668 1.2002H13.8335Z" fill="white"/>
<path d="M9.6665 32.1998C9.6665 32.7521 10.1142 33.1998 10.6665 33.1998H21.3332C21.8855 33.1998 22.3332 32.7521 22.3332 32.1998V29.672C22.3332 28.7786 23.4155 28.3336 24.044 28.9686L27.5217 32.4829C27.9125 32.8779 28.5503 32.8785 28.9419 32.4843L29.5511 31.8711C29.938 31.4817 29.9386 30.8532 29.5526 30.463L2.89605 3.51829C2.50472 3.12272 1.86575 3.12267 1.47435 3.51819L0.862572 4.13641C0.476971 4.52607 0.476971 5.15354 0.862572 5.5432L9.3773 14.1476C9.56258 14.3348 9.6665 14.5876 9.6665 14.851V32.1998Z" fill="white"/>
</svg>
