<svg width="29" height="24" viewBox="0 0 29 24" fill="none" xmlns="http://www.w3.org/2000/svg">
<path d="M28.5405 0.421889H7.40223L6.72213 0.0524044C6.61361 -0.00602919 6.48792 -0.0160301 6.37253 0.0245875C6.25715 0.0652051 6.16146 0.153138 6.10636 0.269168L0.0497984 12.9991C-0.00514722 13.1151 -0.0150589 13.2497 0.0222268 13.3736C0.0411366 13.435 0.0711617 13.4919 0.110586 13.5409C0.15001 13.59 0.19806 13.6302 0.25199 13.6593L19.0926 23.9457C19.156 23.9826 19.2272 24.0013 19.2994 23.9999C19.3842 23.9997 19.4674 23.9742 19.5396 23.9264C19.6118 23.8785 19.6702 23.8102 19.7084 23.729L23.5362 15.6939H28.5405C28.6623 15.6939 28.7792 15.642 28.8654 15.5496C28.9516 15.4572 29 15.3319 29 15.2013V0.914535C29 0.783877 28.9516 0.658571 28.8654 0.566182C28.7792 0.473793 28.6623 0.421889 28.5405 0.421889ZM6.9427 12.8858L2.34743 10.3684L2.7656 9.49643L6.9427 11.7774V12.8858ZM6.72673 1.151L6.9427 1.26924V10.6739L3.17918 8.61459L6.72673 1.151ZM19.1064 22.8274L1.09292 12.9745L1.92467 11.2601L6.9427 13.9894V15.2013C6.9427 15.3319 6.99112 15.4572 7.0773 15.5496C7.16347 15.642 7.28036 15.6939 7.40223 15.6939H10.0629L19.9427 21.113L19.1064 22.8274ZM14.1113 15.6939L20.7745 19.3346L20.3563 20.2164L12.0848 15.6939H14.1113ZM21.188 18.4577L16.1332 15.6939H22.5069L21.188 18.4577ZM28.0809 14.7086H7.86176V1.40718H28.0809V14.7086Z" fill="white"/>
<path d="M20.269 9.28953C20.8468 9.28761 21.4093 9.09116 21.8773 8.72792C22.2889 9.04735 22.7748 9.23865 23.2813 9.28071C23.7879 9.32276 24.2955 9.21394 24.748 8.96624C25.2005 8.71854 25.5804 8.3416 25.8457 7.87704C26.111 7.41248 26.2514 6.87837 26.2514 6.33366C26.2514 5.78895 26.111 5.25483 25.8457 4.79027C25.5804 4.32571 25.2005 3.94877 24.748 3.70107C24.2955 3.45338 23.7879 3.34455 23.2813 3.3866C22.7748 3.42866 22.2889 3.61996 21.8773 3.9394C21.5248 3.66574 21.1168 3.48547 20.6867 3.41333C20.2567 3.34119 19.8168 3.37923 19.4031 3.52433C18.9894 3.66943 18.6137 3.91748 18.3066 4.24817C17.9995 4.57887 17.7697 4.98282 17.6362 5.42696C17.5027 5.87111 17.4692 6.34284 17.5384 6.80355C17.6076 7.26426 17.7775 7.70086 18.0343 8.07763C18.2911 8.4544 18.6275 8.76064 19.0159 8.97127C19.4043 9.18191 19.8337 9.29097 20.269 9.28953ZM25.3238 6.33366C25.3238 6.7234 25.216 7.10439 25.014 7.42845C24.812 7.75251 24.525 8.00509 24.1891 8.15424C23.8532 8.30339 23.4836 8.34241 23.1271 8.26638C22.7705 8.19034 22.443 8.00266 22.1859 7.72707C21.9289 7.45148 21.7538 7.10035 21.6829 6.7181C21.612 6.33584 21.6484 5.93962 21.7875 5.57955C21.9266 5.21947 22.1622 4.91171 22.4645 4.69518C22.7668 4.47864 23.1221 4.36307 23.4857 4.36307C23.9732 4.36307 24.4407 4.57069 24.7854 4.94024C25.1301 5.3098 25.3238 5.81102 25.3238 6.33366ZM20.269 4.36307C20.6044 4.36348 20.9334 4.46229 21.2202 4.64881C20.9 5.14361 20.7285 5.73145 20.7285 6.33366C20.7285 6.93586 20.9 7.52371 21.2202 8.01851C20.9776 8.17625 20.7043 8.27165 20.4216 8.29725C20.1389 8.32284 19.8545 8.27793 19.5907 8.16603C19.3269 8.05414 19.0908 7.87829 18.901 7.65226C18.7111 7.42623 18.5727 7.15615 18.4964 6.86318C18.4202 6.57021 18.4082 6.2623 18.4615 5.96355C18.5148 5.6648 18.6319 5.38334 18.8036 5.14119C18.9752 4.89904 19.1969 4.70279 19.4511 4.56779C19.7053 4.4328 19.9853 4.36273 20.269 4.36307Z" fill="white"/>
<path d="M9.24035 9.78227H14.7547C14.8765 9.78227 14.9934 9.73037 15.0796 9.63798C15.1658 9.54559 15.2142 9.42028 15.2142 9.28962V3.37787C15.2142 3.24721 15.1658 3.12191 15.0796 3.02952C14.9934 2.93713 14.8765 2.88522 14.7547 2.88522H9.24035C9.11848 2.88522 9.00159 2.93713 8.91542 3.02952C8.82924 3.12191 8.78082 3.24721 8.78082 3.37787V9.28962C8.78082 9.42028 8.82924 9.54559 8.91542 9.63798C9.00159 9.73037 9.11848 9.78227 9.24035 9.78227ZM9.69988 7.81168H10.6189V8.79698H9.69988V7.81168ZM10.6189 6.82639H9.69988V5.8411H10.6189V6.82639ZM14.2951 8.79698H13.3761V7.81168H14.2951V8.79698ZM14.2951 6.82639H13.3761V5.8411H14.2951V6.82639ZM14.2951 3.87052V4.85581H13.3761V3.87052H14.2951ZM12.457 3.87052V8.79698H11.538V5.34845C11.538 5.2178 11.4896 5.09249 11.4034 5.0001C11.3172 4.90771 11.2003 4.85581 11.0785 4.85581H9.69988V3.87052H12.457Z" fill="white"/>
<path d="M17.0523 13.7233H20.7285C20.8504 13.7233 20.9673 13.6714 21.0535 13.5791C21.1396 13.4867 21.1881 13.3614 21.1881 13.2307V11.2601C21.1881 11.1295 21.1396 11.0042 21.0535 10.9118C20.9673 10.8194 20.8504 10.7675 20.7285 10.7675H17.0523C16.9304 10.7675 16.8136 10.8194 16.7274 10.9118C16.6412 11.0042 16.5928 11.1295 16.5928 11.2601V13.2307C16.5928 13.3614 16.6412 13.4867 16.7274 13.5791C16.8136 13.6714 16.9304 13.7233 17.0523 13.7233ZM17.5118 11.7528H20.269V12.7381H17.5118V11.7528Z" fill="white"/>
<path d="M22.5666 10.7675C22.4448 10.7675 22.3279 10.8194 22.2417 10.9118C22.1555 11.0042 22.1071 11.1295 22.1071 11.2601V13.2307C22.1071 13.3614 22.1555 13.4867 22.2417 13.5791C22.3279 13.6714 22.4448 13.7233 22.5666 13.7233H26.2428C26.3647 13.7233 26.4816 13.6714 26.5678 13.5791C26.654 13.4867 26.7024 13.3614 26.7024 13.2307V11.2601C26.7024 11.1295 26.654 11.0042 26.5678 10.9118C26.4816 10.8194 26.3647 10.7675 26.2428 10.7675H22.5666ZM25.7833 12.7381H23.0262V11.7528H25.7833V12.7381Z" fill="white"/>
<path d="M14.7547 10.7675H11.0785C10.9566 10.7675 10.8397 10.8194 10.7535 10.9118C10.6673 11.0042 10.6189 11.1295 10.6189 11.2601V13.2307C10.6189 13.3614 10.6673 13.4867 10.7535 13.5791C10.8397 13.6714 10.9566 13.7233 11.0785 13.7233H14.7547C14.8765 13.7233 14.9934 13.6714 15.0796 13.5791C15.1658 13.4867 15.2142 13.3614 15.2142 13.2307V11.2601C15.2142 11.1295 15.1658 11.0042 15.0796 10.9118C14.9934 10.8194 14.8765 10.7675 14.7547 10.7675ZM14.2951 12.7381H11.538V11.7528H14.2951V12.7381Z" fill="white"/>
</svg>
